<svg version="1.0" xmlns="http://www.w3.org/2000/svg" width="600.000000pt" height="306.000000pt" viewBox="0 0 600.000000 306.000000" preserveAspectRatio="xMidYMid meet" style="width: 1787.24px; height: auto;"> <g transform="translate(0.000000,306.000000) scale(0.100000,-0.100000)" fill="#000000" stroke="none" class=""> <path d="M2157 2743 c-12 -7 -47 -18 -77 -24 -42 -10 -62 -21 -83 -46 -34 -39 -60 -55 -106 -62 -29 -5 -35 -12 -51 -55 -26 -67 -60 -114 -91 -125 -18 -6 -28 -19 -33 -42 -7 -39 -32 -69 -56 -69 -13 0 -20 -11 -25 -37 -11 -59 -43 -144 -62 -165 -10 -11 -33 -26 -52 -34 -19 -8 -96 -50 -170 -93 -140 -81 -670 -371 -821 -449 -105 -55 -246 -148 -254 -167 -12 -31 74 -77 251 -133 29 -9 53 -20 53 -24 0 -4 -61 -6 -135 -5 -144 1 -170 -6 -149 -41 16 -26 125 -89 264 -152 69 -32 188 -87 265 -122 77 -36 169 -72 205 -81 196 -49 248 -58 460 -81 74 -8 171 -20 215 -26 44 -5 105 -13 136 -16 l57 -5 12 -44 c18 -65 147 -183 364 -335 275 -192 342 -225 366 -181 27 51 -3 236 -57 350 -52 109 -116 156 -268 195 -38 10 -74 22 -78 26 -4 4 68 12 160 18 242 17 567 51 647 68 l70 14 35 -33 c57 -54 251 -219 306 -261 56 -43 106 -66 141 -66 58 0 292 137 357 210 39 43 54 89 37 119 -22 42 -240 131 -319 131 -23 0 -41 5 -41 10 0 6 9 10 20 10 18 0 193 38 365 79 215 51 407 94 477 106 182 32 396 28 524 -10 66 -20 148 -75 274 -186 142 -124 212 -175 295 -215 108 -52 174 -43 175 24 0 13 -22 83 -49 155 -64 173 -116 337 -132 415 -17 84 -4 134 66 238 63 97 88 144 155 301 82 189 80 293 -6 293 -108 0 -318 -114 -566 -306 -162 -126 -167 -128 -335 -132 -214 -6 -463 36 -796 134 -66 19 -129 32 -140 29 -12 -3 6 8 40 25 131 65 151 112 84 197 -104 132 -240 197 -416 198 l-100 0 -145 -69 c-239 -113 -254 -114 -296 -22 -18 40 -37 62 -78 90 -30 21 -62 48 -70 62 -9 13 -29 30 -44 38 -16 8 -41 33 -56 54 -15 22 -39 43 -52 46 -13 4 -41 21 -62 39 -20 18 -59 46 -85 61 -27 15 -51 34 -54 42 -3 8 -24 24 -47 36 -22 11 -51 33 -64 49 -18 23 -32 29 -60 29 -21 0 -48 7 -61 16 -29 21 -200 26 -234 7z m3 -195 c-16 -85 -41 -192 -55 -238 -14 -45 -22 -86 -19 -91 3 -5 -2 -6 -10 -3 -20 8 -20 -5 8 122 21 91 45 297 31 267 -2 -5 -15 -77 -29 -160 -29 -171 -43 -225 -56 -225 -13 0 -13 1 6 95 9 46 16 142 17 226 l2 146 25 0 c14 0 43 9 65 19 26 13 41 16 43 9 1 -7 -11 -81 -28 -167z m152 94 c-11 -43 -50 -152 -87 -243 -37 -90 -67 -173 -67 -184 1 -19 0 -19 -10 -2 -7 14 -4 32 15 75 49 113 103 310 88 325 -5 4 -11 -13 -14 -38 -12 -83 -125 -395 -127 -348 0 6 12 54 26 105 32 115 41 156 58 283 8 55 15 101 15 102 1 3 115 9 119 6 2 -1 -5 -37 -16 -81z m72 63 c11 -8 32 -15 48 -15 15 0 28 -2 28 -5 0 -17 -70 -173 -135 -300 -68 -133 -110 -193 -125 -179 -2 3 1 8 7 12 25 16 169 340 161 364 -2 5 -21 -33 -42 -84 -48 -116 -125 -265 -145 -281 -8 -7 -12 -7 -9 -2 47 87 132 319 168 463 12 46 16 48 44 27z m122 -56 c10 -11 32 -26 47 -32 l29 -12 -59 -83 c-32 -46 -86 -122 -120 -168 -105 -143 -104 -141 -87 -141 22 0 90 86 189 239 l88 137 33 -28 c18 -16 42 -32 54 -36 12 -4 20 -11 18 -16 -6 -18 -203 -223 -251 -260 -79 -63 -87 -46 -14 29 73 74 157 178 157 195 0 12 1 13 -54 -56 -21 -26 -74 -86 -118 -133 -81 -85 -81 -85 -128 -83 -44 2 -47 4 -37 20 10 16 13 17 20 3 7 -12 21 3 63 68 54 82 134 229 134 244 0 16 -20 -13 -61 -91 -50 -95 -120 -208 -125 -202 -3 2 15 40 40 83 53 97 146 305 146 327 0 23 13 21 36 -4z m-479 -124 c-6 -108 -26 -260 -38 -292 -5 -13 -15 -23 -24 -23 -18 0 -18 -8 0 87 8 43 14 116 13 163 0 47 -3 69 -5 50 -2 -19 -8 -64 -14 -100 -6 -36 -12 -77 -14 -92 -9 -63 -26 -107 -50 -122 -13 -9 -28 -16 -32 -16 -4 0 -3 4 4 8 16 10 33 153 27 225 -14 180 -14 167 7 167 28 0 69 23 99 55 l25 27 4 -24 c2 -12 1 -63 -2 -113z m-160 -142 c-8 -167 -12 -189 -35 -195 -15 -4 -17 7 -15 96 1 83 0 92 -7 51 -5 -27 -9 -74 -9 -102 -1 -37 -5 -53 -14 -53 -11 0 -15 27 -20 106 l-6 106 34 33 c19 18 42 49 50 69 8 20 18 36 22 36 3 0 3 -66 0 -147z m881 92 c15 -14 37 -28 50 -31 12 -4 22 -10 22 -14 0 -14 -225 -201 -273 -226 -53 -28 -49 -8 7 35 65 51 170 160 161 169 -3 4 -21 -9 -39 -28 -72 -77 -203 -179 -230 -180 -6 0 24 31 65 69 41 37 103 105 139 150 36 44 66 81 68 81 2 0 15 -11 30 -25z m134 -108 l45 -44 -56 -30 c-31 -17 -96 -48 -146 -69 -86 -35 -136 -64 -88 -50 12 4 24 3 27 -2 3 -5 -19 -9 -50 -8 -30 0 -51 2 -45 4 5 2 7 11 4 20 -4 15 -3 15 6 2 6 -9 11 -10 11 -3 0 6 28 34 63 61 35 27 90 75 123 105 32 31 59 56 60 57 0 0 21 -20 46 -43z m-1142 -107 c0 -60 -4 -100 -10 -100 -5 0 -10 20 -10 44 0 25 -5 48 -10 51 -7 4 -8 -13 -4 -49 5 -39 3 -56 -5 -56 -6 0 -11 16 -11 38 0 20 -4 51 -9 68 -8 28 -6 33 15 43 13 5 26 22 30 36 3 14 8 25 10 25 2 0 4 -45 4 -100z m1226 28 c10 -11 38 -33 62 -49 24 -15 39 -29 35 -32 -20 -11 -123 -36 -178 -42 -33 -3 -75 -9 -94 -12 -24 -4 -32 -2 -27 6 4 6 14 11 23 11 24 0 156 41 150 46 -3 3 -43 -4 -88 -14 -101 -24 -169 -35 -169 -29 0 3 26 15 58 28 31 13 89 42 127 65 39 24 73 43 76 43 3 1 14 -9 25 -21z m-1300 -146 c-7 -9 -11 -10 -16 -2 -5 8 -9 6 -14 -6 -3 -9 -9 -15 -12 -12 -2 3 6 36 18 74 l23 69 5 -55 c3 -30 1 -61 -4 -68z m2003 94 c-2 -2 -47 -25 -99 -52 -52 -26 -128 -70 -169 -96 -67 -44 -112 -60 -111 -40 1 10 245 164 284 179 28 11 106 18 95 9z m131 -16 c24 -7 23 -7 -10 -14 -43 -9 -253 -87 -260 -96 -11 -16 -151 -81 -168 -78 -19 4 70 60 243 149 113 59 117 60 195 39z m-1520 -34 c101 -6 141 -10 258 -26 181 -25 230 -32 272 -40 25 -5 67 -12 94 -15 50 -6 263 -55 346 -79 25 -7 83 -24 130 -36 47 -12 150 -43 230 -67 218 -67 252 -77 287 -77 17 -1 29 -4 27 -8 -10 -16 453 -139 618 -163 161 -24 388 -36 455 -24 60 11 143 46 143 61 0 4 4 8 10 8 5 0 69 44 142 99 134 99 337 220 416 246 23 8 58 15 77 15 29 0 34 -4 40 -28 3 -16 1 -49 -4 -74 -21 -91 -129 -320 -191 -402 -64 -85 -100 -162 -100 -215 0 -59 32 -171 122 -419 66 -184 79 -234 65 -249 -12 -11 -102 19 -166 57 -36 21 -136 97 -221 170 -241 203 -300 230 -532 238 -166 5 -289 -7 -448 -44 -192 -45 -313 -74 -465 -110 -82 -20 -190 -42 -240 -50 -158 -26 -281 -52 -250 -54 30 -2 -160 -45 -326 -74 -154 -28 -401 -55 -554 -61 -82 -4 -200 -13 -261 -21 -81 -10 -119 -11 -139 -4 -15 6 -30 9 -32 7 -5 -6 43 -28 192 -87 72 -28 153 -66 180 -85 87 -59 154 -195 162 -332 7 -102 -2 -109 -86 -68 -96 47 -327 215 -463 336 -39 35 -79 70 -89 77 -24 17 -42 77 -35 115 5 25 4 29 -6 19 -18 -18 -28 -15 -28 10 0 19 -1 20 -12 6 -12 -15 -23 -15 -118 -3 -190 25 -315 47 -329 59 -12 9 -13 8 -8 -6 5 -15 1 -18 -21 -18 -26 0 -62 15 -52 22 17 12 71 25 75 19 2 -5 28 -11 57 -14 29 -3 111 -13 182 -22 96 -11 131 -12 137 -4 4 6 12 8 19 4 24 -15 103 -5 165 20 35 14 80 25 99 25 30 0 36 4 36 21 0 11 -4 18 -8 15 -5 -3 -9 0 -9 7 0 7 -3 35 -7 62 l-6 50 25 -54 c14 -29 22 -57 19 -62 -3 -5 4 -9 15 -9 18 0 18 4 -12 62 -18 35 -35 65 -39 66 -5 2 -8 10 -8 18 0 9 -4 13 -10 9 -10 -6 -8 -120 3 -131 14 -14 7 -22 -15 -16 -17 4 -20 2 -15 -11 5 -12 -3 -19 -30 -26 -45 -13 -55 -7 -14 7 22 8 29 15 25 26 -4 11 0 16 12 17 11 0 14 3 6 6 -6 2 -9 10 -5 16 13 22 11 99 -4 104 -22 9 -24 -1 -8 -40 9 -22 11 -37 5 -37 -5 0 -10 -6 -10 -14 0 -19 -40 -67 -51 -61 -5 4 -16 -9 -25 -28 -14 -29 -21 -34 -56 -35 -29 -1 -37 1 -32 11 5 9 4 9 -6 0 -7 -7 -25 -9 -41 -6 -19 3 -29 1 -29 -6 0 -7 -10 -9 -27 -5 -45 11 -113 43 -113 52 0 5 26 19 58 31 79 29 190 102 189 123 -1 18 -12 14 -12 -4 0 -17 -149 -89 -196 -95 -29 -4 -37 -9 -27 -15 9 -7 7 -8 -9 -5 -15 3 -20 1 -16 -9 3 -8 1 -14 -5 -14 -6 0 -8 -8 -5 -19 4 -15 0 -18 -21 -14 -14 3 -26 10 -26 17 0 8 -3 7 -8 -1 -6 -9 -18 -9 -50 -1 l-43 11 28 17 c15 9 41 20 58 24 16 4 33 13 37 19 6 9 8 8 8 -2 0 -9 6 -7 19 7 10 12 20 19 23 16 16 -15 160 163 203 249 41 84 34 129 -47 297 -35 74 -73 156 -83 183 -10 26 -20 46 -22 44 -6 -7 38 -139 85 -252 60 -145 61 -190 6 -294 -21 -40 -66 -103 -99 -139 -66 -72 -131 -108 -312 -171 -100 -35 -148 -37 -71 -3 69 30 137 85 191 154 26 33 45 63 43 65 -2 3 -44 -30 -93 -72 -164 -142 -259 -169 -419 -120 -89 27 -253 89 -329 125 -275 128 -339 163 -315 170 22 6 21 8 -14 11 -22 2 -41 9 -43 15 -3 8 29 12 99 12 57 1 118 5 136 11 18 5 32 6 32 1 0 -9 -42 -23 -108 -36 -18 -4 -32 -10 -32 -15 0 -12 -2 -12 97 16 49 14 98 23 110 20 37 -9 26 4 -19 24 -24 10 -73 33 -110 50 -37 17 -104 45 -148 62 -61 23 -80 35 -78 47 2 12 16 18 48 20 46 3 74 18 64 33 -3 5 -19 2 -35 -7 -17 -8 -33 -13 -36 -10 -9 8 7 26 24 26 8 0 27 8 41 19 15 10 81 47 147 81 66 35 163 86 215 115 52 29 127 69 165 90 101 56 155 91 149 98 -3 3 3 3 15 0 12 -3 21 -1 21 6 0 6 6 11 13 11 6 0 73 35 148 78 75 43 166 91 203 107 36 16 66 35 66 42 0 7 5 13 11 13 5 0 8 -4 4 -9 -3 -6 32 4 77 21 147 54 256 79 373 85 61 3 112 7 113 9 2 1 9 1 15 -1 7 -2 55 -6 107 -9z m810 -10 c0 -7 11 -30 26 -51 l25 -37 -28 7 c-15 5 -46 11 -68 15 -22 4 -31 8 -20 9 11 1 26 5 34 10 8 5 -26 7 -80 4 -68 -3 -90 -2 -79 6 8 6 26 11 40 11 14 0 50 11 80 24 57 23 70 24 70 2z m809 5 l42 -18 -60 -12 c-33 -6 -97 -23 -143 -37 -46 -14 -91 -26 -100 -27 -9 -1 -14 -5 -11 -11 4 -5 -6 -6 -23 -2 -18 4 -24 3 -16 -2 10 -6 -8 -17 -58 -36 -72 -26 -101 -31 -113 -19 -21 20 347 180 419 182 12 1 41 -7 63 -18z m-469 -16 c0 -2 -38 -27 -85 -54 -79 -47 -88 -50 -142 -47 -80 5 -80 5 -63 16 20 13 39 12 20 -1 -11 -7 -4 -8 25 -4 61 10 103 25 175 61 71 37 70 36 70 29z m-1660 -12 c-8 -3 -34 -14 -58 -24 -29 -12 -42 -14 -39 -6 2 6 8 12 13 13 5 0 16 3 24 7 31 12 45 15 60 15 13 0 13 0 0 -5z m2230 -43 l45 -39 -41 -1 c-23 0 -97 -8 -165 -19 -68 -10 -140 -17 -159 -16 -30 2 -30 1 -5 -3 25 -4 15 -8 -55 -26 -80 -20 -152 -23 -133 -6 21 20 407 144 463 149 3 1 25 -17 50 -39z m-2380 -12 c0 -4 -4 -8 -9 -8 -6 0 -12 4 -15 8 -3 5 1 9 9 9 8 0 15 -4 15 -9z m2445 -58 c22 -25 17 -26 -95 -35 -47 -3 -150 -14 -230 -25 -79 -10 -151 -15 -159 -10 -11 6 -11 9 5 13 56 17 384 74 440 76 11 1 29 -8 39 -19z m25 -54 c0 -8 -7 -22 -16 -30 -12 -13 -42 -16 -157 -17 -78 0 -154 -3 -170 -5 -15 -3 -46 1 -70 7 -42 12 -41 12 78 26 136 15 279 30 313 32 13 0 22 -5 22 -13z m-120 -93 c-53 -24 -57 -24 -100 -10 -68 23 -114 31 -106 18 5 -7 1 -8 -9 -4 -38 14 15 23 140 22 l130 -1 -55 -25z m-360 -973 c-13 -8 -13 -10 -1 -10 11 0 9 -4 -5 -15 -18 -14 -17 -14 12 -15 47 0 194 -45 271 -82 83 -40 92 -66 42 -122 -63 -73 -280 -200 -336 -198 -57 2 -71 13 -421 309 -15 13 -21 23 -13 23 7 0 45 -28 85 -63 124 -109 297 -243 281 -217 -5 8 -10 19 -10 24 0 5 -8 10 -18 12 -16 2 -240 185 -254 208 -4 6 2 4 14 -4 157 -110 353 -239 353 -232 0 5 -26 26 -57 48 -32 21 -112 77 -178 125 -66 47 -127 83 -134 81 -10 -3 -11 0 -5 9 6 12 5 12 -8 1 -13 -10 -17 -10 -22 3 -6 16 19 33 31 22 3 -4 15 0 25 8 23 16 49 10 42 -10 -4 -10 37 -34 133 -80 182 -88 250 -119 238 -107 -15 15 -299 156 -308 154 -5 -1 -6 2 -2 8 3 6 9 8 13 6 16 -9 320 -139 357 -152 36 -12 38 -12 21 1 -11 8 -24 15 -28 15 -5 0 -52 21 -106 46 -158 76 -225 101 -255 97 -22 -3 -27 -1 -21 9 6 11 5 11 -8 0 -9 -7 -19 -9 -21 -5 -10 16 7 30 43 38 19 4 38 13 43 19 5 8 10 7 17 -4 8 -13 10 -12 11 5 0 11 3 14 6 7 2 -6 8 -10 13 -7 10 6 200 -30 300 -57 111 -31 134 -32 55 -3 -82 30 -283 77 -296 69 -5 -3 -9 -1 -9 4 0 12 25 22 53 21 21 0 21 -1 2 -9 -17 -7 -16 -9 9 -9 16 -1 26 2 23 6 -9 8 12 33 27 33 6 0 4 -5 -4 -10z" class=""></path> <path d="M2799 2312 c-35 -26 -144 -89 -168 -97 -20 -6 -30 -25 -13 -25 15 0 168 92 192 115 29 29 23 33 -11 7z"></path> <path d="M2075 2159 c-139 -6 -232 -22 -352 -59 -112 -35 -326 -138 -523 -253 -33 -20 -39 -27 -24 -27 12 0 33 9 47 20 14 11 30 20 35 20 5 0 15 7 22 15 7 9 19 14 27 11 8 -3 11 -2 8 3 -5 9 32 27 48 23 4 -1 7 3 7 8 0 6 7 10 15 10 8 0 15 5 15 11 0 5 5 7 10 4 6 -3 10 -1 10 5 0 6 5 8 12 4 7 -5 8 -3 3 6 -6 10 -3 12 14 7 13 -3 21 -3 17 0 -8 8 174 95 206 99 10 0 23 6 30 12 7 5 31 14 53 18 48 10 46 9 65 17 35 14 165 27 310 32 115 4 231 -11 208 -27 -9 -7 -4 -8 15 -3 19 4 26 2 22 -4 -3 -7 0 -8 9 -5 20 8 11 24 -12 24 -10 0 -26 6 -37 14 -27 18 -92 22 -260 15z"></path> <path d="M2380 2148 c19 -5 52 -16 73 -23 20 -7 35 -9 31 -4 -3 6 4 8 18 4 26 -6 50 -9 188 -25 52 -6 111 -15 130 -20 43 -12 60 -12 60 -2 0 10 -100 29 -230 42 -52 6 -138 17 -190 25 -107 17 -131 18 -80 3z"></path> <path d="M2905 2070 c11 -5 16 -9 10 -10 -8 -2 119 -23 195 -33 8 -1 24 -7 35 -13 39 -21 121 -40 188 -43 16 0 26 -5 23 -9 -3 -5 17 -14 45 -21 30 -8 46 -17 42 -24 -4 -6 0 -8 9 -4 9 3 33 0 54 -8 22 -7 32 -15 23 -17 -7 -3 -4 -4 7 -2 20 4 61 -6 109 -26 43 -17 82 -29 142 -41 34 -7 60 -15 58 -18 -2 -3 9 -6 23 -7 45 -1 84 -12 103 -30 12 -10 19 -13 19 -5 0 8 7 7 23 -3 12 -8 37 -17 55 -21 17 -4 32 -10 32 -15 0 -4 6 -8 13 -7 30 1 44 -4 44 -16 0 -14 -28 -14 -132 -1 -81 10 -167 8 -148 -4 7 -4 49 -9 93 -10 45 -1 97 -9 117 -17 31 -13 34 -13 23 0 -7 8 -9 15 -5 15 12 0 95 -54 95 -62 0 -4 7 -14 16 -23 9 -9 24 -41 33 -72 16 -53 41 -83 41 -49 0 9 -5 16 -11 16 -5 0 -8 4 -4 9 3 5 1 12 -5 16 -5 3 -10 15 -10 25 0 21 -52 103 -78 122 -26 20 -24 36 3 34 14 0 25 -4 25 -8 0 -4 8 -7 18 -7 67 1 176 -26 167 -42 -4 -5 1 -6 9 -3 9 3 46 0 83 -6 38 -7 77 -14 88 -15 11 -1 31 -5 45 -8 41 -10 132 -19 179 -17 26 1 47 -4 52 -11 6 -10 13 -10 34 -1 35 16 62 15 69 -3 3 -10 -1 -15 -12 -15 -15 0 -15 -2 -2 -10 13 -8 10 -14 -16 -37 -17 -16 -29 -34 -27 -40 3 -7 0 -13 -6 -13 -6 0 -11 -11 -11 -25 0 -14 -5 -25 -11 -25 -7 0 -10 -12 -7 -30 3 -17 1 -30 -4 -30 -4 0 -8 -5 -8 -11 0 -5 3 -8 8 -6 4 3 8 -9 8 -26 l1 -30 -15 29 c-9 16 -16 50 -16 76 -1 27 -4 41 -9 35 -5 -7 -6 0 -2 16 3 17 2 26 -4 23 -5 -3 -12 6 -16 22 -9 37 -21 50 -56 57 -17 4 -26 11 -23 17 4 7 2 8 -4 4 -13 -8 -102 13 -102 24 0 10 -112 30 -164 30 -62 0 -104 -41 -112 -107 -3 -26 11 -31 20 -7 3 8 14 14 23 13 34 -3 36 1 9 22 l-27 21 21 20 c19 18 32 20 104 16 52 -3 92 -10 111 -21 17 -10 61 -25 99 -35 l69 -17 23 -60 c13 -33 23 -73 24 -90 0 -16 9 -48 20 -70 11 -22 20 -51 20 -65 0 -33 15 -54 30 -45 9 5 10 23 6 59 -19 145 -19 141 10 200 15 31 31 56 35 56 6 0 39 83 39 99 0 3 -37 4 -83 3 -100 -5 -334 27 -504 69 -67 16 -132 29 -145 29 -13 0 -88 22 -168 49 -80 26 -199 63 -265 80 -127 34 -210 59 -235 71 -8 3 -55 19 -105 35 -49 15 -94 31 -100 35 -5 4 -30 11 -55 15 -25 3 -66 13 -91 21 -50 16 -51 16 -154 39 -38 8 -89 20 -113 25 -54 13 -87 13 -57 0z m1466 -553 c-13 -13 -26 -3 -16 12 3 6 11 8 17 5 6 -4 6 -10 -1 -17z" class=""></path> <path d="M2650 2060 c-12 -8 -9 -10 12 -10 15 0 30 -4 33 -10 4 -6 -5 -10 -19 -10 -14 0 -26 -4 -26 -10 0 -14 32 -12 53 4 16 13 16 14 -7 30 -29 19 -27 18 -46 6z"></path> <path d="M2193 2034 c-46 -17 -103 -69 -103 -94 0 -9 -9 -25 -20 -35 -11 -10 -20 -24 -20 -31 0 -7 -7 -19 -15 -28 -22 -22 -39 -168 -25 -212 7 -19 10 -61 7 -94 -2 -33 -1 -60 4 -60 5 0 5 -7 2 -17 -5 -12 -3 -14 6 -8 10 6 12 -2 9 -34 -2 -22 -1 -41 2 -41 3 0 4 -15 2 -34 -2 -20 3 -49 12 -67 15 -31 15 -34 -1 -43 -10 -6 -22 -11 -28 -11 -5 0 -16 -4 -22 -8 -16 -10 -17 5 -1 21 9 9 8 24 -6 64 -11 29 -23 58 -27 64 -5 6 -6 14 -2 17 3 4 1 7 -6 7 -9 0 -12 10 -9 32 6 35 -24 118 -41 118 -6 0 -15 17 -21 39 -5 21 -21 47 -35 57 -14 10 -25 27 -25 37 0 19 -48 66 -84 81 -30 13 -56 14 -49 3 4 -6 0 -8 -10 -4 -10 3 -17 2 -17 -2 0 -5 15 -9 34 -8 37 1 106 -43 106 -68 0 -8 14 -30 30 -48 17 -19 30 -44 30 -55 0 -12 9 -27 20 -35 23 -16 35 -45 44 -109 4 -26 14 -61 22 -78 9 -16 14 -36 11 -43 -2 -7 -10 -1 -17 15 -7 16 -18 24 -26 21 -16 -6 -19 -23 -4 -23 17 0 80 -57 80 -72 0 -5 -11 -6 -25 -2 -15 4 -32 1 -40 -6 -22 -18 -18 -28 9 -23 16 3 28 -2 38 -15 13 -20 15 -19 90 17 194 95 491 171 664 171 76 0 84 -2 84 -19 0 -39 -254 -302 -330 -341 -60 -30 -210 -52 -210 -30 0 3 -21 5 -48 6 -51 1 -158 42 -207 79 l-31 23 -29 -24 -30 -24 28 0 c32 0 87 -26 87 -40 0 -6 7 -10 15 -10 8 0 15 5 15 11 0 5 -5 7 -12 3 -7 -4 -8 -3 -4 5 5 8 16 5 38 -10 112 -80 359 -75 443 10 17 16 36 26 44 23 9 -4 12 -1 7 7 -4 6 -2 18 4 26 16 19 31 19 24 1 -3 -8 -1 -17 4 -20 5 -3 8 6 6 20 -1 16 6 35 18 48 12 11 17 15 13 7 -6 -11 -4 -13 9 -8 14 6 16 3 9 -16 -4 -12 -8 -53 -8 -92 0 -38 -5 -75 -11 -82 -7 -7 -28 -14 -49 -16 -33 -4 -36 -2 -31 17 2 11 8 39 12 61 7 40 6 40 -13 20 -12 -12 -18 -29 -15 -44 3 -16 1 -22 -6 -17 -8 4 -10 2 -6 -7 3 -8 1 -18 -5 -22 -6 -3 -11 -15 -11 -26 0 -18 5 -19 53 -13 99 13 100 14 104 150 3 92 7 122 19 134 15 13 16 13 11 -5 -3 -11 -9 -38 -12 -60 -5 -35 -4 -37 6 -15 6 14 11 44 12 67 1 24 4 43 8 43 3 0 29 31 58 70 48 63 66 109 48 126 -11 12 -78 22 -121 18 l-44 -3 -7 47 c-3 27 -2 60 4 75 6 16 11 63 11 105 1 73 15 156 38 212 5 14 10 30 10 35 1 6 13 11 28 13 15 2 37 10 49 18 15 10 30 12 46 6 13 -4 42 -7 64 -6 77 3 160 -98 167 -206 4 -61 28 -66 26 -6 -1 25 -6 40 -10 33 -7 -11 -13 20 -9 51 1 6 -3 12 -10 12 -6 0 -8 7 -5 16 3 8 2 12 -4 9 -6 -3 -10 -1 -10 6 0 6 -20 31 -45 55 -39 39 -49 44 -89 44 -25 0 -56 4 -69 9 -17 7 -32 5 -51 -4 -14 -8 -26 -12 -26 -10 0 2 -13 -1 -29 -6 -22 -8 -34 -23 -50 -62 -12 -29 -22 -64 -23 -79 -1 -16 -6 -28 -9 -28 -4 0 -6 -22 -3 -50 2 -27 0 -50 -4 -50 -5 0 -7 -10 -5 -22 2 -13 -3 -60 -10 -105 -7 -45 -10 -80 -6 -78 4 3 9 -2 13 -10 4 -10 -1 -15 -15 -15 -11 0 -18 -4 -15 -9 7 -11 -18 -21 -55 -21 -23 0 -29 5 -29 21 0 11 -3 18 -7 16 -5 -3 -7 16 -7 41 1 26 -5 72 -12 104 -8 31 -11 63 -8 72 3 8 -1 23 -10 31 -15 15 -21 60 -18 130 1 22 -1 26 -8 15 -7 -12 -11 -10 -18 10 -5 14 -8 28 -5 33 2 4 -3 14 -11 23 -9 8 -16 22 -16 30 0 23 -60 92 -93 109 -37 19 -89 18 -144 -1z m185 -56 c26 -28 78 -149 87 -203 4 -22 12 -62 20 -90 14 -58 33 -169 39 -237 l3 -48 -36 -6 c-48 -8 -248 -69 -338 -104 -83 -32 -79 -35 -89 68 -3 37 -12 90 -20 117 -7 28 -13 68 -13 90 0 22 -2 78 -4 125 -3 83 -2 87 41 175 24 50 51 98 61 109 24 27 68 47 120 55 50 7 88 -8 129 -51z" class=""></path> <path d="M2158 1913 c-19 -5 -34 -45 -23 -62 10 -18 42 5 47 34 6 28 1 33 -24 28z" class=""></path> <path d="M2225 1870 c-16 -5 -11 -8 20 -14 22 -4 49 -10 60 -13 31 -8 5 13 -30 24 -16 6 -39 7 -50 3z" class=""></path> <path d="M2235 1829 c-4 -5 -12 -8 -18 -6 -17 6 -66 -24 -73 -45 -3 -10 -10 -18 -15 -18 -5 0 -4 -10 3 -21 11 -17 11 -23 0 -26 -6 -3 -10 -8 -7 -13 3 -5 -3 -16 -12 -26 -13 -12 -14 -19 -6 -21 10 -4 9 -12 -3 -34 -8 -16 -12 -34 -9 -39 3 -4 -1 -28 -9 -52 -8 -24 -14 -77 -14 -118 1 -60 2 -69 9 -45 5 17 7 47 3 68 -4 24 -1 43 7 53 13 16 20 48 20 102 0 17 5 32 10 32 5 0 9 12 9 26 0 14 6 35 12 47 7 12 13 35 13 51 0 45 36 64 113 58 52 -3 62 -7 62 -23 0 -10 11 -38 25 -63 14 -25 25 -51 25 -59 0 -8 7 -17 15 -21 8 -3 12 -11 10 -18 -3 -8 6 -29 20 -48 14 -19 25 -39 25 -46 0 -6 7 -18 17 -25 9 -8 22 -27 30 -44 l14 -30 -6 30 c-4 17 -13 37 -21 46 -8 8 -14 19 -14 22 0 4 -12 26 -26 48 -14 23 -23 43 -20 46 3 3 -6 21 -19 41 -13 19 -21 40 -18 45 3 6 2 7 -4 4 -9 -6 -39 60 -35 77 6 20 -23 36 -65 36 -27 0 -42 4 -38 10 3 6 4 10 1 10 -3 0 -8 -5 -11 -11z" class=""></path> <path d="M2260 1670 c-8 -4 -26 -13 -40 -18 -21 -9 -14 -11 43 -11 67 -1 78 4 55 27 -14 14 -36 15 -58 2z"></path> <path d="M2245 1452 c-47 -16 -87 -63 -99 -117 -5 -27 -4 -26 17 11 38 69 52 83 99 95 39 11 51 10 82 -5 20 -9 36 -21 36 -26 0 -6 10 -10 23 -9 12 0 16 3 9 6 -6 2 -10 9 -6 14 3 5 2 8 -3 7 -4 -1 -22 6 -40 15 -32 17 -81 21 -118 9z"></path> <path d="M1740 2022 c-6 -7 -19 -11 -27 -8 -9 4 -11 2 -7 -6 5 -7 2 -9 -7 -6 -8 3 -24 -1 -34 -9 -19 -15 -19 -15 5 -10 63 15 150 42 150 48 0 11 -68 4 -80 -9z"></path> <path d="M1755 1991 c-54 -19 -73 -29 -59 -33 11 -3 25 1 32 9 15 15 36 18 27 3 -4 -6 15 2 42 16 78 43 73 44 -42 5z"></path> <path d="M5679 2002 c-13 -10 -89 -58 -169 -107 -80 -48 -182 -115 -227 -147 -46 -32 -83 -54 -83 -50 0 10 147 120 303 226 70 47 124 86 120 86 -27 0 -312 -193 -440 -298 -12 -10 -37 -27 -56 -37 -51 -27 -64 -82 -72 -291 -8 -213 -5 -221 97 -296 40 -30 110 -86 155 -125 92 -77 285 -213 303 -213 7 0 -32 32 -86 71 -99 72 -294 228 -294 235 0 9 13 1 92 -59 112 -86 263 -187 279 -187 7 0 -20 22 -61 49 -41 27 -106 75 -145 106 -38 31 -83 66 -98 78 -16 12 -64 50 -108 85 -43 34 -79 59 -79 54 0 -5 7 -15 15 -22 8 -7 15 -19 15 -27 0 -8 5 -11 12 -7 7 4 8 3 4 -5 -6 -9 -11 -9 -22 0 -7 6 -12 14 -10 18 6 10 -21 31 -30 23 -4 -4 -4 1 -1 11 7 19 -1 49 -12 43 -3 -2 -4 29 -1 69 3 40 2 71 -2 69 -3 -2 -5 38 -3 89 2 50 4 106 4 122 1 24 3 27 12 15 8 -12 9 -9 5 11 -6 29 9 51 60 87 23 15 34 18 42 10 8 -8 41 9 124 64 223 148 346 228 372 239 14 7 26 16 26 21 0 13 -15 9 -41 -10z m-502 -889 c-4 -3 -1 -13 6 -22 11 -14 10 -14 -5 -2 -16 12 -16 31 -1 31 4 0 3 -3 0 -7z"></path> <path d="M1970 2000 c-33 -7 -33 -8 12 -7 26 0 45 4 42 9 -3 4 -8 7 -12 7 -4 -1 -23 -5 -42 -9z"></path> <path d="M1970 1976 c0 -10 28 -13 41 -5 10 6 7 9 -13 9 -16 0 -28 -2 -28 -4z"></path>  <path d="M3150 1946 c0 -3 14 -12 30 -21 17 -9 30 -13 30 -11 0 3 -13 12 -30 21 -16 9 -30 13 -30 11z"></path> <path d="M5625 1896 c-33 -18 -118 -65 -190 -104 -166 -91 -238 -138 -241 -157 -1 -9 2 -12 9 -8 14 7 98 60 174 109 29 19 55 34 57 34 2 0 53 29 112 65 60 36 119 68 132 71 12 4 22 10 22 15 0 14 -11 11 -75 -25z"></path> <path d="M1343 1885 c0 -8 4 -12 9 -9 5 3 6 10 3 15 -9 13 -12 11 -12 -6z"></path> <path d="M1407 1872 c-27 -30 -21 -59 13 -71 18 -6 28 -6 25 -1 -4 6 7 10 22 10 62 0 74 53 16 69 -51 15 -57 14 -76 -7z m97 -22 c15 -15 1 -22 -54 -28 -41 -4 -50 -2 -50 11 0 34 75 46 104 17z"></path> <path d="M2870 1860 c0 -5 -13 -10 -30 -10 -16 0 -30 -5 -30 -11 0 -6 12 -8 29 -6 15 3 48 1 72 -3 45 -9 70 -4 32 6 -13 4 -20 11 -16 20 4 10 -3 14 -26 14 -17 0 -31 -4 -31 -10z" class=""></path> <path d="M3398 1862 c-40 -3 -51 -8 -70 -35 -12 -18 -27 -35 -34 -39 -6 -4 -15 -28 -18 -53 -5 -29 -11 -43 -18 -39 -7 4 -8 2 -4 -5 8 -13 -13 -79 -31 -99 -7 -7 -13 -19 -13 -25 0 -7 4 -6 10 3 7 11 10 8 10 -16 0 -42 -11 -95 -19 -90 -10 6 -12 -126 -2 -159 6 -24 2 -41 -19 -85 -24 -48 -26 -62 -20 -113 5 -48 4 -57 -8 -52 -12 5 -13 3 -2 -10 11 -13 10 -14 -5 -8 -15 5 -17 3 -12 -13 7 -18 6 -18 -6 -2 -8 10 -16 15 -19 12 -3 -2 -4 55 -2 128 3 73 4 153 4 176 -1 24 4 50 11 58 9 11 9 25 -1 59 -7 25 -17 48 -21 51 -14 8 -10 26 4 18 9 -5 9 -4 0 6 -8 8 -9 20 -2 37 5 13 5 22 0 19 -5 -3 -11 3 -14 14 -3 12 1 24 11 29 14 8 15 12 5 22 -10 10 -13 10 -13 1 0 -7 -9 -12 -20 -12 -25 0 -26 -22 -1 -44 22 -20 17 -66 -8 -66 -12 0 -9 -6 10 -23 29 -24 48 -100 28 -112 -6 -4 -8 -13 -6 -19 3 -7 1 -45 -3 -85 -4 -41 -4 -87 1 -104 5 -17 5 -33 1 -36 -16 -12 -12 -112 5 -142 21 -35 33 -36 60 -6 27 29 32 56 22 110 -7 38 -4 53 17 98 23 46 25 60 19 123 -5 53 -3 86 9 128 9 31 14 67 11 80 -8 30 46 192 83 252 33 53 69 63 152 41 30 -8 65 -15 78 -15 14 0 45 -23 86 -66 52 -54 69 -80 91 -140 15 -41 31 -76 35 -79 5 -3 6 -49 3 -103 -4 -84 -2 -104 16 -151 27 -67 20 -80 -8 -16 -13 30 -22 76 -25 130 -7 109 -45 235 -81 265 -17 15 -21 35 -3 24 7 -4 8 -3 4 5 -4 6 -11 9 -15 6 -5 -2 -21 7 -37 20 -16 14 -40 28 -54 31 -14 3 -33 10 -44 15 -10 6 -16 6 -12 1 3 -5 -17 -12 -45 -14 -54 -6 -102 -41 -130 -96 -8 -15 -21 -33 -31 -39 -10 -8 -14 -21 -11 -33 4 -13 -1 -27 -13 -36 -11 -9 -14 -13 -8 -10 18 9 12 -133 -6 -144 -10 -6 -13 -28 -12 -82 2 -63 0 -77 -17 -92 -18 -16 -49 -112 -39 -121 2 -3 12 22 22 55 15 48 23 61 43 66 18 5 22 11 17 23 -4 9 -9 42 -10 74 -3 58 -3 59 31 73 38 16 46 34 15 34 -18 0 -19 5 -15 72 6 85 11 104 36 129 10 10 21 29 24 41 7 28 69 65 123 74 49 8 129 -29 170 -78 28 -33 64 -113 54 -122 -2 -3 0 -11 5 -18 15 -19 25 -74 28 -144 3 -68 34 -151 60 -160 9 -4 14 -13 11 -21 -4 -8 -1 -11 5 -8 6 4 9 1 8 -6 -4 -17 22 -89 32 -89 8 0 19 26 19 47 0 13 -2 13 -16 2 -12 -10 -10 -1 7 31 22 41 24 57 24 170 0 103 -3 131 -17 153 -22 33 -23 47 -2 47 14 0 14 3 4 15 -31 37 -34 -4 -10 -110 12 -52 5 -210 -10 -249 -7 -16 -9 -17 -9 -4 -1 9 -6 18 -12 20 -6 2 -12 15 -12 30 -1 14 -5 24 -9 22 -13 -8 -28 94 -24 171 3 70 0 87 -22 135 -14 30 -25 63 -23 74 1 10 -2 15 -8 12 -6 -4 -13 8 -16 28 -5 23 -15 37 -32 45 -16 7 -23 17 -19 26 3 8 2 14 -3 12 -5 -1 -24 12 -42 28 -39 35 -58 44 -114 52 -22 3 -47 8 -55 12 -8 3 -36 5 -62 3z" class=""></path> <path d="M2541 1845 c-23 -12 -23 -12 17 -11 22 0 40 1 39 1 -1 0 -9 6 -17 12 -11 9 -21 8 -39 -2z"></path> <path d="M2550 1810 c0 -12 8 -12 35 0 18 8 17 9 -7 9 -16 1 -28 -3 -28 -9z"></path> <path d="M2830 1813 c-8 -4 -19 -11 -25 -17 -18 -18 -46 -96 -39 -108 4 -6 -3 -6 -17 2 -21 9 -22 9 -7 -2 11 -10 14 -23 11 -42 -4 -20 -2 -27 6 -22 6 4 11 16 11 27 0 10 5 19 11 19 6 0 8 8 4 19 -8 27 19 86 48 106 23 15 28 15 54 1 65 -36 78 -57 108 -180 11 -44 15 -87 12 -117 -5 -42 -3 -50 13 -59 18 -10 20 -21 18 -98 -2 -100 16 -263 32 -289 11 -19 10 -12 -5 61 -3 14 -1 28 5 31 5 3 10 11 10 16 0 6 -4 8 -9 5 -13 -8 -23 167 -12 198 7 18 7 26 0 26 -6 0 -8 7 -5 16 4 10 -1 25 -10 35 -10 12 -17 40 -19 81 -2 35 -5 74 -8 88 -3 14 -6 35 -6 48 -1 13 -5 20 -11 17 -5 -3 -10 -3 -11 2 -4 41 -12 68 -25 80 -7 8 -14 19 -14 24 0 5 -3 8 -7 7 -5 -1 -22 6 -40 15 -33 18 -48 20 -73 10z" class=""></path> <path d="M3415 1810 c17 -4 44 -8 60 -8 29 0 29 0 5 8 -14 4 -41 8 -60 8 l-35 0 30 -8z"></path> <path d="M5595 1800 c-22 -11 -113 -53 -202 -93 -146 -67 -221 -110 -222 -129 -1 -4 74 31 167 78 92 46 205 102 252 124 47 22 76 40 65 39 -11 0 -38 -9 -60 -19z"></path> <path d="M1076 1775 c-8 -8 -20 -15 -26 -15 -7 0 -49 -22 -94 -49 -44 -26 -118 -67 -163 -90 -60 -31 -81 -47 -80 -61 1 -10 4 -17 8 -14 4 2 9 -2 12 -8 3 -10 8 -8 18 4 18 22 62 38 105 38 27 0 44 -9 74 -39 26 -26 38 -45 34 -55 -3 -9 -10 -14 -14 -11 -5 3 -11 1 -15 -5 -12 -19 -26 0 -15 20 15 27 12 34 -7 19 -15 -13 -15 -12 -5 7 10 19 8 23 -18 34 -45 19 -100 6 -132 -30 -16 -17 -28 -36 -27 -43 0 -6 5 -2 11 11 6 12 15 22 19 22 4 0 2 -12 -6 -27 -10 -20 -11 -32 -3 -47 9 -18 7 -18 -17 4 -19 17 -29 21 -32 13 -5 -14 -39 -18 -46 -5 -2 4 -2 1 -1 -5 5 -18 -13 -16 -20 2 -3 8 -10 15 -16 15 -6 0 -4 -7 4 -16 16 -16 13 -34 -5 -34 -6 0 -7 4 -4 10 11 18 -56 3 -71 -16 -14 -18 -14 -18 -7 1 6 17 5 18 -9 7 -14 -11 -17 -10 -21 5 -4 16 -5 16 -6 1 -1 -12 -8 -15 -25 -12 -50 9 -34 -14 17 -24 48 -10 53 -9 69 11 14 19 19 20 44 8 21 -9 29 -10 32 -1 7 20 53 32 70 18 13 -11 14 -10 8 10 -10 30 2 28 14 -2 18 -48 125 -91 158 -64 13 11 15 10 9 -12 -13 -53 42 33 69 108 15 40 30 75 35 77 4 3 36 7 71 9 35 2 76 7 91 11 27 7 28 6 25 -27 -1 -28 -5 -34 -20 -30 -26 6 -23 -1 20 -45 20 -22 50 -58 65 -80 20 -28 41 -44 68 -52 44 -13 43 -12 59 -93 6 -32 14 -58 18 -58 4 0 18 17 32 38 32 47 38 52 76 52 44 0 58 34 35 86 -10 21 -16 44 -14 49 2 6 -9 44 -23 85 -36 103 -39 133 -19 153 26 27 75 20 139 -18 32 -19 60 -35 63 -35 10 0 -11 126 -23 139 -11 12 -13 10 -10 -15 2 -16 5 -29 6 -29 1 0 3 -15 5 -33 2 -30 1 -32 -14 -18 -21 19 -95 46 -126 46 -29 0 -78 -38 -71 -56 3 -8 -3 -18 -13 -23 -25 -14 -35 -1 -13 16 16 13 16 14 -2 5 -15 -7 -27 -5 -45 8 -34 24 -71 35 -71 21 0 -6 7 -11 16 -11 23 0 100 -56 128 -93 26 -33 66 -120 66 -140 0 -7 -14 16 -31 50 -49 101 -119 158 -238 194 -41 12 -43 14 -20 21 l24 7 -25 -2 c-38 -3 -27 -20 23 -37 25 -9 51 -21 58 -27 8 -6 33 -20 57 -32 23 -12 42 -26 42 -32 0 -6 9 -18 19 -27 28 -24 73 -110 65 -124 -4 -6 -3 -8 3 -5 12 8 23 -24 23 -68 0 -24 2 -27 11 -15 8 12 10 12 7 1 -2 -8 -17 -16 -34 -18 -19 -2 -41 -17 -65 -44 l-36 -40 -12 54 c-13 61 -31 82 -78 92 -24 5 -36 16 -52 48 -12 23 -21 38 -21 33 0 -5 -10 4 -22 20 -16 20 -23 42 -23 78 0 45 -2 50 -28 57 -15 4 -25 4 -22 -1 6 -10 -80 -23 -105 -15 -14 4 -28 -2 -46 -21 l-27 -26 -16 21 c-24 31 -72 61 -100 61 -12 0 -45 -11 -72 -24 -27 -14 -51 -21 -53 -17 -3 4 18 18 47 31 29 13 61 32 72 42 10 10 25 16 33 13 7 -2 10 0 7 5 -3 6 2 10 12 10 10 0 30 10 43 23 14 12 32 23 39 25 7 1 19 9 27 17 8 7 29 18 48 25 19 6 37 17 40 25 7 19 1 19 -18 0z m-202 -261 c35 -34 6 -104 -43 -104 -63 0 -79 74 -23 104 35 20 47 20 66 0z m55 -71 c1 9 6 17 11 17 9 0 -12 -66 -25 -79 -12 -11 -75 -11 -75 0 0 7 3 9 7 6 3 -4 12 1 20 11 8 9 12 11 8 5 -3 -7 -4 -13 -1 -13 3 0 13 17 22 38 14 33 17 35 24 17 7 -17 9 -17 9 -2z m-124 -53 c3 -6 -1 -7 -9 -4 -18 7 -21 14 -7 14 6 0 13 -4 16 -10z" class=""></path> <path d="M800 1485 c-25 -30 15 -70 45 -45 20 16 19 40 -1 40 -8 0 -12 5 -9 10 10 16 -21 12 -35 -5z"></path>  <path d="M1473 1758 c16 -11 157 -10 157 0 0 5 -38 8 -84 8 -46 -1 -79 -4 -73 -8z"></path> <path d="M1442 1735 c10 -10 188 -22 188 -13 0 5 -26 8 -57 8 -32 0 -76 3 -98 7 -22 3 -37 2 -33 -2z"></path> <path d="M5587 1714 c-3 -3 -50 -21 -104 -39 -146 -50 -210 -74 -260 -97 -25 -12 -51 -21 -59 -21 -7 0 -11 -4 -8 -8 2 -4 1 -9 -3 -12 -29 -15 249 85 354 129 70 29 91 34 106 25 16 -10 16 -9 5 9 -13 21 -21 24 -31 14z"></path> <path d="M1008 1673 c8 -3 5 -11 -10 -24 l-23 -20 32 16 c18 8 40 15 49 15 26 0 13 6 -26 13 -19 3 -29 3 -22 0z"></path> <path d="M3853 1663 c10 -3 14 -9 10 -16 -14 -23 -13 -54 2 -67 21 -18 31 -5 12 15 -18 17 -12 45 9 45 8 0 14 4 14 9 0 11 -26 21 -48 20 -15 -1 -15 -2 1 -6z"></path> <path d="M1268 1653 c6 -2 18 -2 25 0 6 3 1 5 -13 5 -14 0 -19 -2 -12 -5z"></path> <path d="M3939 1643 l-29 -12 2 -176 c1 -97 6 -167 10 -155 4 11 7 35 7 53 -1 82 -1 110 0 155 1 26 1 62 1 81 0 19 1 36 3 38 3 2 29 8 58 12 47 8 57 7 75 -10 11 -10 27 -19 36 -19 8 0 38 -25 67 -56 28 -31 51 -52 51 -46 0 17 -102 123 -129 134 -37 15 -118 15 -152 1z" class=""></path> <path d="M1026 1629 c-22 -5 -42 -12 -45 -16 -9 -9 73 8 84 18 5 5 7 9 5 8 -3 -1 -23 -5 -44 -10z"></path> <path d="M2735 1549 c4 -116 3 -109 15 -109 12 0 4 164 -9 187 -5 10 -7 -20 -6 -78z"></path> <path d="M2780 1618 c-39 -16 -8 -20 36 -4 31 12 34 15 14 15 -14 0 -36 -5 -50 -11z"></path>   <path d="M4008 1593 c7 -3 16 -2 19 1 4 3 -2 6 -13 5 -11 0 -14 -3 -6 -6z" class=""></path> <path d="M5021 1584 c0 -11 3 -14 6 -6 3 7 2 16 -1 19 -3 4 -6 -2 -5 -13z"></path> <path d="M5445 1593 c-59 -5 -219 -45 -285 -70 -8 -4 -19 -5 -25 -4 -7 2 -7 -1 0 -7 7 -7 65 3 170 29 237 58 246 62 140 52z"></path> <path d="M585 1510 c-60 -32 -111 -63 -113 -69 -2 -6 -8 -9 -13 -5 -5 3 -9 1 -9 -4 0 -6 7 -13 16 -16 8 -3 13 -2 10 3 -9 14 20 32 40 25 14 -4 16 -3 5 4 -10 7 1 16 44 36 32 14 61 26 65 26 4 0 13 6 20 14 6 8 19 12 28 9 15 -4 15 -3 2 6 -13 9 -13 11 3 11 9 0 17 5 17 10 0 12 13 18 -115 -50z"></path> <path d="M1590 1564 c0 -3 14 -19 30 -36 29 -29 43 -18 18 14 -13 16 -48 32 -48 22z"></path> <path d="M3409 1551 l-24 -20 80 0 c73 0 78 1 55 13 -49 26 -85 28 -111 7z"></path> <path d="M4013 1538 c0 -8 15 -14 36 -15 36 -2 36 -2 11 12 -31 18 -47 19 -47 3z" class=""></path> <path d="M4480 1536 c-38 -10 -41 -13 -22 -18 12 -4 22 -2 22 4 0 7 30 9 85 6 67 -3 91 -9 115 -26 16 -12 36 -22 44 -22 15 0 26 -21 26 -52 0 -11 6 -32 14 -46 8 -15 27 -53 42 -84 15 -32 31 -58 36 -58 5 0 -4 26 -20 58 -32 62 -52 119 -52 145 0 9 -5 17 -11 17 -5 0 -8 3 -6 8 3 4 -1 13 -9 20 -8 7 -14 10 -14 6 0 -3 -6 -1 -14 6 -20 16 -135 50 -166 49 -14 -1 -45 -6 -70 -13z"></path> <path d="M5013 1532 c-1 -9 -6 -46 -12 -82 -13 -80 -14 -227 -2 -235 5 -3 15 21 21 52 6 32 14 67 16 78 4 16 3 17 -5 5 -16 -24 -18 -10 -11 90 3 52 4 98 0 102 -3 4 -6 0 -7 -10z"></path> <path d="M5101 1534 c0 -11 3 -14 6 -6 3 7 2 16 -1 19 -3 4 -6 -2 -5 -13z"></path> <path d="M5340 1503 c-63 -7 -138 -12 -166 -10 -38 3 -51 0 -50 -9 4 -23 10 -24 127 -9 63 8 142 18 177 21 34 4 65 11 68 15 6 11 -11 10 -156 -8z"></path> <path d="M1310 1499 c0 -5 4 -8 9 -4 5 3 12 -3 16 -14 7 -24 38 -52 33 -31 -4 18 -39 60 -50 60 -4 0 -8 -5 -8 -11z"></path> <path d="M1606 1497 c3 -10 9 -15 12 -12 3 3 0 11 -7 18 -10 9 -11 8 -5 -6z"></path> <path d="M4430 1502 c0 -12 19 -27 44 -36 16 -6 17 -4 6 9 -18 21 -50 38 -50 27z"></path> <path d="M3456 1491 c5 -5 27 -12 49 -15 l40 -6 -30 15 c-34 16 -74 20 -59 6z"></path> <path d="M1298 1479 c6 -7 12 -21 12 -30 0 -9 7 -20 16 -23 23 -9 28 -1 9 14 -8 7 -15 18 -15 25 0 7 -8 16 -17 20 -15 5 -16 4 -5 -6z"></path> <path d="M4203 1472 c9 -10 28 -44 43 -76 24 -53 26 -66 20 -132 -3 -41 -3 -74 1 -74 10 0 32 34 33 51 0 8 11 26 25 39 14 13 25 30 25 38 0 9 8 39 17 69 12 37 22 53 34 53 20 0 30 21 19 39 -5 10 -9 9 -14 -4 -3 -9 -11 -13 -17 -9 -7 4 -10 3 -6 -2 3 -5 -1 -18 -9 -29 -11 -15 -14 -15 -14 -3 0 8 -9 25 -20 38 -20 23 -20 23 -17 2 2 -12 6 -25 10 -28 10 -10 9 -26 -2 -20 -5 3 -14 -24 -21 -60 -7 -35 -14 -63 -16 -61 -2 2 -6 34 -8 71 -4 63 -16 106 -16 58 0 -36 -18 -25 -31 18 -9 29 -18 40 -32 40 -19 0 -19 -1 -4 -18z m154 -76 c-3 -8 -11 -33 -17 -55 -15 -57 -29 -60 -18 -3 13 65 16 72 29 72 6 0 9 -6 6 -14z"></path> <path d="M1015 1461 c6 -5 28 -12 50 -15 27 -4 33 -3 20 2 -35 16 -81 24 -70 13z"></path>   <path d="M5225 1451 c-87 -6 -95 -9 -85 -38 1 -5 2 -10 2 -13 0 -3 80 -5 178 -5 99 0 170 3 158 8 -11 4 -69 8 -129 8 -59 1 -132 4 -161 8 -49 7 -46 8 57 15 61 4 139 11 175 16 l65 7 -85 0 c-47 -1 -126 -3 -175 -6z"></path> <path d="M4527 1430 c4 -4 31 -13 58 -20 70 -18 122 -46 136 -72 14 -26 50 -58 64 -57 6 0 4 3 -3 6 -6 2 -9 10 -5 16 3 7 3 9 -2 5 -4 -4 -20 10 -35 30 -33 46 -61 65 -120 81 -55 15 -104 21 -93 11z"></path> <path d="M4486 1406 c-12 -19 -23 -26 -34 -21 -9 3 -14 3 -10 0 3 -3 -5 -17 -18 -30 -13 -13 -24 -31 -24 -40 0 -10 -5 -13 -12 -9 -6 4 -8 3 -5 -4 11 -16 -4 -44 -19 -38 -8 3 -13 2 -11 -2 3 -11 -74 -92 -89 -92 -22 0 -44 30 -44 59 0 33 -20 54 -44 45 -25 -10 -19 -27 8 -20 22 5 24 2 30 -45 8 -56 22 -67 59 -47 47 25 129 111 138 144 5 17 22 40 37 49 38 25 64 54 60 67 -2 6 -12 -1 -22 -16z"></path> <path d="M4914 1385 c-9 -14 -14 -28 -11 -32 4 -3 12 6 18 21 l12 26 24 -22 c25 -24 32 -9 7 16 -21 22 -31 20 -50 -9z"></path> <path d="M1016 1383 c-6 -14 -5 -15 5 -6 7 7 10 15 7 18 -3 3 -9 -2 -12 -12z"></path> <path d="M1150 1382 c0 -10 18 -38 39 -62 22 -25 47 -67 55 -93 14 -44 14 -51 -1 -80 -8 -17 -41 -57 -72 -88 -71 -71 -117 -84 -264 -76 -99 5 -100 5 -52 -8 78 -20 212 -18 262 4 46 21 130 119 139 162 l6 27 52 -14 c117 -32 250 22 274 111 6 22 21 56 34 75 19 28 31 36 60 38 76 6 118 -46 118 -145 0 -41 4 -63 11 -63 18 0 3 135 -18 168 -30 46 -43 54 -89 60 -34 3 -49 0 -65 -14 -17 -16 -22 -16 -30 -4 -8 12 -9 10 -4 -6 6 -24 -3 -56 -15 -49 -4 2 -10 -12 -14 -33 -6 -38 -53 -102 -74 -102 -7 0 -12 -5 -12 -11 0 -7 -10 -9 -25 -7 -13 3 -22 1 -19 -3 8 -13 -94 -9 -140 4 -22 7 -41 18 -44 26 -3 8 0 11 5 8 5 -3 10 0 10 8 0 8 -5 13 -10 12 -5 -1 -16 17 -24 41 -8 23 -19 42 -24 42 -6 0 -15 14 -20 30 -6 17 -15 30 -20 30 -5 0 -9 7 -9 15 0 8 -4 15 -10 15 -5 0 -10 -8 -10 -18z"></path> <path d="M5155 1381 c-17 -28 10 -38 138 -55 179 -23 189 -24 180 -15 -4 3 -60 14 -123 24 -223 33 -198 42 50 19 36 -4 62 -3 58 1 -4 4 -19 8 -35 10 -15 1 -55 5 -88 8 -137 15 -174 16 -180 8z"></path> <path d="M2655 1373 c-47 -6 -176 -33 -220 -45 -22 -6 -44 -13 -50 -14 -82 -21 -306 -105 -337 -126 -20 -14 -28 -28 -28 -49 0 -35 42 -66 143 -104 94 -35 107 -31 19 6 -40 17 -72 33 -70 35 2 1 40 -10 84 -26 44 -15 103 -31 130 -34 49 -5 49 -5 9 4 -22 6 -82 24 -132 41 -51 17 -98 27 -104 23 -8 -4 -9 -3 -5 4 4 7 -3 14 -19 18 -14 3 -24 8 -22 11 2 2 67 -14 143 -35 77 -22 168 -42 204 -45 76 -7 69 -5 -150 45 -74 17 -142 35 -150 39 -22 12 -3 11 75 -6 39 -9 135 -17 215 -20 101 -3 131 -2 100 5 -58 11 -320 34 -386 33 -40 -1 -51 3 -50 14 1 8 9 19 17 24 8 5 10 9 4 10 -5 0 7 7 28 14 21 8 45 12 55 9 14 -5 15 -4 2 5 -13 9 -13 11 3 11 9 0 17 -4 17 -9 0 -5 16 -5 38 0 20 5 150 35 289 67 139 32 256 61 260 66 9 9 -16 5 -242 -40 -93 -19 -198 -44 -233 -55 -35 -12 -65 -19 -68 -16 -5 4 101 43 191 70 49 15 134 34 265 62 60 12 44 17 -25 8z" class=""></path> <path d="M1080 1360 c0 -4 -15 -12 -32 -15 -18 -4 -44 -12 -58 -18 -14 -6 -32 -12 -40 -13 -33 -6 -46 -10 -57 -17 -7 -5 -17 -6 -22 -2 -6 3 -15 -4 -21 -15 -11 -20 3 -30 15 -10 3 6 20 10 36 10 17 0 44 8 62 17 33 17 77 29 157 42 44 7 44 8 15 15 -16 4 -36 9 -42 12 -7 2 -13 -1 -13 -6z"></path> <path d="M396 1349 c4 -8 30 -14 94 -24 19 -3 54 -13 77 -21 25 -10 63 -15 97 -12 31 1 56 0 56 -4 0 -5 3 -7 8 -6 29 6 122 -62 122 -89 0 -19 -42 -33 -87 -28 l-38 5 45 -15 c56 -19 88 -12 101 22 13 35 -6 61 -71 97 -46 25 -110 39 -170 37 -8 0 -32 5 -53 11 -25 8 -34 14 -25 20 9 5 10 8 1 8 -6 0 -14 -4 -18 -10 -6 -9 -13 -8 -50 6 -26 10 -95 12 -89 3z m71 -5 c-3 -3 -12 -4 -19 -1 -8 3 -5 6 6 6 11 1 17 -2 13 -5z"></path> <path d="M2011 1334 c0 -11 3 -14 6 -6 3 7 2 16 -1 19 -3 4 -6 -2 -5 -13z"></path> <path d="M4900 1325 c0 -8 3 -15 6 -15 3 0 12 7 20 15 14 13 13 15 -5 15 -12 0 -21 -6 -21 -15z"></path> <path d="M5139 1326 c6 -7 8 -16 4 -19 -3 -4 7 -7 23 -7 30 0 237 -33 287 -45 15 -4 27 -3 27 2 0 5 -8 9 -17 10 -16 1 -187 37 -296 62 -30 7 -36 6 -28 -3z"></path> <path d="M4118 1299 c-10 -5 -30 -12 -45 -14 -43 -5 -62 -15 -68 -35 -3 -10 -16 -21 -29 -24 -15 -4 -29 -20 -41 -50 -10 -25 -23 -42 -28 -39 -6 3 -7 2 -4 -4 4 -6 0 -19 -8 -29 -21 -27 -18 -38 4 -17 22 22 51 76 51 97 0 9 15 22 34 30 19 8 37 23 40 34 5 14 18 21 49 24 23 3 58 12 77 21 32 14 33 15 10 16 -14 0 -33 -4 -42 -10z"></path> <path d="M5119 1297 c5 -5 7 -16 4 -25 -4 -10 -2 -13 5 -8 6 4 42 -3 79 -14 134 -42 276 -81 286 -77 6 2 -78 32 -187 68 -108 36 -192 61 -187 56z"></path> <path d="M511 1297 c2 -2 56 -27 119 -55 123 -55 174 -70 184 -54 3 6 -8 13 -26 17 -18 4 -86 27 -151 51 -110 41 -137 49 -126 41z"></path> <path d="M2022 1275 c0 -16 2 -22 5 -12 2 9 2 23 0 30 -3 6 -5 -1 -5 -18z"></path>  <path d="M3460 1275 c-92 -25 -122 -50 -165 -132 -21 -40 -30 -53 -55 -82 -9 -9 -22 -30 -28 -46 -16 -38 -47 -60 -95 -69 -34 -6 -38 -5 -48 21 -7 15 -11 37 -11 48 1 15 -1 16 -7 6 -7 -11 -10 -9 -15 7 -6 19 -118 194 -151 237 -8 10 -15 14 -15 7 0 -6 38 -69 83 -139 46 -70 87 -139 90 -153 3 -14 13 -34 21 -45 l14 -20 58 20 c50 17 61 26 81 65 13 24 28 47 33 50 13 8 60 79 60 91 0 5 20 32 45 58 37 39 53 49 89 54 24 4 59 14 78 23 32 15 37 15 66 0 17 -9 41 -16 54 -15 15 0 6 7 -27 19 -61 23 -53 23 -155 -5z" class=""></path> <path d="M1305 1273 c4 -10 10 -26 12 -35 9 -31 23 -20 23 17 0 29 -4 35 -21 35 -16 0 -19 -4 -14 -17z"></path> <path d="M4648 1282 c10 -7 5 -11 -18 -16 -18 -3 -42 -6 -54 -6 -18 0 -19 2 -6 11 23 16 1 7 -56 -23 -28 -15 -62 -28 -75 -30 -14 -2 -39 -13 -56 -26 -17 -12 -37 -22 -44 -22 -21 0 -79 -23 -79 -32 0 -4 -16 -8 -35 -8 -19 0 -35 5 -35 11 0 8 -4 8 -12 1 -7 -5 -39 -9 -72 -7 -45 1 -69 -3 -105 -21 -25 -13 -52 -24 -58 -24 -7 0 -13 -4 -13 -8 0 -14 -64 -34 -100 -32 -19 1 -56 10 -82 20 -26 10 -48 14 -50 9 -2 -6 -17 -5 -36 2 -44 15 -112 6 -203 -26 -41 -14 -79 -26 -86 -27 -7 -1 -10 -5 -7 -10 3 -4 -3 -8 -12 -8 -10 0 -25 -7 -34 -15 -9 -8 -25 -16 -36 -18 -10 -1 -25 -6 -31 -10 -7 -5 -13 -4 -13 2 0 5 -11 0 -24 -12 -14 -12 -49 -29 -78 -39 -34 -10 -44 -16 -28 -17 14 0 41 6 60 14 19 7 64 24 100 38 36 14 81 34 100 45 62 36 181 72 238 72 30 0 80 -7 111 -15 111 -28 201 -16 285 40 24 16 50 20 139 22 89 2 115 7 142 23 18 11 40 17 49 14 10 -4 32 4 54 19 20 14 53 28 72 32 19 4 44 13 55 19 30 20 172 38 195 26 10 -5 27 -10 37 -10 11 0 5 7 -17 18 -37 20 -105 39 -82 24z" class=""></path> <path d="M4933 1263 c-3 -30 -11 -72 -18 -85 -4 -7 1 -4 9 6 9 11 16 27 16 35 0 9 3 26 6 39 4 12 2 22 -3 22 -5 0 -9 -8 -10 -17z"></path> <path d="M2425 1234 c-104 -19 -207 -36 -227 -38 -21 -3 -45 -9 -55 -15 -17 -10 -16 -10 3 -11 11 0 69 9 130 21 60 11 154 27 209 35 55 9 125 22 155 29 111 27 -17 15 -215 -21z"></path> <path d="M2801 1246 c-23 -25 -61 -114 -61 -144 0 -9 11 15 25 53 16 45 35 78 52 92 16 13 23 23 17 23 -6 0 -20 -11 -33 -24z" class=""></path> <path d="M4790 1265 c0 -5 5 -17 10 -25 5 -8 10 -10 10 -5 0 6 -5 17 -10 25 -5 8 -10 11 -10 5z"></path> <path d="M5127 1254 c-11 -11 16 -29 128 -87 148 -76 270 -130 256 -114 -6 8 -7 18 -3 22 4 5 1 5 -6 1 -11 -7 -230 101 -324 161 -42 25 -42 26 -51 17z"></path> <path d="M3646 1241 c-5 -8 51 -41 69 -41 14 0 85 -64 91 -82 3 -11 8 -17 11 -14 3 2 -3 18 -13 35 -19 32 -72 73 -112 85 -12 4 -22 12 -22 17 0 12 -17 12 -24 0z" class=""></path> <path d="M953 1233 c4 -7 0 -14 -12 -18 -10 -3 -27 -15 -37 -26 -18 -20 -18 -20 12 -4 16 8 37 15 47 15 22 0 22 14 0 31 -9 8 -14 9 -10 2z"></path> <path d="M990 1213 c0 -12 3 -14 8 -7 4 7 16 14 27 17 15 4 14 5 -7 6 -21 1 -28 -4 -28 -16z"></path> <path d="M4575 1215 c-49 -13 -49 -13 -15 -16 19 -1 42 -1 50 0 112 16 167 17 190 3 24 -14 24 -14 8 4 -22 23 -160 28 -233 9z"></path> <path d="M5123 1199 c6 -10 13 -16 16 -14 2 3 9 -2 15 -10 9 -12 93 -65 328 -206 32 -19 35 -25 25 -38 -10 -14 -10 -14 5 -3 13 10 22 11 39 2 53 -29 1 12 -83 65 -51 32 -147 95 -212 139 -126 84 -154 98 -133 65z"></path> <path d="M4966 1201 c-3 -5 1 -11 9 -15 8 -3 15 -1 15 4 0 13 -18 22 -24 11z"></path> <path d="M996 1168 c-14 -35 -12 -48 5 -31 10 10 21 63 13 63 -2 0 -10 -15 -18 -32z"></path> <path d="M1968 1171 c8 -4 13 -11 13 -15 -3 -23 0 -30 9 -16 10 16 -4 40 -24 40 -7 0 -6 -4 2 -9z"></path> <path d="M1731 1158 c-1 -10 -8 -18 -16 -18 -8 0 -15 -7 -15 -15 0 -8 -9 -19 -20 -25 -19 -10 -20 -9 -15 17 5 21 4 25 -4 13 -6 -8 -11 -22 -11 -31 0 -9 -19 -44 -41 -78 -40 -59 -46 -88 -14 -61 31 26 147 190 142 202 -3 8 -6 6 -6 -4z"></path> <path d="M1914 1129 c-12 -24 -43 -68 -69 -97 -47 -52 -133 -119 -147 -114 -5 1 -8 -5 -8 -13 0 -8 3 -15 8 -15 21 0 113 63 149 103 46 50 96 140 91 164 -2 9 -12 -3 -24 -28z"></path> <path d="M2245 1160 c-139 -5 -140 -5 -66 -13 78 -9 359 0 414 13 36 9 -128 9 -348 0z"></path> <path d="M1742 1107 c-29 -66 -20 -74 12 -8 13 28 21 53 18 55 -4 2 -17 -19 -30 -47z"></path> <path d="M2070 1149 c0 -5 5 -7 10 -4 6 3 10 8 10 11 0 2 -4 4 -10 4 -5 0 -10 -5 -10 -11z"></path> <path d="M1032 1130 c-18 -11 -32 -28 -32 -39 0 -16 6 -13 35 16 42 42 41 50 -3 23z"></path> <path d="M1588 1138 c-2 -4 -18 -11 -37 -14 -27 -6 -32 -4 -26 6 5 9 4 11 -4 6 -6 -4 -9 -11 -7 -15 8 -13 -66 -36 -124 -38 -30 -1 -71 -4 -90 -6 -38 -4 -85 -25 -77 -34 3 -3 11 -1 18 3 15 9 31 11 129 18 75 6 169 31 245 66 l40 19 -32 -2 c-18 -1 -34 -5 -35 -9z"></path> <path d="M1880 1130 c-6 -11 -8 -20 -6 -20 3 0 10 9 16 20 6 11 8 20 6 20 -3 0 -10 -9 -16 -20z"></path> <path d="M565 1130 c-33 -4 -52 -7 -41 -8 58 -6 196 -36 196 -44 0 -4 -11 -13 -25 -18 -37 -14 -31 -25 26 -43 55 -18 114 -23 90 -8 -9 6 -10 10 -1 13 6 2 -6 4 -27 4 -58 0 -76 10 -63 33 20 38 -7 61 -73 61 -16 0 -26 4 -22 10 3 6 5 9 3 8 -2 -1 -30 -4 -63 -8z"></path> <path d="M3151 1124 c0 -11 3 -14 6 -6 3 7 2 16 -1 19 -3 4 -6 -2 -5 -13z"></path> <path d="M972 1103 c-5 -10 -9 -31 -8 -48 1 -25 6 -30 36 -36 27 -6 48 -2 92 18 31 14 65 34 75 46 18 20 18 20 -7 6 -14 -7 -35 -14 -48 -14 -12 -1 -26 -6 -30 -10 -4 -5 1 -5 11 -2 11 4 16 3 12 -3 -3 -6 -15 -10 -26 -10 -11 0 -18 -3 -16 -7 3 -5 -13 -9 -34 -11 -23 -1 -39 2 -39 8 0 6 -5 8 -10 5 -10 -6 -5 48 6 67 3 4 3 8 0 8 -3 0 -9 -8 -14 -17z"></path> <path d="M3608 1103 c6 -2 18 -2 25 0 6 3 1 5 -13 5 -14 0 -19 -2 -12 -5z"></path> <path d="M3837 1082 c1 -8 3 -16 3 -18 0 -2 7 -4 15 -4 8 0 15 5 15 10 0 6 -6 10 -14 10 -8 0 -16 3 -19 8 -2 4 -2 1 0 -6z"></path> <path d="M3525 1029 c-106 -44 -115 -49 -115 -59 0 -12 22 -13 36 -1 14 12 89 30 189 44 49 7 85 16 80 19 -6 3 -39 9 -75 12 -53 5 -74 2 -115 -15z" class=""></path> <path d="M1974 955 c2 -48 6 -88 9 -91 2 -2 5 34 5 80 1 47 -3 88 -8 91 -6 4 -8 -28 -6 -80z"></path> <path d="M1363 955 c0 -7 6 -11 14 -8 7 3 13 6 13 8 0 2 -6 5 -13 8 -8 3 -14 -1 -14 -8z"></path> <path d="M2171 955 c-1 -21 15 -53 22 -45 2 3 -2 19 -9 35 -10 23 -13 25 -13 10z"></path> <path d="M2020 945 c-10 -12 -10 -15 4 -15 9 0 16 7 16 15 0 8 -2 15 -4 15 -2 0 -9 -7 -16 -15z"></path>  <path d="M1579 943 c-15 -2 -35 -14 -45 -25 -11 -12 -14 -19 -9 -16 6 2 27 12 48 22 20 9 37 19 37 21 0 3 -1 4 -2 4 -2 -1 -15 -4 -29 -6z"></path> <path d="M2608 943 c7 -3 16 -2 19 1 4 3 -2 6 -13 5 -11 0 -14 -3 -6 -6z"></path> <path d="M880 937 c10 -11 217 -65 276 -72 93 -12 57 4 -83 36 -150 35 -200 44 -193 36z"></path> <path d="M1071 931 c37 -24 269 -42 269 -22 0 5 8 12 18 15 9 3 4 3 -13 0 -46 -9 -126 -5 -245 11 -33 4 -41 3 -29 -4z"></path> <path d="M2500 919 c-7 -11 -9 -23 -6 -26 3 -3 -5 -14 -17 -24 l-22 -19 30 6 c17 4 37 10 45 15 12 7 12 8 -4 9 -15 0 -17 5 -12 30 7 35 1 39 -14 9z"></path> <path d="M1484 894 c-18 -14 -18 -15 4 -4 12 6 22 13 22 15 0 8 -5 6 -26 -11z"></path> <path d="M2011 883 c-10 -26 -10 -27 4 -9 8 11 15 23 15 28 0 15 -7 8 -19 -19z"></path> <path d="M3010 894 c-82 -19 -545 -84 -621 -87 -37 -1 -65 -5 -62 -9 2 -5 -6 -8 -19 -8 -13 0 -34 -3 -47 -7 -18 -4 -22 -3 -16 6 5 10 3 11 -11 4 -11 -6 -38 -9 -61 -7 -33 2 -41 0 -36 -12 3 -8 14 -12 27 -10 11 3 75 9 141 16 66 6 156 15 200 20 44 5 130 15 190 21 147 15 340 56 375 79 19 12 9 11 -60 -6z" class=""></path> <path d="M1920 821 c0 -6 4 -13 10 -16 6 -3 7 1 4 9 -7 18 -14 21 -14 7z"></path> <path d="M1846 808 c3 -5 10 -6 15 -3 13 9 11 12 -6 12 -8 0 -12 -4 -9 -9z"></path> <path d="M2250 816 c0 -2 7 -7 16 -10 8 -3 12 -2 9 4 -6 10 -25 14 -25 6z"></path> <path d="M2013 774 c10 -10 117 -12 111 -2 -3 4 -30 8 -61 8 -31 0 -53 -3 -50 -6z"></path> <path d="M1990 727 c-36 -18 -39 -68 -6 -112 50 -65 229 -207 431 -342 135 -90 145 -96 145 -89 0 2 -35 28 -77 57 -107 72 -380 276 -389 291 -9 13 -2 10 86 -51 36 -25 128 -88 205 -140 77 -52 142 -97 145 -101 3 -4 13 -10 23 -13 24 -9 18 13 -8 27 -19 11 -78 50 -305 205 -69 47 -143 95 -164 106 -22 11 -44 29 -50 40 -6 11 -17 25 -25 31 -8 6 -15 24 -16 40 -1 25 2 29 27 31 16 1 26 -2 23 -6 -3 -5 4 -7 14 -4 11 3 29 -2 41 -10 12 -8 29 -13 39 -10 9 2 48 -7 86 -21 37 -15 70 -25 72 -22 5 4 -259 108 -271 106 -1 0 -12 -6 -26 -13z"></path> <path d="M2119 653 c-10 -11 -10 -14 -1 -9 6 4 12 2 12 -3 0 -6 5 -11 11 -11 9 0 207 -82 317 -132 24 -10 42 -24 39 -31 -2 -7 -8 -12 -13 -11 -5 0 -89 40 -187 88 -98 48 -185 86 -194 84 -9 -2 47 -32 123 -67 76 -35 167 -78 202 -96 56 -29 63 -31 72 -16 8 13 10 13 9 1 -3 -21 12 -52 30 -68 25 -20 -31 6 -124 57 -171 94 -327 173 -331 168 -5 -5 32 -27 258 -147 86 -46 155 -87 153 -90 -1 -3 12 -6 31 -7 19 -1 34 0 34 1 0 1 -11 25 -25 52 -14 27 -25 57 -25 67 0 9 -5 17 -11 17 -5 0 -81 30 -167 66 -86 36 -167 70 -180 75 -13 5 -20 14 -17 19 10 16 -1 11 -16 -7z" class=""></path> <path d="M2160 653 c174 -67 240 -90 240 -87 0 3 -23 15 -51 28 -30 15 -45 26 -37 30 7 3 3 3 -8 1 -12 -3 -46 3 -75 15 -30 11 -61 20 -69 19 -13 0 -13 -1 0 -6z"></path> <path d="M2055 630 c-3 -5 -1 -10 4 -10 6 0 11 5 11 10 0 6 -2 10 -4 10 -3 0 -8 -4 -11 -10z"></path> <path d="M2340 610 c8 -5 20 -10 25 -10 6 0 3 5 -5 10 -8 5 -19 10 -25 10 -5 0 -3 -5 5 -10z"></path> <path d="M2040 595 c0 -2 19 -13 43 -24 49 -24 75 -39 260 -155 76 -47 142 -86 145 -86 4 0 18 -9 32 -20 14 -11 28 -20 33 -20 12 0 7 24 -10 45 -13 16 -15 17 -10 3 4 -10 4 -18 1 -18 -10 0 -67 32 -147 84 -95 62 -327 196 -339 196 -4 0 -8 -2 -8 -5z" class=""></path> <path d="M2420 560 c8 -5 20 -10 25 -10 6 0 3 5 -5 10 -8 5 -19 10 -25 10 -5 0 -3 -5 5 -10z"></path> <path d="M3420 849 c-25 -10 -39 -18 -31 -18 17 -1 176 -62 334 -128 116 -49 137 -69 67 -64 -10 0 -11 -2 -3 -5 10 -4 10 -8 0 -19 -9 -10 -16 -10 -27 -1 -13 10 -13 9 -1 -7 13 -16 16 -16 47 8 18 14 37 25 42 25 11 0 92 88 92 100 0 4 -8 14 -17 21 -16 13 -17 12 -4 -3 9 -13 10 -18 2 -18 -7 0 -10 -4 -7 -9 12 -18 -20 -18 -69 1 -84 32 -239 89 -265 98 -112 37 -113 37 -160 19z m132 -29 c116 -34 238 -78 253 -89 5 -5 27 -11 48 -15 44 -8 45 -15 12 -46 -14 -13 -25 -19 -25 -13 0 16 -346 172 -390 176 -10 1 -16 5 -14 9 7 11 8 11 116 -22z" class=""></path> <path d="M3271 826 c-14 -17 -2 -28 96 -82 40 -22 70 -44 66 -49 -5 -4 -3 -5 3 -2 13 7 243 -105 255 -125 7 -10 9 -10 9 0 0 15 -15 25 -238 142 -140 74 -179 99 -177 112 5 22 1 22 -14 4z"></path> <path d="M3877 755 c3 -8 9 -12 14 -9 12 7 11 11 -5 17 -10 4 -13 1 -9 -8z"></path> <path d="M3540 626 c0 -3 9 -10 20 -16 11 -6 20 -8 20 -6 0 3 -9 10 -20 16 -11 6 -20 8 -20 6z"></path> <path d="M3716 565 c-4 -13 -2 -14 14 -5 23 13 26 20 6 20 -8 0 -16 -7 -20 -15z"></path> <path d="M3620 529 c0 -5 5 -7 10 -4 6 3 10 8 10 11 0 2 -4 4 -10 4 -5 0 -10 -5 -10 -11z"></path> <path d="M3668 533 c7 -3 16 -2 19 1 4 3 -2 6 -13 5 -11 0 -14 -3 -6 -6z"></path>   </g> </svg>