<svg version="1.0" xmlns="http://www.w3.org/2000/svg" width="517.000000pt" height="168.000000pt" viewBox="0 0 517.000000 168.000000" preserveAspectRatio="xMidYMid meet" style="width: 1417.65px; height: auto;"> <g transform="translate(0.000000,168.000000) scale(0.100000,-0.100000)" fill="#000000" stroke="none" class=""> <path d="M3712 1511 c-49 -23 -156 -126 -147 -141 4 -6 3 -9 -2 -8 -5 2 -35 -24 -68 -58 -33 -33 -89 -77 -124 -98 l-63 -37 -197 17 c-232 19 -796 22 -1056 5 -482 -31 -829 -79 -970 -132 -27 -10 -63 -19 -80 -19 -38 0 -176 -33 -252 -60 -89 -32 -284 -79 -371 -90 -57 -7 -81 -15 -94 -30 -9 -11 -21 -20 -27 -20 -6 0 -15 -9 -21 -20 -19 -36 20 -79 100 -110 19 -8 49 -23 65 -35 44 -32 79 -43 195 -61 58 -8 143 -27 190 -41 136 -40 209 -54 295 -55 72 -1 88 3 155 34 94 43 144 86 166 143 18 48 13 88 -13 117 -8 9 -21 51 -28 93 -8 42 -21 88 -30 102 -9 13 -14 27 -11 30 7 7 105 5 117 -2 5 -3 73 5 151 19 290 51 391 59 812 63 672 8 954 -17 1501 -132 200 -42 411 -57 480 -33 22 7 39 18 39 23 -1 9 82 58 276 162 148 79 191 105 186 110 -6 6 -228 -108 -357 -184 -102 -60 -129 -72 -129 -55 0 4 87 64 193 134 105 70 197 132 203 137 23 19 94 51 114 51 21 0 27 -14 10 -25 -6 -4 -8 -11 -4 -16 3 -6 -4 -37 -16 -70 -16 -41 -26 -56 -31 -47 -6 9 -9 6 -9 -9 0 -13 -5 -23 -11 -23 -5 0 -8 -4 -5 -9 3 -5 -11 -41 -31 -80 -34 -69 -59 -94 -86 -90 -15 3 -62 -8 -239 -58 -10 -2 -18 -8 -18 -12 0 -5 66 9 147 30 81 20 150 36 152 34 2 -2 -4 -11 -13 -20 -19 -19 -21 -29 -4 -19 8 5 9 2 5 -10 -4 -10 -7 -20 -7 -22 0 -3 -5 -2 -10 1 -6 4 -5 -5 2 -20 10 -22 9 -28 -3 -36 -9 -6 -10 -12 -4 -16 14 -11 19 -47 6 -38 -15 9 -14 -8 1 -23 10 -10 10 -15 -2 -23 -12 -8 -12 -9 4 -7 19 3 20 1 27 -69 2 -17 6 -30 11 -27 8 5 28 -29 27 -48 0 -7 -4 -4 -8 6 -4 11 -10 15 -13 10 -2 -5 1 -20 8 -34 8 -14 14 -18 14 -10 0 8 7 2 15 -14 9 -16 14 -31 12 -33 -2 -2 -42 13 -88 33 -69 29 -332 124 -345 124 -2 0 -4 -4 -4 -8 0 -5 26 -16 58 -26 31 -10 120 -43 197 -73 77 -29 148 -56 158 -58 41 -9 57 -17 57 -27 0 -5 14 -27 30 -48 17 -21 30 -40 30 -44 0 -6 -32 4 -40 13 -3 4 -16 12 -30 19 -14 7 -48 25 -76 40 -110 60 -386 183 -400 178 -8 -3 -21 -3 -30 1 -12 4 -13 8 -3 14 8 5 2 8 -16 7 -17 0 -43 5 -58 11 -16 6 -33 8 -39 5 -7 -5 -8 -2 -3 6 6 10 0 11 -29 6 -20 -4 -36 -3 -36 1 0 4 -24 8 -54 8 -30 0 -52 -3 -50 -7 3 -4 -2 -5 -10 -2 -22 9 -113 -15 -128 -33 -10 -13 -8 -18 12 -34 14 -10 33 -25 43 -33 9 -9 17 -13 17 -10 0 4 7 1 16 -7 9 -7 14 -22 11 -36 -2 -12 -1 -20 3 -18 4 3 10 -4 13 -15 3 -11 1 -18 -4 -15 -11 7 -23 -40 -15 -60 3 -8 1 -15 -4 -15 -6 0 -10 -6 -10 -13 0 -7 -10 -23 -23 -37 -23 -24 -27 -32 -27 -47 0 -13 -46 -63 -57 -63 -6 0 -16 -7 -23 -15 -7 -8 -20 -15 -29 -15 -14 0 -14 2 -1 10 11 7 5 8 -19 3 -23 -4 -32 -3 -28 4 4 6 -5 14 -19 17 -26 7 -63 36 -47 36 4 1 -7 7 -24 15 -22 9 -33 21 -33 35 0 12 -4 19 -9 16 -4 -3 -16 3 -26 14 -10 11 -15 20 -10 20 4 0 -2 8 -14 17 -12 10 -28 29 -35 43 -7 14 -18 24 -25 22 -7 -1 -10 2 -7 7 4 5 -1 17 -10 25 -14 15 -14 16 0 16 20 0 16 -1 78 15 29 8 54 12 56 10 3 -2 17 2 33 10 15 8 39 15 53 15 14 0 28 5 32 11 5 8 -1 10 -17 6 -211 -47 -273 -57 -288 -44 -16 13 -55 12 -47 -1 2 -4 -17 -7 -42 -8 -66 -1 -206 -14 -275 -25 -32 -6 -88 -9 -125 -8 -37 0 -78 -4 -92 -9 -20 -9 -10 -11 55 -11 68 -1 384 27 495 44 33 5 37 2 80 -57 65 -89 198 -222 247 -247 81 -41 121 -23 190 84 60 93 86 162 80 211 -6 54 -25 77 -83 101 -24 10 -44 21 -44 24 0 14 154 32 223 26 92 -8 196 -34 222 -57 35 -31 157 -106 245 -150 108 -54 209 -89 283 -97 64 -7 73 5 36 48 -11 13 -28 33 -37 44 -32 38 -70 120 -107 230 -54 162 -51 188 52 396 85 172 117 253 109 276 -17 43 -224 -58 -496 -241 -58 -39 -114 -78 -124 -88 -51 -47 -184 -45 -388 4 l-93 22 55 7 c65 9 119 30 143 56 22 25 11 65 -38 144 -19 32 -40 80 -45 108 -13 71 -34 107 -81 138 -53 35 -120 40 -177 14z m149 -17 c8 -5 7 -9 -5 -16 -9 -5 -16 -14 -16 -19 0 -6 7 -3 16 5 8 9 19 16 23 16 20 0 52 -51 63 -100 6 -30 23 -75 36 -99 20 -36 22 -45 11 -53 -11 -8 -10 -9 3 -4 13 4 22 -3 32 -22 20 -41 27 -80 16 -87 -9 -5 -290 -9 -385 -5 -83 4 161 39 288 41 49 1 55 3 27 8 -50 9 -244 -6 -313 -24 -67 -17 -77 -18 -77 -7 0 8 188 54 315 76 50 9 67 15 45 15 -52 1 -199 -26 -293 -55 -45 -14 -91 -28 -102 -31 -13 -4 -17 -2 -10 4 17 17 164 70 275 98 117 30 140 41 65 30 -63 -9 -223 -59 -295 -93 -50 -24 -110 -36 -110 -22 0 3 -15 5 -32 6 -92 3 -108 5 -108 13 0 5 13 12 30 16 16 4 46 21 66 38 19 18 39 32 44 32 4 0 55 45 113 100 58 55 112 99 119 97 7 -2 5 2 -5 8 -17 11 -16 13 15 30 33 19 122 21 149 4z m-191 -44 c0 -5 -5 -10 -11 -10 -5 0 -7 5 -4 10 3 6 8 10 11 10 2 0 4 -4 4 -10z m-50 -45 c-13 -14 -26 -22 -29 -19 -3 3 5 14 18 25 33 27 39 24 11 -6z m1040 -189 c0 -2 -26 -21 -57 -42 -32 -21 -94 -64 -137 -96 -44 -32 -82 -56 -85 -53 -6 7 10 18 158 117 118 79 121 81 121 74z m-2535 -46 c-3 -5 -1 -10 4 -10 6 0 11 4 11 9 0 5 174 9 415 10 247 0 415 -3 415 -9 0 -5 26 -9 58 -8 114 1 276 -14 337 -31 23 -6 37 -6 41 1 4 6 10 5 15 -3 5 -8 9 -9 9 -3 0 6 7 11 15 11 8 0 15 -5 15 -10 0 -6 3 -8 6 -5 3 3 33 -1 67 -9 54 -13 74 -16 122 -23 6 -1 1 -5 -10 -10 -17 -7 -18 -9 -2 -9 9 -1 27 5 38 12 17 10 23 9 37 -8 9 -11 26 -21 37 -22 50 -4 74 -11 96 -27 l24 -17 -25 5 c-14 3 -54 13 -90 21 -105 25 -154 34 -225 41 -22 2 -53 6 -70 8 -78 11 -355 38 -392 39 -24 0 -43 4 -43 9 0 4 -8 8 -17 8 -16 0 -16 -2 -3 -11 12 -8 10 -9 -8 -4 -13 4 -84 7 -158 6 -79 0 -134 4 -134 9 0 6 -9 10 -20 10 -11 0 -20 -3 -20 -8 0 -4 -134 -8 -297 -8 -164 0 -318 -4 -343 -7 -25 -4 -92 -11 -150 -16 -58 -5 -114 -13 -124 -17 -14 -5 -17 -4 -12 4 5 9 0 9 -21 1 -15 -6 -39 -12 -53 -14 -14 -1 -54 -6 -90 -10 -36 -4 -69 -11 -75 -14 -5 -4 -23 -6 -40 -5 -113 8 -137 7 -144 -5 -5 -7 -17 -11 -27 -10 -11 2 -30 -4 -44 -14 -13 -9 -33 -17 -43 -17 -10 0 -16 -4 -13 -9 11 -17 -43 -21 -109 -7 -77 16 -88 22 -39 22 19 0 39 6 43 13 8 12 33 18 93 24 9 1 15 5 12 9 -6 9 81 22 106 15 11 -3 18 -1 14 4 -3 5 5 9 18 10 13 0 32 2 43 4 32 6 235 33 295 40 30 4 63 9 74 12 13 3 16 1 11 -7 -6 -9 -3 -9 13 -1 13 7 31 7 53 1 28 -8 31 -7 17 3 -14 11 -12 13 17 13 19 0 31 -4 28 -10 -4 -6 1 -6 13 -1 10 5 40 10 66 11 26 1 51 5 56 8 5 3 23 1 41 -4 17 -5 31 -5 31 0 0 5 8 11 18 13 9 3 18 5 20 6 2 0 0 -3 -3 -9z m1850 -80 l30 -8 -32 -1 c-17 0 -35 -5 -38 -11 -3 -5 -25 -10 -48 -10 -43 0 -153 23 -164 34 -9 9 216 5 252 -4z m-2980 -80 c3 -5 1 -10 -4 -10 -6 0 -11 5 -11 10 0 6 2 10 4 10 3 0 8 -4 11 -10z m319 -22 c8 -18 17 -60 21 -93 4 -33 16 -72 26 -86 28 -39 25 -98 -7 -145 -34 -50 -45 -58 -130 -100 -70 -34 -70 -34 -172 -28 -56 4 -102 11 -102 16 0 4 12 8 26 8 39 0 94 59 94 100 0 23 10 44 35 71 21 23 35 49 35 65 0 27 -28 89 -37 81 -2 -3 1 -15 7 -27 22 -42 15 -79 -23 -118 -28 -29 -36 -45 -35 -71 1 -26 -6 -40 -26 -58 -38 -32 -71 -38 -140 -24 -34 6 -69 12 -78 13 -10 1 -18 6 -18 10 0 4 -8 7 -17 6 -10 0 -27 3 -38 6 -52 15 -105 25 -163 31 -51 6 -62 10 -57 22 4 13 3 13 -9 4 -8 -7 -25 -9 -43 -5 -41 10 -45 14 -32 30 10 12 9 13 -6 8 -14 -6 -16 -4 -10 7 8 12 6 12 -8 0 -9 -7 -17 -9 -17 -4 0 6 -22 20 -50 31 -27 12 -50 26 -50 32 0 6 -4 9 -9 6 -19 -12 -20 25 -1 44 11 11 20 16 20 11 0 -6 -4 -13 -10 -16 -5 -3 -10 -12 -10 -18 0 -7 8 -1 16 13 14 22 32 28 134 49 75 14 142 22 182 20 58 -4 63 -2 66 17 4 29 32 53 79 70 48 17 262 18 349 2 62 -11 65 -11 121 20 32 17 62 31 66 31 4 1 14 -14 21 -31z m3056 12 c-12 -8 -12 -10 5 -11 11 0 14 -3 7 -6 -6 -2 -10 -8 -8 -11 2 -4 -17 -7 -42 -8 -26 0 -41 1 -35 3 7 3 15 4 18 4 3 -1 14 8 25 19 11 11 26 20 33 20 8 0 7 -4 -3 -10z m-3710 -99 c0 -6 -9 -9 -20 -8 -11 1 -20 5 -20 9 0 4 9 8 20 8 11 0 20 -4 20 -9z m3940 -381 c315 -154 285 -138 278 -145 -7 -8 -131 35 -139 47 -4 6 -18 11 -32 11 -14 1 -23 6 -19 11 3 5 -2 7 -11 3 -9 -3 -17 -3 -19 1 -2 4 -21 16 -43 27 -59 30 -209 115 -219 126 -28 26 37 0 204 -81z" class=""></path> <path d="M3735 1438 c-11 -6 -22 -14 -25 -17 -3 -3 -39 -31 -80 -62 -93 -70 -200 -167 -200 -182 0 -5 3 -7 6 -4 4 3 15 2 25 -4 15 -8 32 -1 81 32 35 23 121 70 193 105 71 35 124 64 118 64 -34 0 -250 -109 -321 -162 -30 -22 -56 -38 -58 -35 -11 11 166 136 274 193 41 21 69 40 63 42 -23 8 -275 -149 -311 -193 -7 -9 -23 -21 -34 -26 -35 -17 93 101 179 164 44 33 82 63 85 66 3 4 14 13 25 19 11 6 16 11 10 11 -5 0 -19 -5 -30 -11z"></path> <path d="M3780 1291 c-109 -38 -221 -91 -262 -123 -13 -11 18 1 67 25 50 24 137 62 195 83 111 40 116 42 109 48 -2 2 -51 -13 -109 -33z"></path> <path d="M3431 1213 c-17 -20 -29 -39 -26 -41 4 -5 64 60 65 71 0 14 -9 7 -39 -30z"></path> <path d="M2888 1163 c6 -2 18 -2 25 0 6 3 1 5 -13 5 -14 0 -19 -2 -12 -5z"></path> <path d="M2598 1143 c7 -3 16 -2 19 1 4 3 -2 6 -13 5 -11 0 -14 -3 -6 -6z"></path> <path d="M2808 1143 c7 -3 16 -2 19 1 4 3 -2 6 -13 5 -11 0 -14 -3 -6 -6z"></path> <path d="M3218 1133 c6 -2 18 -2 25 0 6 3 1 5 -13 5 -14 0 -19 -2 -12 -5z"></path> <path d="M730 940 c-27 -27 -25 -56 6 -86 19 -20 31 -24 52 -19 15 3 32 12 37 20 8 10 16 10 29 3 13 -7 17 -7 12 0 -3 6 -2 13 3 16 5 4 11 -4 13 -16 2 -16 11 -24 30 -26 31 -4 78 23 78 44 0 8 7 17 15 20 9 4 14 12 13 19 -2 8 0 14 5 14 25 3 27 0 18 -18 -8 -14 -7 -22 4 -31 9 -7 15 -29 15 -54 0 -30 -3 -37 -10 -26 -5 8 -10 10 -10 4 0 -5 5 -15 12 -22 8 -8 8 -15 -3 -28 -12 -15 -12 -17 1 -12 19 6 27 167 10 198 -20 37 -53 25 -78 -30 -24 -52 -50 -74 -76 -64 -20 8 -20 31 -1 64 20 35 18 50 -5 50 -21 0 -40 -27 -40 -59 0 -11 -4 -22 -8 -25 -5 -3 -9 8 -9 24 0 16 -5 36 -13 44 -18 23 -76 20 -100 -4z m84 -6 c32 -31 11 -84 -32 -84 -35 0 -52 17 -52 52 0 43 53 64 84 32z m79 -9 c-3 -9 -8 -14 -10 -11 -3 3 -2 9 2 15 9 16 15 13 8 -4z"></path> <path d="M754 915 c-8 -21 2 -45 19 -45 20 0 40 27 33 45 -7 19 -45 20 -52 0z m26 -11 c0 -8 -5 -12 -10 -9 -6 4 -8 11 -5 16 9 14 15 11 15 -7z"></path> <path d="M680 866 c0 -2 12 -12 28 -21 l27 -18 -19 21 c-17 20 -36 29 -36 18z"></path> <path d="M465 820 c28 -11 66 -19 85 -19 33 2 32 2 -10 9 -25 4 -58 12 -73 18 -16 7 -34 12 -40 12 -7 -1 11 -10 38 -20z"></path> <path d="M805 820 c-3 -5 -5 -10 -3 -11 33 -8 38 -7 27 7 -14 17 -16 17 -24 4z"></path> <path d="M870 821 c0 -7 -5 -9 -12 -5 -7 5 -8 3 -3 -5 5 -9 10 -10 18 -2 6 6 8 14 4 18 -4 3 -7 1 -7 -6z"></path> <path d="M333 813 c9 -2 25 -2 35 0 9 3 1 5 -18 5 -19 0 -27 -2 -17 -5z"></path> <path d="M726 808 c3 -5 10 -6 15 -3 13 9 11 12 -6 12 -8 0 -12 -4 -9 -9z"></path> <path d="M476 779 c15 -24 90 -49 152 -49 62 0 132 -20 132 -38 0 -6 -17 -14 -37 -20 -35 -9 -35 -10 -10 -11 34 -1 67 15 67 33 0 22 -64 46 -122 46 -62 0 -161 23 -166 39 -2 6 -8 11 -13 11 -6 0 -7 -5 -3 -11z"></path> <path d="M345 770 c-3 -6 3 -10 14 -10 11 0 23 -5 27 -11 3 -6 15 -9 25 -6 23 6 84 -14 111 -37 11 -10 22 -15 25 -13 8 8 -40 49 -76 64 -43 18 -118 26 -126 13z"></path> <path d="M1335 743 c-19 -102 -96 -163 -207 -163 -20 0 -39 5 -41 10 -3 6 -4 5 -3 -2 2 -9 24 -13 74 -13 64 0 74 3 109 31 21 17 47 46 57 64 21 35 38 110 26 110 -4 0 -11 -17 -15 -37z" class=""></path> <path d="M1299 728 c-5 -18 -6 -38 -1 -34 7 8 12 36 6 36 -2 0 -4 -1 -5 -2z"></path> <path d="M890 710 c0 -5 5 -10 10 -10 6 0 10 -7 10 -15 0 -8 4 -15 9 -15 5 0 12 -7 15 -16 6 -14 0 -16 -36 -10 -26 3 -37 3 -28 -3 24 -13 98 -22 104 -12 3 5 -4 7 -16 3 -14 -3 -19 -1 -14 6 4 6 -4 27 -16 46 -23 35 -38 46 -38 26z"></path> <path d="M830 700 c0 -5 5 -10 11 -10 5 0 7 5 4 10 -3 6 -8 10 -11 10 -2 0 -4 -4 -4 -10z"></path> <path d="M1089 693 c-13 -16 -12 -17 4 -4 10 8 17 9 17 3 0 -6 -4 -14 -10 -17 -5 -3 -10 -11 -10 -18 0 -6 7 -1 16 12 20 28 4 51 -17 24z" class=""></path> <path d="M1098 543 c6 -2 18 -2 25 0 6 3 1 5 -13 5 -14 0 -19 -2 -12 -5z" class=""></path> <path d="M4340 979 c0 -5 5 -7 10 -4 6 3 10 8 10 11 0 2 -4 4 -10 4 -5 0 -10 -5 -10 -11z"></path> <path d="M4810 1132 c-85 -28 -386 -169 -378 -177 2 -3 56 18 119 46 138 61 272 122 278 126 9 6 -5 10 -19 5z"></path> <path d="M4740 1034 c-75 -19 -284 -100 -288 -112 -1 -5 63 15 143 44 80 30 159 57 175 61 17 3 30 9 30 14 0 5 -1 9 -2 8 -2 0 -28 -7 -58 -15z"></path> <path d="M1738 1028 c-7 -3 -16 -4 -20 -2 -4 3 -8 0 -8 -6 0 -6 -8 -10 -17 -8 -11 2 -17 -2 -15 -11 2 -10 -2 -11 -15 -5 -31 14 -166 13 -219 -2 -55 -15 -72 -35 -48 -55 41 -34 244 -26 275 11 9 10 20 16 25 12 5 -4 3 0 -4 10 -20 26 0 27 27 1 l24 -23 -31 -6 c-18 -4 -29 -10 -27 -15 3 -4 1 -10 -4 -14 -19 -11 0 -33 42 -50 28 -12 67 -17 119 -16 74 1 77 1 73 -20 -3 -12 -2 -19 2 -16 3 4 18 0 33 -8 59 -30 238 -55 330 -45 14 1 -29 8 -95 16 -134 15 -258 44 -253 59 7 22 237 1 353 -32 15 -4 17 -2 9 6 -16 18 -112 41 -169 41 -27 0 -45 4 -38 8 7 4 -14 7 -45 7 -53 0 -57 2 -54 22 4 30 -40 51 -120 60 -35 3 -56 9 -48 11 8 3 26 9 40 15 14 6 32 10 40 9 10 -1 11 0 3 4 -19 8 -16 27 3 20 9 -3 12 -2 9 5 -4 6 -13 8 -21 5 -7 -3 -19 0 -26 7 -14 13 -112 17 -130 5z m132 -28 c0 -14 -29 -20 -91 -20 -59 0 -78 14 -40 28 25 9 131 3 131 -8z m-222 -16 c66 -18 -21 -46 -140 -46 -84 0 -132 13 -97 27 52 20 191 31 237 19z m145 -31 c-7 -2 -19 -2 -25 0 -7 3 -2 5 12 5 14 0 19 -2 13 -5z m136 -36 c53 -14 63 -33 24 -44 -44 -12 -184 -8 -225 6 -40 13 -50 36 -20 44 34 9 178 5 221 -6z" class=""></path> <path d="M2176 1019 c-12 -12 -17 -26 -13 -40 5 -19 3 -21 -26 -15 -93 17 -109 18 -132 6 -13 -7 -22 -17 -19 -22 3 -4 0 -8 -7 -8 -7 0 2 -11 20 -25 51 -37 153 -49 208 -25 l31 14 -22 18 c-21 17 -20 18 37 16 42 -2 61 2 67 12 17 26 11 41 -20 51 -16 6 -27 15 -24 20 3 5 -1 7 -8 5 -7 -2 -29 -7 -48 -10 -31 -6 -32 -5 -16 7 13 9 14 14 5 14 -8 0 -22 -8 -33 -18z m127 -38 c24 -24 -34 -38 -92 -22 -13 3 -27 16 -31 27 -8 19 -5 20 52 13 33 -4 65 -12 71 -18z m-178 -37 c69 -17 85 -28 67 -46 -10 -10 -30 -9 -94 4 -84 18 -105 28 -94 47 10 15 51 14 121 -5z" class=""></path>  <path d="M3270 1011 c0 -5 -8 -8 -17 -7 -21 3 -43 -16 -43 -38 0 -13 -10 -15 -52 -12 -58 4 -91 -14 -81 -42 5 -12 2 -14 -11 -9 -10 4 -20 7 -22 7 -3 0 -3 3 0 8 2 4 -14 6 -37 5 -27 -1 -35 0 -22 5 24 9 30 29 14 49 -9 10 -29 14 -68 12 -68 -3 -81 -7 -81 -25 0 -17 5 -17 33 0 23 14 107 11 107 -4 0 -9 -82 -21 -115 -17 -11 1 -35 11 -54 21 -28 15 -47 17 -100 12 -36 -4 -78 -15 -93 -24 -24 -15 -25 -19 -12 -37 13 -17 27 -20 109 -21 53 -1 98 2 101 7 11 19 24 9 14 -11 -8 -15 -15 -18 -28 -11 -23 12 -116 -2 -133 -20 -17 -18 -23 -43 -9 -34 6 4 20 -1 30 -10 12 -11 20 -13 25 -6 3 6 28 11 56 11 27 0 48 3 48 8 -1 4 -1 15 0 25 1 16 3 16 30 -4 22 -16 43 -21 92 -21 48 0 67 -4 79 -17 26 -30 70 -38 192 -37 104 1 119 3 132 21 26 36 -10 47 -193 59 -30 2 -57 10 -62 17 -11 19 -4 22 18 10 34 -17 109 -16 137 2 23 16 39 36 17 23 -5 -3 -11 2 -13 12 -4 15 0 17 30 14 19 -3 30 -7 25 -11 -14 -9 -11 -51 4 -51 7 0 22 -10 34 -22 12 -13 18 -17 14 -9 -5 9 -3 12 6 9 8 -3 13 -10 12 -16 -1 -5 7 -8 17 -5 12 3 20 0 20 -6 0 -7 -5 -9 -12 -5 -6 4 -8 3 -4 -4 3 -5 3 -12 -1 -15 -5 -2 -1 -1 7 2 8 3 52 6 98 6 68 0 79 2 65 13 -9 6 -23 12 -31 12 -11 0 -11 2 0 13 7 8 20 16 28 20 13 5 13 6 0 7 -8 0 -24 7 -34 15 -18 14 -18 15 8 24 31 12 36 50 9 67 -22 14 -99 8 -122 -9 -10 -6 -17 -21 -15 -32 3 -20 3 -20 -12 -1 -8 11 -14 16 -14 10 0 -5 -14 -10 -32 -11 -24 -2 -29 0 -20 9 15 15 16 48 1 48 -5 0 -8 4 -5 9 3 4 -6 7 -19 5 -14 -1 -25 2 -25 7 0 5 -4 9 -10 9 -5 0 -10 -4 -10 -9z m52 -32 c27 -15 7 -29 -42 -29 -48 0 -69 14 -44 29 25 14 60 14 86 0z m212 -19 c37 -14 32 -28 -11 -36 -39 -7 -84 4 -90 23 -7 20 59 29 101 13z m-700 -17 c5 -3 -2 -12 -15 -19 -42 -23 -204 -15 -196 10 7 21 179 28 211 9z m366 -14 c68 -14 69 -39 1 -39 -74 0 -138 28 -98 43 20 9 43 8 97 -4z m-309 -8 c-8 -5 -20 -7 -28 -4 -21 8 -15 13 15 13 20 0 23 -3 13 -9z m66 3 c-3 -3 -12 -4 -19 -1 -8 3 -5 6 6 6 11 1 17 -2 13 -5z m497 -26 c56 -12 99 -32 89 -41 -3 -4 -38 -7 -76 -7 -64 0 -98 11 -146 46 -1 2 0 8 4 14 7 11 37 8 129 -12z m-396 -9 c35 -13 26 -26 -27 -39 -74 -18 -188 4 -178 33 2 7 17 15 33 19 33 7 138 0 172 -13z m-248 -29 c20 -13 9 -21 -39 -27 -46 -6 -98 4 -85 17 18 17 102 24 124 10z m503 -36 c42 -7 48 -19 15 -28 -37 -10 -183 -7 -238 5 -49 10 -62 22 -37 33 14 7 203 -1 260 -10z" class=""></path> <path d="M2414 934 c-28 -22 -36 -24 -75 -15 -43 10 -69 2 -69 -22 0 -14 82 -87 98 -87 6 0 12 -5 12 -11 0 -6 6 -9 13 -6 7 2 30 1 52 -3 l40 -8 -48 -1 c-83 -2 -93 -48 -16 -72 48 -15 140 -20 158 -9 11 6 -5 9 -51 10 -71 0 -152 24 -145 44 6 16 125 11 171 -8 33 -14 37 -14 26 -1 -7 8 -19 15 -27 15 -8 0 -12 4 -9 9 3 4 -7 6 -22 4 -23 -3 -21 -1 8 10 l35 14 -75 7 c-41 4 -93 16 -115 26 -73 34 -110 80 -64 80 31 0 169 -50 212 -77 29 -18 37 -20 37 -8 0 8 -6 15 -12 15 -7 0 -22 7 -32 15 -17 13 -16 14 18 11 24 -1 44 4 58 15 l20 18 -26 24 c-47 44 -125 49 -172 11z m142 -10 c39 -19 43 -30 14 -39 -24 -8 -127 12 -135 26 -20 31 63 40 121 13z m-133 -18 c4 -10 1 -13 -9 -9 -7 3 -14 9 -14 14 0 14 17 10 23 -5z"></path> <path d="M3636 944 c-8 -22 2 -39 32 -51 24 -10 24 -11 6 -12 -12 -1 -27 -8 -34 -16 -17 -20 3 -45 36 -45 28 0 40 -16 18 -24 -36 -14 42 -52 96 -47 49 5 39 17 -16 19 -61 3 -78 8 -68 23 5 9 64 5 109 -8 l20 -5 -20 17 -20 17 20 -7 c11 -4 25 -8 31 -9 5 -1 23 -11 38 -24 15 -12 44 -24 65 -28 20 -3 49 -10 65 -15 29 -9 106 -2 106 10 0 3 -33 6 -73 6 -74 0 -167 27 -167 47 0 13 102 4 178 -16 28 -8 52 -10 52 -5 0 5 -9 9 -20 9 -11 0 -20 4 -20 8 0 4 -12 9 -27 10 -37 3 -42 12 -7 13 16 1 32 1 35 1 3 -1 6 5 6 13 0 9 -5 11 -15 6 -17 -9 -76 2 -96 18 -7 6 -15 8 -19 5 -3 -3 -17 2 -31 11 -23 15 -24 19 -11 29 12 9 6 11 -29 11 -24 0 -48 4 -52 8 -10 9 14 27 30 22 6 -2 25 -6 41 -9 28 -6 29 -5 11 9 -25 19 -70 19 -90 0 -13 -14 -16 -13 -28 3 -17 24 -143 29 -152 6z m148 -26 c6 -8 18 -18 26 -21 8 -4 4 -5 -10 -2 -14 2 -46 5 -71 5 -33 0 -54 6 -70 21 l-24 20 69 -4 c45 -3 74 -10 80 -19z m-18 -47 c-3 -5 -15 -7 -26 -4 -28 7 -25 13 6 13 14 0 23 -4 20 -9z m129 -15 c73 -31 15 -56 -71 -31 -51 15 -62 24 -47 38 11 12 83 7 118 -7z m-155 -11 c-7 -14 -78 -11 -93 4 -9 10 0 11 43 9 32 -2 53 -7 50 -13z m39 -24 c9 -6 10 -11 2 -15 -6 -4 -11 -3 -11 2 0 6 -10 8 -22 5 -19 -4 -20 -3 -8 6 18 13 21 13 39 2z m206 -4 c16 -13 15 -14 -13 -9 -18 2 -29 8 -26 13 7 12 17 11 39 -4z"></path> <path d="M4053 915 c-7 -8 -13 -19 -13 -24 0 -6 -11 -6 -30 1 -24 8 -35 7 -56 -7 -30 -20 -26 -32 5 -13 17 10 28 10 66 -4 24 -9 54 -15 65 -13 11 2 20 0 20 -6 0 -5 11 -9 24 -9 33 0 127 -41 123 -54 -4 -13 -84 -8 -112 7 -11 5 -25 17 -32 26 -18 24 -16 -1 3 -27 8 -12 22 -22 30 -22 8 0 14 -6 14 -13 0 -20 65 -14 94 9 19 14 23 22 15 35 -7 14 -5 21 11 29 28 15 25 37 -7 53 -35 16 -69 11 -86 -13 -7 -11 -23 -18 -34 -17 -18 1 -19 4 -10 25 9 20 8 27 -8 38 -24 18 -66 17 -82 -1z m82 -16 c10 -15 -1 -22 -35 -22 -16 0 -33 2 -36 6 -12 12 8 27 36 27 16 0 32 -5 35 -11z m130 -29 c35 -13 22 -30 -24 -30 -42 0 -52 6 -44 26 6 16 31 18 68 4z"></path> <path d="M1513 895 c-40 -18 -48 -32 -32 -52 11 -12 27 -14 77 -10 35 3 73 2 85 -1 20 -5 20 -6 1 -12 -10 -4 24 -7 78 -6 88 1 120 -5 106 -19 -11 -11 -170 -15 -189 -5 -11 6 -19 7 -19 1 0 -15 28 -21 108 -22 88 -1 112 6 112 31 0 24 -29 33 -99 32 -31 -1 -68 1 -84 4 l-27 6 22 18 c17 14 20 21 12 30 -18 18 -114 21 -151 5z m142 -15 c3 -6 -6 -15 -20 -20 -33 -12 -155 -13 -155 -1 0 22 162 42 175 21z"></path> <path d="M4620 889 c-58 -11 -114 -23 -125 -28 -20 -9 -19 -10 1 -10 34 -1 217 38 228 49 6 6 8 9 6 9 -3 -1 -52 -10 -110 -20z"></path> <path d="M4550 833 c-30 -2 -59 -9 -65 -14 -13 -13 196 -1 210 12 9 9 -31 9 -145 2z"></path> <path d="M2821 812 c-59 -18 -27 -51 54 -57 60 -5 89 10 91 45 1 12 -11 16 -60 17 -34 1 -72 -2 -85 -5z m139 -21 c0 -17 -109 -28 -144 -15 -9 3 -13 10 -10 15 7 12 154 12 154 0z"></path>  <path d="M3564 779 c-5 -8 -32 -10 -85 -6 -46 3 -77 1 -73 -4 3 -5 12 -9 20 -9 10 0 12 -5 8 -12 -6 -9 -3 -9 9 0 11 10 29 12 55 7 30 -5 47 -2 73 14 21 13 28 21 17 21 -9 0 -20 -5 -24 -11z" class=""></path>  <path d="M4475 780 c-4 -6 39 -10 122 -9 81 0 121 4 108 9 -28 12 -222 12 -230 0z" class=""></path> <path d="M4241 746 c2 -2 15 -9 29 -16 23 -12 24 -12 11 3 -7 10 -20 17 -29 17 -8 0 -13 -2 -11 -4z"></path> <path d="M4460 740 c0 -5 24 -10 53 -11 28 0 84 -4 122 -8 39 -5 74 -5 78 -1 4 4 -43 12 -106 18 -138 15 -147 15 -147 2z" class=""></path> <path d="M4147 715 c27 -19 87 -27 116 -15 17 7 7 9 -40 9 -34 1 -65 6 -68 11 -3 6 -11 10 -18 10 -6 0 -2 -7 10 -15z" class=""></path> <path d="M4446 712 c-2 -4 61 -19 140 -33 79 -14 144 -22 144 -18 0 3 -53 16 -117 28 -65 12 -128 24 -140 27 -12 2 -24 1 -27 -4z" class=""></path> <path d="M4425 680 c-3 -5 9 -11 27 -15 18 -4 89 -22 158 -41 130 -35 184 -44 115 -18 -74 28 -295 82 -300 74z"></path> <path d="M3818 583 c7 -3 16 -2 19 1 4 3 -2 6 -13 5 -11 0 -14 -3 -6 -6z"></path> <path d="M1345 553 c-27 -2 -60 -5 -72 -8 -20 -5 -21 -7 -7 -33 7 -15 14 -30 14 -35 0 -23 76 -157 108 -190 43 -45 125 -87 153 -80 46 12 58 88 46 276 -1 12 -9 17 -27 16 -17 -1 -19 -3 -7 -6 20 -5 22 -19 5 -26 -10 -4 -10 -6 0 -6 6 -1 12 -8 12 -16 0 -9 -7 -13 -17 -9 -10 2 -8 -1 5 -7 12 -7 22 -16 22 -21 0 -5 -10 -6 -22 -3 -23 7 -23 7 -3 -8 35 -27 28 -138 -10 -163 -21 -14 -27 -14 -53 0 -27 14 -142 141 -142 157 0 9 34 7 48 -4 6 -5 12 -14 12 -20 0 -5 -9 -2 -20 8 -11 10 -20 14 -20 8 0 -5 29 -38 65 -72 36 -33 65 -57 65 -53 0 5 -21 27 -46 51 -60 55 -49 65 14 12 26 -23 51 -41 55 -41 13 0 7 20 -5 20 -16 1 -137 109 -122 110 6 0 23 -11 38 -25 32 -30 47 -33 21 -5 -20 22 -15 25 18 10 20 -9 20 -9 3 2 -10 7 -28 21 -40 31 -16 15 -17 18 -3 13 9 -3 17 -1 17 4 0 6 -6 10 -12 10 -9 0 -8 4 2 11 12 9 12 10 -4 5 -10 -4 -26 -1 -35 6 -10 8 -9 5 3 -10 23 -26 11 -29 -18 -4 -20 16 -20 16 -6 -2 14 -18 13 -19 -2 -13 -13 4 -16 1 -12 -18 3 -17 0 -23 -12 -21 -22 3 -34 27 -23 47 6 12 5 20 -3 25 -7 5 -9 2 -4 -7 4 -8 0 -5 -8 6 -9 11 -14 25 -12 32 3 7 0 13 -7 14 -7 0 -1 5 13 10 17 7 45 7 87 -1 34 -7 68 -10 75 -7 7 3 0 6 -17 7 -16 1 -39 6 -50 11 -33 15 86 -1 124 -17 40 -17 41 -17 41 -5 0 5 -21 16 -47 25 -45 15 -67 16 -178 9z m90 -143 c12 -19 -12 -10 -31 11 -19 22 -19 22 3 10 12 -6 25 -16 28 -21z m-45 -95 c13 -14 21 -25 18 -25 -2 0 -15 11 -28 25 -13 14 -21 25 -18 25 2 0 15 -11 28 -25z" class=""></path> <path d="M2567 535 c-9 -9 -17 -24 -17 -34 0 -21 87 -153 130 -199 77 -80 174 -112 219 -73 23 20 24 25 17 103 -3 46 -9 93 -12 106 -9 30 -26 28 -18 -3 4 -17 2 -25 -7 -25 -10 0 -11 -2 -2 -8 6 -4 15 -25 19 -47 6 -36 6 -39 -9 -26 -15 12 -15 11 -2 -17 9 -16 13 -36 10 -44 -8 -20 -78 -45 -83 -29 -2 6 -8 8 -13 5 -17 -10 -85 44 -136 109 -75 94 -75 95 -62 103 8 5 9 3 4 -6 -6 -9 -4 -11 5 -5 8 5 11 4 7 -1 -3 -6 -2 -16 4 -24 7 -12 9 -12 9 -1 0 7 26 -11 58 -40 64 -60 140 -115 147 -107 3 2 -26 26 -63 53 -37 27 -69 50 -71 52 -2 2 -2 6 1 9 4 3 32 -12 65 -34 32 -21 67 -42 78 -45 23 -7 26 -10 -77 56 -74 48 -70 60 6 17 31 -18 56 -27 56 -21 0 6 -5 11 -11 11 -7 0 -34 14 -61 30 -51 32 -63 36 -53 20 3 -5 2 -10 -4 -10 -5 0 -13 5 -16 10 -3 6 -1 10 5 10 6 0 9 4 5 9 -3 6 29 -6 70 -25 42 -19 82 -33 88 -30 8 3 8 5 -1 5 -7 1 -47 17 -88 38 -54 26 -71 39 -62 45 10 7 10 9 -2 5 -8 -2 -14 -10 -12 -17 1 -6 -3 -10 -10 -7 -7 2 -12 9 -11 14 1 6 -8 9 -20 8 -12 -1 -22 -3 -22 -4 0 -2 -7 -4 -16 -6 -19 -3 -41 36 -31 52 6 10 39 18 52 13 13 -5 43 -8 130 -13 52 -3 79 -2 60 2 l-35 8 35 4 c19 3 -3 5 -50 5 -47 0 -108 3 -136 8 -41 7 -53 5 -67 -9z m98 -85 c12 -13 14 -20 5 -20 -7 0 -2 -9 11 -20 13 -10 19 -19 13 -20 -6 0 -21 11 -34 25 -12 13 -26 22 -31 20 -6 -4 -6 13 0 33 3 8 20 -1 36 -18z" class=""></path> <path d="M1225 520 c3 -5 8 -10 11 -10 2 0 4 5 4 10 0 6 -5 10 -11 10 -5 0 -7 -4 -4 -10z"></path>  <path d="M1600 501 c0 -6 3 -11 8 -11 4 0 39 -3 77 -5 357 -24 878 -35 861 -18 -4 4 -66 8 -139 9 -110 2 -426 11 -607 19 -25 1 -80 5 -122 10 -56 5 -78 4 -78 -4z" class=""></path> <path d="M2718 503 c7 -3 16 -2 19 1 4 3 -2 6 -13 5 -11 0 -14 -3 -6 -6z"></path> <path d="M2751 496 c2 -2 20 -6 39 -10 25 -4 31 -3 20 4 -14 9 -69 15 -59 6z"></path> <path d="M2838 483 c7 -3 16 -2 19 1 4 3 -2 6 -13 5 -11 0 -14 -3 -6 -6z"></path> <path d="M2760 470 c8 -5 20 -10 25 -10 6 0 3 5 -5 10 -8 5 -19 10 -25 10 -5 0 -3 -5 5 -10z"></path> <path d="M2720 465 c0 -9 95 -45 110 -42 8 1 -13 12 -47 24 -35 12 -63 20 -63 18z"></path> <path d="M2810 460 c8 -5 20 -10 25 -10 6 0 3 5 -5 10 -8 5 -19 10 -25 10 -5 0 -3 -5 5 -10z"></path> <path d="M2645 391 c36 -45 128 -131 139 -131 6 0 4 6 -4 13 -8 7 -46 42 -85 78 -38 35 -61 53 -50 40z"></path> <path d="M1497 339 c12 -12 24 -21 27 -18 2 2 -8 13 -22 23 l-27 19 22 -24z"></path> <path d="M2845 350 c-3 -5 -1 -10 4 -10 6 0 11 5 11 10 0 6 -2 10 -4 10 -3 0 -8 -4 -11 -10z" class="hover-highlight"></path>   <path d="M1551 284 c0 -11 3 -14 6 -6 3 7 2 16 -1 19 -3 4 -6 -2 -5 -13z"></path> <path d="M1515 240 c-3 -5 -2 -10 4 -10 5 0 13 5 16 10 3 6 2 10 -4 10 -5 0 -13 -4 -16 -10z"></path> </g> </svg>