<svg version="1.0" xmlns="http://www.w3.org/2000/svg" width="600.000000pt" height="248.000000pt" viewBox="0 0 600.000000 248.000000" preserveAspectRatio="xMidYMid meet" style="width: 1294.89px; height: auto;"> <g transform="translate(0.000000,248.000000) scale(0.100000,-0.100000)" fill="#000000" stroke="none" class=""> <path d="M2835 2388 c-57 -20 -191 -117 -320 -232 -71 -64 -153 -127 -181 -141 -49 -25 -56 -26 -305 -29 -335 -4 -517 -30 -800 -112 -242 -70 -585 -227 -773 -354 -154 -103 -346 -245 -361 -267 -7 -10 -16 -43 -20 -73 -9 -80 0 -89 115 -105 96 -13 168 -36 250 -80 l45 -23 -40 3 c-22 3 -71 6 -110 9 -38 3 -103 16 -144 30 -41 15 -75 26 -77 26 -9 0 -12 -35 -4 -56 12 -30 50 -47 167 -75 94 -21 151 -50 275 -134 42 -29 101 -61 130 -70 29 -10 105 -37 168 -60 64 -24 144 -45 180 -49 36 -4 169 -23 295 -42 385 -59 438 -64 787 -73 l338 -10 50 -27 c27 -15 95 -69 151 -121 122 -113 164 -142 265 -187 204 -89 332 -114 296 -56 -7 11 -8 20 -3 20 6 0 6 12 0 30 -6 16 -15 30 -20 30 -5 0 -9 9 -9 21 0 11 4 18 9 15 13 -9 23 26 11 38 -7 7 -18 2 -35 -19 -13 -17 -24 -34 -24 -40 0 -5 3 -4 6 3 6 16 26 16 21 0 -3 -7 1 -33 9 -57 7 -24 11 -47 8 -49 -9 -9 -115 19 -110 29 5 8 -24 14 -47 10 -5 0 -8 3 -8 9 0 5 -5 10 -11 10 -11 0 -101 42 -134 62 -11 7 -49 31 -85 54 -36 23 -85 60 -110 84 -25 23 -37 36 -27 29 15 -10 20 -10 27 0 5 9 10 10 14 2 4 -6 1 -11 -6 -11 -22 -1 38 -47 135 -104 91 -53 285 -142 293 -134 2 3 -59 35 -136 71 -135 64 -287 153 -278 163 3 2 43 -18 89 -46 99 -59 264 -133 282 -127 7 3 -10 15 -38 27 -108 49 -214 101 -287 144 -43 24 -77 42 -75 38 3 -9 -14 -11 -33 -4 -19 7 -68 52 -57 52 5 0 17 -5 28 -10 13 -8 19 -7 19 0 0 7 6 7 21 0 11 -7 31 -9 43 -6 12 3 46 -1 75 -9 29 -7 60 -11 69 -8 13 4 14 3 3 -5 -10 -7 13 -19 85 -43 55 -18 104 -32 111 -31 6 1 14 -2 18 -8 3 -5 16 -10 28 -10 36 0 5 19 -59 36 -135 35 -167 46 -153 55 8 4 16 4 20 -2 3 -6 19 -7 35 -4 23 5 26 4 14 -5 -12 -9 -8 -10 19 -5 32 7 189 -12 203 -24 4 -3 3 -32 -1 -64 -7 -55 -1 -71 16 -44 4 6 9 26 9 42 1 17 5 40 9 52 6 19 2 23 -32 32 -21 6 -94 17 -163 26 -69 8 -177 22 -240 31 -296 40 -294 39 -269 55 11 7 -81 14 -131 11 -52 -3 -481 21 -580 33 -155 18 -383 61 -411 76 -10 5 -19 7 -19 4 0 -3 -9 -1 -20 5 -11 6 -20 8 -20 5 0 -11 92 -45 123 -46 19 -1 24 -3 14 -6 -26 -7 -148 16 -166 30 -12 9 -13 9 -7 0 9 -16 11 -16 -71 3 -66 16 -106 21 -206 26 -26 1 -47 6 -47 10 0 4 -8 8 -18 8 -10 0 -23 5 -29 11 -7 7 -20 12 -30 14 -22 2 -69 20 -106 41 -15 8 -32 12 -37 9 -6 -3 -10 -2 -10 3 0 5 -15 14 -32 20 -31 10 -31 10 12 5 25 -3 59 -8 76 -13 36 -9 88 9 115 42 11 11 19 24 19 27 1 24 95 100 107 87 3 -3 14 -1 24 5 13 6 19 6 19 -1 0 -5 -7 -10 -15 -10 -14 0 -85 -64 -85 -77 0 -4 17 10 38 30 20 20 52 39 70 43 17 4 32 10 32 14 0 4 11 11 25 14 21 5 75 49 75 62 0 2 -19 -9 -42 -26 -25 -18 -53 -30 -73 -30 -17 0 -55 -7 -84 -16 -45 -13 -58 -23 -94 -74 -50 -70 -86 -84 -177 -69 -62 10 -170 54 -170 70 0 18 -144 78 -225 94 -117 23 -195 53 -195 76 0 24 -2 24 62 -6 48 -23 64 -25 169 -24 99 1 123 -2 165 -20 77 -35 192 -71 222 -71 47 0 53 11 32 55 -25 55 -65 77 -205 118 -185 52 -225 60 -300 60 -49 -1 -64 2 -50 8 13 6 4 7 -25 2 -91 -14 -129 -1 -113 37 3 8 6 25 7 38 1 12 8 27 16 33 11 8 12 12 3 16 -10 4 -10 7 0 17 6 7 16 13 21 13 5 1 12 7 17 14 4 7 15 14 25 15 10 2 25 11 34 22 31 38 78 64 97 53 10 -6 13 -11 6 -11 -7 0 -28 -16 -48 -35 -22 -22 -40 -33 -48 -29 -9 6 -9 5 0 -8 7 -8 9 -18 5 -22 -15 -15 -74 -36 -86 -29 -8 4 -8 3 0 -6 15 -16 91 14 99 39 6 18 43 54 114 111 20 17 28 30 21 34 -6 4 1 17 21 36 29 27 42 33 62 30 4 0 6 4 5 9 -2 6 11 18 27 28 17 9 33 21 36 25 3 5 9 8 13 8 19 -3 27 0 22 8 -8 12 82 53 97 45 7 -4 8 -3 4 1 -8 9 56 45 80 45 8 0 11 4 8 10 -3 5 0 10 7 10 7 0 26 7 42 15 16 9 36 13 43 11 7 -3 12 0 10 5 -1 6 8 13 21 15 13 2 31 11 40 20 11 12 17 13 20 5 3 -9 11 -6 26 7 18 17 33 23 91 38 6 1 41 14 79 29 38 14 75 24 83 21 8 -4 11 -1 7 5 -4 8 1 9 16 4 15 -5 20 -4 16 4 -7 11 11 15 48 11 12 -1 16 3 11 10 -5 9 -1 10 14 5 12 -3 21 -2 21 3 0 6 12 9 28 7 15 -1 40 4 55 12 16 8 51 16 79 19 27 2 53 6 58 9 11 7 125 19 273 28 44 3 77 2 77 -4 0 -5 5 -9 11 -9 5 0 7 5 3 11 -5 8 3 10 25 7 17 -2 31 -2 31 1 0 3 43 5 96 3 53 -2 94 -5 92 -7 -2 -2 -71 -9 -153 -16 -83 -6 -157 -16 -165 -21 -10 -5 -3 -7 20 -3 34 5 276 24 335 26 29 1 30 1 5 9 l-25 8 28 1 c15 1 27 -3 27 -9 0 -6 38 -9 98 -8 87 2 90 2 25 5 -51 3 -73 8 -77 18 -4 11 2 15 22 15 15 0 36 7 46 15 10 8 23 12 29 8 6 -3 7 -1 3 5 -7 11 7 17 29 12 6 -1 7 2 3 6 -11 10 118 133 223 213 99 76 148 106 168 102 7 -1 10 2 7 7 -7 12 42 34 56 26 7 -5 4 -12 -8 -22 -15 -11 -15 -13 -2 -9 19 7 26 -8 22 -46 -1 -15 2 -25 7 -22 5 4 9 -5 9 -19 0 -14 4 -26 9 -26 5 0 7 10 5 23 -2 12 -1 15 2 7 4 -8 12 -18 18 -22 8 -5 7 -8 -1 -8 -7 0 -13 -7 -13 -16 0 -13 3 -14 14 -5 12 10 17 8 25 -8 16 -29 13 -39 -5 -16 -14 19 -14 19 -11 -5 2 -14 8 -23 13 -21 28 12 35 13 41 7 4 -3 -1 -6 -10 -6 -24 0 -21 -17 3 -23 16 -4 20 0 20 19 0 13 -6 24 -12 24 -7 0 -27 22 -44 48 -45 68 -50 77 -34 67 10 -6 12 -4 7 9 -4 10 -7 20 -7 22 0 2 -6 4 -14 4 -9 0 -13 11 -12 33 1 37 -17 43 -69 25z m-2472 -974 c9 -9 -19 -34 -37 -34 -19 0 -21 16 -4 26 7 5 9 2 4 -7 -4 -8 -1 -6 6 4 14 18 21 21 31 11z m89 -363 c181 -46 253 -73 291 -106 33 -30 35 -55 4 -55 -40 0 -148 41 -252 95 -55 29 -130 62 -167 74 -38 13 -68 25 -68 27 0 10 51 1 192 -35z m51 -206 c12 -8 18 -15 14 -15 -11 0 -87 39 -87 45 0 7 49 -13 73 -30z m48 -35 c10 -6 19 -16 19 -23 0 -8 -3 -9 -8 -1 -4 6 -16 16 -27 22 -25 14 -11 16 16 2z m54 -30 c3 -6 -1 -7 -9 -4 -18 7 -21 14 -7 14 6 0 13 -4 16 -10z m40 -28 c-3 -3 -11 0 -18 7 -9 10 -8 11 6 5 10 -3 15 -9 12 -12z"></path>  <path d="M2812 2318 c-7 -7 -16 -13 -20 -13 -4 0 -38 -19 -75 -43 -43 -26 -66 -46 -61 -54 4 -6 3 -8 -3 -5 -6 4 -16 0 -23 -8 -7 -8 -19 -15 -28 -15 -8 0 -13 -3 -9 -6 3 -4 -20 -26 -51 -51 -31 -24 -57 -48 -57 -53 0 -5 -9 -16 -20 -24 -11 -9 -15 -16 -8 -16 6 0 35 21 63 48 67 60 123 100 216 153 87 50 91 66 5 20 -32 -17 -63 -31 -67 -31 -5 0 23 18 62 40 39 21 76 46 83 54 16 19 10 21 -7 4z"></path> <path d="M2850 2270 c0 -5 5 -10 10 -10 6 0 10 5 10 10 0 6 -4 10 -10 10 -5 0 -10 -4 -10 -10z"></path> <path d="M2775 2225 c-27 -13 -59 -30 -70 -37 -46 -30 -172 -127 -189 -146 -10 -12 -23 -19 -27 -16 -5 3 -16 1 -25 -4 -12 -7 -9 -9 15 -10 17 0 33 4 37 9 3 5 10 6 16 3 5 -4 31 15 57 40 26 26 54 46 61 44 8 -2 14 4 15 12 0 8 8 14 17 14 10 -1 16 3 15 9 -1 6 8 12 21 13 25 1 37 10 37 27 0 7 9 11 18 10 13 -1 17 4 12 14 -5 14 -3 14 12 2 10 -7 15 -9 10 -4 -4 4 5 17 20 27 41 26 7 22 -52 -7z m-225 -185 c0 -5 -5 -10 -11 -10 -5 0 -7 5 -4 10 3 6 8 10 11 10 2 0 4 -4 4 -10z"></path> <path d="M2877 2211 c2 -8 -2 -11 -12 -7 -8 3 -15 1 -15 -5 0 -6 -5 -7 -12 -3 -7 4 -8 3 -4 -4 6 -11 -5 -15 -31 -11 -3 0 -10 -6 -15 -15 -5 -9 -16 -16 -24 -16 -9 0 -12 -5 -8 -12 5 -8 2 -9 -10 -5 -9 4 -15 3 -12 -1 2 -4 -9 -15 -25 -25 -18 -10 -28 -12 -24 -4 4 6 1 5 -7 -3 -7 -8 -32 -28 -56 -43 -23 -15 -40 -32 -37 -37 3 -5 0 -7 -8 -4 -8 3 -18 0 -22 -6 -3 -6 -3 -10 2 -9 20 4 24 -2 12 -18 -24 -28 20 0 71 47 25 22 68 55 95 72 28 17 70 44 95 60 59 36 91 63 68 55 -9 -3 -19 -3 -21 1 -2 4 -2 1 0 -7z"></path> <path d="M2870 2160 c0 -6 -5 -8 -10 -5 -6 4 -9 1 -8 -6 2 -6 -3 -14 -11 -17 -9 -3 -11 0 -6 8 5 9 4 11 -4 6 -6 -4 -9 -12 -6 -17 4 -5 1 -9 -5 -9 -7 0 -55 -30 -107 -66 -64 -44 -91 -70 -85 -76 7 -7 15 -7 24 1 41 36 148 111 148 104 0 -4 10 4 21 16 12 13 35 28 51 33 16 6 27 15 25 21 -5 15 -27 21 -27 7z"></path> <path d="M2935 2135 c-6 -8 -20 -16 -33 -18 -13 -2 -28 -10 -33 -18 -5 -8 -9 -9 -9 -4 0 6 -4 5 -8 -1 -4 -6 -39 -32 -79 -58 -39 -25 -80 -58 -91 -73 -19 -26 -20 -27 -46 -9 -31 20 -48 17 -52 -8 -2 -14 4 -17 29 -15 18 2 49 -1 70 -5 33 -7 42 -5 65 16 35 33 176 130 227 157 43 23 34 29 -12 9 -48 -21 -200 -126 -221 -153 -11 -14 -29 -25 -41 -25 -29 0 -26 11 12 38 126 91 200 142 217 147 11 4 20 13 20 21 0 18 -3 18 -15 -1z m-315 -185 c8 -5 11 -10 5 -10 -5 0 -17 5 -25 10 -8 5 -10 10 -5 10 6 0 17 -5 25 -10z"></path> <path d="M3050 2130 c12 -8 12 -10 -5 -11 -15 0 -16 -2 -5 -6 8 -4 20 -12 25 -20 7 -10 10 -6 11 17 1 24 -3 30 -20 30 -17 0 -18 -2 -6 -10z"></path> <path d="M3095 2090 c-4 -6 1 -7 11 -3 12 4 15 3 10 -5 -5 -8 -2 -10 8 -6 11 4 16 0 17 -12 0 -14 2 -15 6 -5 3 8 -2 20 -13 28 -21 16 -31 16 -39 3z"></path> <path d="M2913 2037 c-78 -50 -164 -117 -149 -117 7 0 127 80 136 91 3 3 26 18 52 33 46 26 69 47 51 45 -4 0 -45 -24 -90 -52z"></path> <path d="M2974 2019 c-32 -18 -70 -40 -83 -50 -13 -11 -30 -19 -38 -19 -8 0 -11 -5 -8 -10 4 -6 -9 -17 -27 -25 -21 -9 -26 -14 -15 -15 11 0 30 9 44 20 14 11 30 17 36 13 6 -3 7 -1 3 5 -4 7 -2 12 5 12 6 0 38 18 71 40 32 23 62 38 67 36 4 -3 8 1 8 9 0 19 6 20 -63 -16z"></path> <path d="M3181 2024 c0 -11 3 -14 6 -6 3 7 2 16 -1 19 -3 4 -6 -2 -5 -13z"></path> <path d="M5925 2020 c-16 -4 -55 -8 -86 -9 -201 -4 -376 -100 -619 -339 -83 -81 -133 -121 -178 -144 -62 -31 -63 -31 -180 -25 -91 4 -348 46 -437 71 -5 1 -47 11 -92 21 -46 10 -83 22 -83 26 0 5 -7 6 -15 3 -8 -4 -15 -2 -15 4 0 5 -20 15 -45 22 -57 16 -60 49 -4 42 4 -1 21 3 38 8 19 5 31 5 31 -1 0 -5 5 -9 11 -9 5 0 7 5 3 12 -5 7 -3 8 5 3 7 -4 39 -7 71 -6 33 0 62 -3 65 -8 3 -5 14 -7 25 -4 12 3 20 0 20 -7 0 -7 6 -10 13 -7 7 2 23 -3 35 -13 23 -19 17 -31 -25 -44 -11 -4 -24 -14 -27 -22 -5 -12 -2 -15 11 -9 10 4 30 11 45 17 29 10 41 30 32 53 -9 22 -72 58 -90 51 -8 -3 -13 -2 -10 3 15 24 -171 29 -249 7 -28 -8 -74 -21 -104 -30 -52 -14 -59 -14 -155 9 -165 40 -269 62 -496 105 -118 22 -251 48 -295 56 -44 9 -87 16 -95 16 -8 0 -50 7 -93 15 -48 8 -83 10 -93 5 -13 -7 -10 -9 12 -10 16 0 56 -6 89 -12 33 -6 78 -14 100 -16 22 -3 44 -10 49 -15 6 -5 20 -9 32 -9 12 0 57 -9 100 -20 44 -10 96 -20 117 -22 28 -1 36 -6 32 -16 -4 -11 -2 -12 7 -4 13 10 167 -13 178 -27 3 -3 13 -6 23 -7 58 -3 67 -5 67 -19 0 -8 6 -15 13 -15 6 0 23 -3 37 -5 16 -3 12 0 -10 9 -26 11 -30 15 -14 15 35 1 164 -30 164 -40 0 -5 -5 -9 -12 -9 -6 0 -8 -3 -5 -6 4 -4 13 -1 22 6 9 8 25 10 42 5 16 -4 42 -9 60 -11 17 -2 44 -9 59 -14 20 -8 29 -8 34 0 7 11 60 9 90 -3 46 -19 139 -50 163 -54 15 -3 27 -9 27 -15 0 -5 6 -8 13 -6 6 1 25 -1 41 -6 24 -6 27 -9 15 -18 -11 -8 -11 -9 4 -4 9 3 24 9 34 13 11 4 14 3 9 -5 -4 -8 0 -12 11 -12 11 0 25 -6 32 -12 11 -11 12 -10 6 1 -6 11 -4 13 9 8 10 -4 24 -7 32 -7 9 0 13 -3 11 -7 -3 -5 17 -9 45 -10 27 -1 55 -6 62 -12 8 -6 20 -9 29 -5 8 3 29 -2 46 -10 35 -19 45 -20 36 -6 -8 13 47 1 55 -11 3 -4 11 -5 17 -1 18 11 94 2 86 -11 -4 -6 -1 -7 6 -3 7 5 28 8 48 8 25 0 32 3 22 9 -9 6 -4 7 16 3 24 -4 39 1 70 26 22 17 50 42 61 57 17 20 27 24 48 19 62 -15 77 -116 38 -254 -11 -40 -20 -76 -20 -80 1 -4 7 -34 14 -67 25 -116 15 -184 -38 -241 -13 -15 -16 -24 -8 -29 15 -9 37 11 44 41 4 14 11 22 17 19 5 -4 9 -3 8 2 -1 4 0 10 1 13 15 37 17 117 4 160 -19 67 -26 123 -15 129 5 3 11 29 14 56 3 28 10 62 15 75 5 14 8 34 7 45 -15 111 -16 115 -46 135 -16 12 -29 25 -29 29 0 14 136 141 210 197 107 80 237 155 295 170 72 20 90 16 25 -5 -142 -46 -295 -146 -448 -294 -55 -52 -61 -62 -46 -70 13 -8 22 -5 34 11 9 11 22 17 28 13 8 -5 5 -13 -9 -25 -12 -9 -18 -20 -15 -23 3 -4 14 1 24 10 48 45 62 57 62 52 0 -6 79 44 98 62 7 7 20 13 28 13 8 0 13 4 10 8 -3 5 11 14 30 21 18 7 34 17 34 22 0 6 4 7 10 4 5 -3 25 5 42 18 49 37 98 59 114 53 10 -4 12 -2 8 6 -5 8 -2 9 10 5 10 -4 15 -3 11 3 -3 5 9 14 27 19 18 5 25 10 16 10 -27 2 -157 -48 -228 -87 -61 -33 -189 -118 -200 -132 -8 -11 -48 -30 -62 -30 -18 1 32 42 137 112 108 72 235 137 254 130 8 -2 11 0 7 6 -3 6 19 17 55 28 43 13 55 20 42 25 -16 5 -59 -8 -153 -48 -89 -37 -263 -156 -369 -252 -19 -17 -37 -31 -40 -31 -3 1 36 41 88 91 53 50 101 87 108 85 7 -3 13 1 13 9 0 7 26 30 58 49 138 84 270 136 381 151 53 7 54 7 46 -16 -4 -13 -7 -52 -6 -86 2 -43 -3 -70 -13 -85 -9 -12 -16 -33 -16 -45 0 -13 -4 -23 -10 -23 -5 0 -7 -6 -4 -14 3 -7 -1 -20 -9 -28 -16 -15 -52 -124 -50 -148 2 -20 -16 -52 -27 -45 -5 3 -12 0 -16 -6 -4 -8 -3 -9 4 -5 15 9 15 1 1 -26 -9 -16 -8 -19 3 -13 10 6 11 5 1 -6 -7 -7 -13 -24 -13 -37 0 -13 -4 -21 -9 -18 -4 3 -6 -7 -4 -22 3 -15 4 -34 4 -42 -10 -180 -8 -225 11 -251 15 -19 19 -35 14 -54 -5 -21 0 -31 25 -54 31 -29 31 -29 14 -58 -15 -26 -16 -32 -2 -65 9 -20 13 -46 10 -58 -3 -11 1 -28 9 -38 9 -10 13 -29 10 -47 -2 -16 -5 -55 -6 -86 -1 -30 -6 -61 -11 -69 -5 -9 -4 -11 3 -6 7 4 12 1 13 -6 4 -67 3 -81 -7 -85 -15 -5 -109 22 -199 57 -80 32 -205 101 -251 139 -17 14 -48 40 -68 56 -21 17 -44 36 -51 43 -9 8 -16 9 -20 2 -9 -15 -22 -4 -50 40 -13 21 -37 51 -52 66 -15 15 -20 22 -10 14 15 -11 17 -11 11 5 -6 14 -3 16 17 10 23 -7 23 -6 5 7 -13 10 -34 13 -66 10 -32 -3 -51 0 -61 10 -8 8 -31 18 -52 22 -21 4 -37 13 -37 20 0 13 -77 32 -87 22 -2 -2 14 -7 36 -11 69 -11 50 -29 -21 -20 -100 13 -275 14 -337 3 -49 -9 -98 -24 -176 -54 -11 -4 -23 -6 -27 -6 -5 1 -8 -3 -8 -9 0 -5 -4 -7 -10 -4 -5 3 -10 2 -10 -4 0 -12 -37 -25 -65 -24 -17 2 -18 1 -2 -4 18 -5 18 -5 0 -19 -16 -13 -16 -13 9 -5 14 6 53 24 86 40 147 74 310 95 532 67 127 -17 193 -36 230 -68 8 -7 39 -42 68 -78 132 -162 302 -259 584 -331 90 -22 111 -20 107 13 -2 13 0 29 5 36 4 7 3 19 -3 26 -6 7 -9 21 -5 29 3 9 2 21 -2 28 -12 20 -10 80 4 91 16 14 15 58 -3 82 -8 11 -13 27 -10 36 3 9 -1 32 -9 51 -12 29 -12 38 0 59 20 36 17 58 -10 75 -16 11 -26 29 -30 58 -4 23 -14 49 -22 58 -8 9 -15 25 -14 35 1 37 10 190 14 229 5 63 26 138 43 157 9 10 13 26 10 39 -3 12 1 35 9 50 7 15 14 37 14 48 0 11 8 26 18 33 11 7 22 31 26 53 4 21 14 51 21 65 8 15 12 49 10 85 -2 33 0 64 4 70 7 9 24 77 18 74 -1 -1 -15 -5 -32 -9z m-1528 -306 c-3 -3 -12 -4 -19 -1 -8 3 -5 6 6 6 11 1 17 -2 13 -5z m648 -224 c-3 -5 -12 -10 -18 -10 -7 0 -6 4 3 10 19 12 23 12 15 0z m255 -790 c0 -5 -7 -7 -15 -4 -8 4 -12 10 -9 15 6 11 24 2 24 -11z m53 -44 c4 -10 1 -13 -8 -9 -8 3 -12 9 -9 14 7 12 11 11 17 -5z m42 -34 c-3 -3 -11 0 -18 7 -9 10 -8 11 6 5 10 -3 15 -9 12 -12z" class=""></path> <path d="M3020 1992 c-93 -49 -144 -82 -127 -82 18 0 199 99 182 100 -12 0 -36 -8 -55 -18z"></path> <path d="M3203 1998 c2 -14 -70 -53 -153 -82 -30 -10 -50 -21 -44 -23 12 -4 143 43 161 59 7 5 18 6 24 2 7 -4 9 -3 5 4 -3 6 3 17 14 25 11 7 17 17 13 20 -11 11 -23 8 -20 -5z"></path> <path d="M2388 1978 c5 -5 16 -8 23 -6 8 3 3 7 -10 11 -17 4 -21 3 -13 -5z"></path> <path d="M3070 1960 c-114 -42 -137 -53 -120 -57 9 -2 34 4 55 14 22 9 44 16 49 14 5 -1 16 5 25 12 17 16 61 32 74 29 5 -1 6 2 2 8 -3 5 -7 10 -8 9 -1 -1 -36 -13 -77 -29z"></path> <path d="M3245 1980 c3 -5 10 -10 16 -10 5 0 9 5 9 10 0 6 -7 10 -16 10 -8 0 -12 -4 -9 -10z"></path> <path d="M3280 1971 c0 -9 24 -21 43 -21 6 0 2 7 -9 15 -22 17 -34 19 -34 6z"></path> <path d="M2498 1963 c7 -3 16 -2 19 1 4 3 -2 6 -13 5 -11 0 -14 -3 -6 -6z"></path> <path d="M2548 1943 c7 -3 16 -2 19 1 4 3 -2 6 -13 5 -11 0 -14 -3 -6 -6z"></path> <path d="M3350 1942 c0 -14 24 -32 43 -32 10 0 21 -9 24 -20 6 -22 28 -27 39 -8 5 8 2 9 -10 5 -13 -5 -17 -3 -13 7 6 15 -12 26 -44 26 -10 0 -19 7 -19 15 0 8 -4 15 -10 15 -5 0 -10 -4 -10 -8z"></path> <path d="M1834 1929 c-4 -7 -24 -9 -52 -6 -27 3 -39 1 -31 -4 9 -6 -5 -9 -40 -9 -30 0 -52 -3 -48 -6 3 -4 44 -3 91 1 59 5 86 11 90 21 6 17 0 19 -10 3z"></path> <path d="M3155 1920 c-33 -10 -71 -23 -85 -29 -23 -10 -22 -11 10 -5 41 6 160 44 160 50 0 7 -24 3 -85 -16z"></path> <path d="M1580 1910 c0 -13 11 -13 30 0 12 8 11 10 -7 10 -13 0 -23 -4 -23 -10z"></path> <path d="M2118 1903 c7 -3 16 -2 19 1 4 3 -2 6 -13 5 -11 0 -14 -3 -6 -6z"></path> <path d="M2353 1903 c9 -2 25 -2 35 0 9 3 1 5 -18 5 -19 0 -27 -2 -17 -5z"></path> <path d="M1580 1890 c-23 -7 -23 -8 -3 -9 12 -1 25 4 28 9 3 6 5 10 3 9 -2 -1 -14 -5 -28 -9z"></path> <path d="M2008 1893 c6 -2 18 -2 25 0 6 3 1 5 -13 5 -14 0 -19 -2 -12 -5z"></path> <path d="M3225 1887 l30 -11 -30 -7 c-17 -5 -7 -5 25 -2 30 3 64 9 75 14 13 6 4 7 -26 3 -29 -4 -49 -2 -53 5 -4 6 -17 11 -29 10 -18 0 -17 -2 8 -12z"></path> <path d="M3125 1880 l-30 -8 30 0 c17 0 39 3 50 8 l20 9 -20 -1 c-11 0 -33 -4 -50 -8z"></path> <path d="M1490 1870 c-11 -7 -5 -8 20 -4 43 8 51 14 19 14 -13 0 -31 -5 -39 -10z"></path> <path d="M1710 1870 c0 -5 5 -10 10 -10 6 0 10 5 10 10 0 6 -4 10 -10 10 -5 0 -10 -4 -10 -10z"></path> <path d="M1848 1873 c6 -2 18 -2 25 0 6 3 1 5 -13 5 -14 0 -19 -2 -12 -5z"></path> <path d="M2100 1870 c0 -5 7 -10 15 -10 8 0 15 5 15 10 0 6 -7 10 -15 10 -8 0 -15 -4 -15 -10z"></path> <path d="M2622 1869 c2 -6 8 -10 13 -10 5 0 11 4 13 10 2 6 -4 11 -13 11 -9 0 -15 -5 -13 -11z"></path> <path d="M2685 1870 c3 -5 8 -10 11 -10 2 0 4 5 4 10 0 6 -5 10 -11 10 -5 0 -7 -4 -4 -10z"></path> <path d="M3350 1871 c0 -6 -10 -11 -22 -11 -13 0 -30 -5 -38 -10 -10 -7 -1 -8 30 -4 56 9 101 22 78 23 -9 1 -23 4 -32 7 -9 3 -16 1 -16 -5z"></path> <path d="M1420 1860 c-13 -9 -13 -10 0 -10 8 0 22 5 30 10 13 9 13 10 0 10 -8 0 -22 -5 -30 -10z"></path> <path d="M2718 1863 c7 -3 16 -2 19 1 4 3 -2 6 -13 5 -11 0 -14 -3 -6 -6z"></path> <path d="M2770 1851 c0 -16 28 -20 40 -5 10 12 8 14 -14 14 -14 0 -26 -4 -26 -9z"></path> <path d="M1305 1834 c-20 -15 -12 -17 19 -5 11 4 15 10 10 13 -5 4 -18 0 -29 -8z"></path> <path d="M1368 1843 c6 -2 18 -2 25 0 6 3 1 5 -13 5 -14 0 -19 -2 -12 -5z"></path> <path d="M1870 1840 c0 -5 6 -10 14 -10 8 0 18 5 21 10 3 6 -3 10 -14 10 -12 0 -21 -4 -21 -10z"></path> <path d="M2400 1840 c0 -5 6 -10 14 -10 8 0 18 5 21 10 3 6 -3 10 -14 10 -12 0 -21 -4 -21 -10z"></path> <path d="M2848 1843 c6 -2 18 -2 25 0 6 3 1 5 -13 5 -14 0 -19 -2 -12 -5z"></path> <path d="M2947 1834 c-12 -12 3 -22 24 -17 16 4 17 8 7 14 -16 10 -23 11 -31 3z"></path> <path d="M5770 1831 c0 -4 -25 -14 -55 -24 -62 -19 -208 -87 -213 -99 -2 -4 -8 -8 -14 -8 -11 0 -100 -59 -110 -74 -4 -6 -8 -7 -8 -2 0 5 -7 3 -15 -4 -8 -7 -12 -17 -8 -23 3 -6 1 -7 -5 -3 -14 8 -64 -23 -56 -35 3 -5 0 -9 -7 -9 -7 0 -10 -3 -7 -6 3 -3 46 21 95 54 117 78 256 154 359 196 62 24 79 35 64 39 -11 3 -20 2 -20 -2z"></path> <path d="M1565 1809 c-10 -15 -2 -19 23 -12 12 3 19 9 16 14 -7 12 -31 11 -39 -2z"></path> <path d="M3105 1810 c-3 -5 -1 -10 4 -10 6 0 11 5 11 10 0 6 -2 10 -4 10 -3 0 -8 -4 -11 -10z"></path> <path d="M3135 1805 c15 -7 159 -34 164 -30 5 6 -73 25 -125 30 -27 3 -44 3 -39 0z"></path> <path d="M2240 1790 c0 -5 7 -10 15 -10 8 0 15 5 15 10 0 6 -7 10 -15 10 -8 0 -15 -4 -15 -10z"></path> <path d="M2615 1790 c3 -5 10 -10 16 -10 5 0 9 5 9 10 0 6 -7 10 -16 10 -8 0 -12 -4 -9 -10z"></path> <path d="M1077 1779 c-9 -5 -22 -7 -29 -3 -6 4 -8 3 -5 -3 4 -6 18 -10 32 -10 13 0 22 3 20 7 -3 5 1 11 7 13 7 3 9 6 3 6 -5 0 -18 -4 -28 -10z"></path> <path d="M1222 1769 c-19 -30 -8 -34 12 -4 9 14 13 25 9 25 -5 0 -14 -9 -21 -21z"></path> <path d="M1275 1780 c-8 -13 5 -13 25 0 13 8 13 10 -2 10 -9 0 -20 -4 -23 -10z"></path> <path d="M5780 1783 c-42 -8 -171 -63 -250 -105 -117 -64 -268 -167 -246 -168 5 0 18 7 28 17 10 9 21 13 25 9 4 -3 -9 -20 -28 -36 -25 -22 -13 -17 48 19 131 77 325 170 398 190 58 16 72 28 31 27 -19 -1 -32 -3 -30 -5 3 -3 -35 -19 -83 -37 -95 -34 -213 -90 -274 -131 -21 -14 -44 -23 -50 -21 -13 4 160 108 180 108 6 0 11 4 11 8 0 13 90 53 102 46 6 -4 8 -3 5 2 -3 6 22 21 56 34 127 48 136 54 77 43z"></path> <path d="M3110 1770 c0 -5 4 -10 9 -10 6 0 13 5 16 10 3 6 -1 10 -9 10 -9 0 -16 -4 -16 -10z"></path> <path d="M5830 1776 c0 -2 8 -10 18 -17 15 -13 16 -12 3 4 -13 16 -21 21 -21 13z"></path> <path d="M1853 1763 c-24 -9 -14 -30 12 -25 14 2 25 11 25 18 0 14 -14 17 -37 7z"></path> <path d="M3398 1753 c7 -3 16 -2 19 1 4 3 -2 6 -13 5 -11 0 -14 -3 -6 -6z"></path> <path d="M3438 1748 c5 -5 16 -8 23 -6 8 3 3 7 -10 11 -17 4 -21 3 -13 -5z"></path> <path d="M1078 1744 c-4 -3 -12 -6 -20 -8 -17 -2 -56 -25 -43 -25 6 0 35 8 65 19 39 14 47 19 29 20 -14 0 -28 -3 -31 -6z"></path> <path d="M1140 1746 c0 -2 7 -6 15 -10 8 -3 15 -1 15 4 0 6 -7 10 -15 10 -8 0 -15 -2 -15 -4z"></path> <path d="M1700 1740 c0 -5 6 -10 14 -10 8 0 18 5 21 10 3 6 -3 10 -14 10 -12 0 -21 -4 -21 -10z"></path> <path d="M3330 1740 c0 -5 5 -10 10 -10 6 0 10 5 10 10 0 6 -4 10 -10 10 -5 0 -10 -4 -10 -10z"></path> <path d="M2990 1725 c0 -8 7 -15 15 -15 8 0 15 7 15 15 0 8 -7 15 -15 15 -8 0 -15 -7 -15 -15z"></path> <path d="M1200 1714 c0 -13 -3 -14 -14 -5 -9 8 -16 8 -20 2 -4 -5 0 -13 7 -18 8 -4 19 -21 25 -38 10 -28 10 -27 11 23 1 28 -1 52 -4 52 -3 0 -5 -7 -5 -16z"></path> <path d="M1336 1721 c-3 -5 0 -11 8 -14 15 -6 26 1 26 15 0 11 -27 10 -34 -1z"></path> <path d="M1920 1715 c0 -9 6 -12 15 -9 8 4 15 7 15 9 0 2 -7 5 -15 9 -9 3 -15 0 -15 -9z"></path> <path d="M2100 1720 c0 -5 7 -10 15 -10 8 0 15 5 15 10 0 6 -7 10 -15 10 -8 0 -15 -4 -15 -10z"></path> <path d="M2180 1720 c0 -5 9 -10 20 -10 11 0 20 5 20 10 0 6 -9 10 -20 10 -11 0 -20 -4 -20 -10z"></path> <path d="M3598 1718 c6 -6 18 -8 28 -6 14 3 12 5 -9 10 -19 3 -25 2 -19 -4z"></path> <path d="M2325 1710 c-3 -5 1 -10 9 -10 9 0 16 5 16 10 0 6 -4 10 -9 10 -6 0 -13 -4 -16 -10z"></path> <path d="M3125 1709 c-4 -6 -5 -13 -2 -16 7 -7 27 6 27 18 0 12 -17 12 -25 -2z"></path> <path d="M3332 1698 c5 -15 48 -18 48 -3 0 6 -11 11 -26 13 -18 3 -25 0 -22 -10z"></path> <path d="M1470 1690 c0 -5 7 -10 15 -10 8 0 15 5 15 10 0 6 -7 10 -15 10 -8 0 -15 -4 -15 -10z"></path> <path d="M3740 1690 c-9 -6 -10 -10 -3 -10 6 0 15 5 18 10 8 12 4 12 -15 0z"></path> <path d="M940 1665 c-20 -21 -33 -25 -81 -25 -32 0 -60 -3 -62 -7 -3 -5 17 -6 45 -4 28 2 55 -2 61 -8 6 -6 18 -11 26 -11 11 0 12 3 4 11 -8 8 -4 17 15 34 15 13 24 26 21 29 -3 3 -16 -5 -29 -19z"></path> <path d="M1340 1680 c-9 -6 -10 -10 -3 -10 6 0 15 5 18 10 8 12 4 12 -15 0z"></path> <path d="M2586 1681 c-3 -5 0 -11 8 -14 15 -6 26 1 26 15 0 11 -27 10 -34 -1z"></path> <path d="M2843 1683 c-18 -6 -16 -23 1 -23 17 0 30 16 19 23 -5 2 -14 2 -20 0z"></path> <path d="M4345 1681 c-6 -11 9 -23 19 -14 9 9 7 23 -3 23 -6 0 -12 -4 -16 -9z"></path> <path d="M990 1669 c0 -5 5 -7 10 -4 6 3 10 8 10 11 0 2 -4 4 -10 4 -5 0 -10 -5 -10 -11z"></path> <path d="M3665 1670 c3 -5 8 -10 11 -10 2 0 4 5 4 10 0 6 -5 10 -11 10 -5 0 -7 -4 -4 -10z"></path> <path d="M3770 1670 c0 -5 7 -10 15 -10 8 0 15 5 15 10 0 6 -7 10 -15 10 -8 0 -15 -4 -15 -10z"></path> <path d="M1400 1660 c0 -5 4 -10 9 -10 6 0 13 5 16 10 3 6 -1 10 -9 10 -9 0 -16 -4 -16 -10z"></path> <path d="M3210 1653 c0 -7 11 -13 26 -13 15 0 24 5 22 12 -6 16 -48 18 -48 1z"></path> <path d="M3520 1655 c0 -16 9 -19 34 -9 25 9 19 24 -9 24 -16 0 -25 -6 -25 -15z"></path> <path d="M5728 1663 c7 -3 16 -2 19 1 4 3 -2 6 -13 5 -11 0 -14 -3 -6 -6z"></path> <path d="M770 1645 c-8 -9 -8 -15 -2 -15 12 0 26 19 19 26 -2 2 -10 -2 -17 -11z"></path> <path d="M2740 1650 c0 -5 5 -10 10 -10 6 0 10 5 10 10 0 6 -4 10 -10 10 -5 0 -10 -4 -10 -10z"></path> <path d="M3883 1653 c9 -2 23 -2 30 0 6 3 -1 5 -18 5 -16 0 -22 -2 -12 -5z"></path> <path d="M4270 1650 c0 -5 9 -10 20 -10 11 0 20 5 20 10 0 6 -9 10 -20 10 -11 0 -20 -4 -20 -10z"></path> <path d="M5735 1649 c-16 -5 -41 -7 -55 -4 -20 5 -22 3 -10 -6 12 -8 9 -9 -12 -5 -19 4 -30 1 -36 -10 -5 -9 -21 -18 -35 -19 -30 -4 -245 -109 -267 -132 -8 -8 23 4 70 27 120 60 304 130 405 153 16 4 15 5 -5 5 -14 0 -38 -4 -55 -9z"></path> <path d="M2053 1635 c-8 -21 -2 -24 25 -14 13 5 20 13 17 19 -9 15 -35 12 -42 -5z"></path> <path d="M3932 1638 c3 -7 19 -14 36 -16 25 -3 31 0 26 12 -7 19 -68 23 -62 4z"></path> <path d="M1810 1630 c0 -5 9 -10 20 -10 11 0 20 5 20 10 0 6 -9 10 -20 10 -11 0 -20 -4 -20 -10z"></path> <path d="M1905 1630 c4 -6 11 -8 16 -5 14 9 11 15 -7 15 -8 0 -12 -5 -9 -10z"></path> <path d="M719 1619 c-8 -5 -9 -9 -4 -10 6 0 -7 -7 -29 -15 -21 -7 -43 -11 -50 -7 -8 4 -8 3 0 -6 13 -14 72 3 92 27 6 9 12 11 12 6 0 -6 14 -11 30 -11 35 0 34 5 -7 16 -17 5 -36 5 -44 0z"></path> <path d="M980 1620 c0 -5 4 -10 9 -10 6 0 13 5 16 10 3 6 -1 10 -9 10 -9 0 -16 -4 -16 -10z"></path> <path d="M1680 1620 c0 -6 7 -10 15 -10 8 0 15 2 15 4 0 2 -7 6 -15 10 -8 3 -15 1 -15 -4z"></path> <path d="M4358 1623 c7 -3 16 -2 19 1 4 3 -2 6 -13 5 -11 0 -14 -3 -6 -6z"></path> <path d="M4028 1613 c7 -3 16 -2 19 1 4 3 -2 6 -13 5 -11 0 -14 -3 -6 -6z"></path> <path d="M1095 1600 c19 -8 83 -14 74 -6 -2 2 -24 6 -49 9 -30 4 -38 3 -25 -3z"></path> <path d="M1610 1600 c0 -5 6 -10 14 -10 8 0 18 5 21 10 3 6 -3 10 -14 10 -12 0 -21 -4 -21 -10z"></path> <path d="M3837 1604 c-14 -14 -6 -24 19 -24 16 0 24 5 22 13 -5 14 -31 21 -41 11z"></path> <path d="M1191 1591 c-8 -5 -9 -11 -3 -15 5 -3 12 1 16 9 6 17 6 18 -13 6z"></path> <path d="M1318 1570 c-3 -17 -1 -33 4 -36 4 -3 8 11 8 30 0 44 -6 47 -12 6z"></path> <path d="M4095 1590 c-3 -5 -1 -10 4 -10 6 0 11 5 11 10 0 6 -2 10 -4 10 -3 0 -8 -4 -11 -10z"></path> <path d="M5676 1588 c3 -4 -8 -10 -23 -14 -97 -21 -319 -110 -353 -141 -13 -12 -13 -13 4 -7 11 4 38 17 60 29 42 22 279 103 376 129 l55 14 -61 -1 c-34 -1 -60 -5 -58 -9z"></path> <path d="M3725 1580 c3 -5 10 -10 16 -10 5 0 9 5 9 10 0 6 -7 10 -16 10 -8 0 -12 -4 -9 -10z"></path> <path d="M4155 1580 c3 -5 8 -10 11 -10 2 0 4 5 4 10 0 6 -5 10 -11 10 -5 0 -7 -4 -4 -10z"></path> <path d="M593 1560 c-3 -11 -12 -20 -20 -20 -8 0 -12 -4 -8 -9 5 -10 65 18 65 30 0 4 -7 10 -16 13 -11 4 -18 -1 -21 -14z"></path> <path d="M1210 1568 c0 -9 7 -19 16 -22 15 -6 15 -4 3 11 -7 10 -15 20 -16 22 -2 2 -3 -3 -3 -11z"></path> <path d="M3045 1570 c3 -5 12 -7 20 -3 21 7 19 13 -6 13 -11 0 -18 -4 -14 -10z"></path> <path d="M4190 1570 c8 -5 22 -9 30 -9 10 0 8 3 -5 9 -27 12 -43 12 -25 0z"></path> <path d="M980 1554 c0 -11 5 -14 16 -10 9 3 20 6 25 6 5 0 9 5 9 10 0 6 -11 10 -25 10 -16 0 -25 -6 -25 -16z"></path> <path d="M1400 1556 c0 -9 5 -16 10 -16 6 0 10 4 10 9 0 6 -4 13 -10 16 -5 3 -10 -1 -10 -9z"></path> <path d="M3250 1562 c0 -14 11 -21 26 -15 21 8 17 23 -6 23 -11 0 -20 -4 -20 -8z"></path> <path d="M3965 1559 c-10 -15 1 -23 20 -15 9 3 13 10 10 16 -8 13 -22 13 -30 -1z"></path> <path d="M1061 1510 c-6 -28 -11 -60 -11 -70 0 -21 15 -27 25 -10 3 6 1 10 -5 10 -8 0 -9 11 -5 31 4 17 8 38 9 45 1 7 5 17 9 20 10 10 9 24 -2 24 -5 0 -14 -23 -20 -50z"></path> <path d="M1247 1541 c-3 -11 -2 -21 2 -21 8 0 63 -116 76 -157 3 -12 33 -52 65 -87 33 -36 67 -80 76 -98 25 -48 20 -110 -13 -176 -29 -59 -146 -191 -195 -220 -15 -9 -28 -20 -28 -25 0 -15 40 14 112 83 40 38 78 70 84 70 24 0 109 119 102 142 -2 6 -16 -9 -30 -34 -15 -24 -35 -51 -44 -59 -10 -8 -4 7 14 32 17 26 29 48 27 51 -2 2 0 20 4 39 5 21 4 44 -1 53 -6 10 -7 20 -4 23 3 3 12 -10 20 -28 12 -29 14 -31 15 -11 1 32 -71 140 -90 135 -5 -2 -6 3 -4 10 4 11 -37 67 -50 67 -3 0 2 -12 12 -27 16 -26 16 -27 0 -14 -9 7 -24 37 -34 67 -9 30 -20 54 -25 54 -5 0 -6 10 -3 23 2 12 0 38 -5 57 -8 31 -9 29 -4 -15 7 -60 -3 -54 -44 29 -24 48 -30 55 -35 37z"></path> <path d="M3388 1553 c6 -2 18 -2 25 0 6 3 1 5 -13 5 -14 0 -19 -2 -12 -5z"></path> <path d="M3490 1550 c0 -5 7 -10 15 -10 8 0 15 5 15 10 0 6 -7 10 -15 10 -8 0 -15 -4 -15 -10z"></path> <path d="M4248 1553 c7 -3 16 -2 19 1 4 3 -2 6 -13 5 -11 0 -14 -3 -6 -6z"></path> <path d="M5662 1534 c-104 -23 -233 -65 -309 -101 -75 -36 -102 -56 -35 -27 82 37 237 86 354 114 68 16 107 28 88 28 -19 0 -63 -6 -98 -14z"></path> <path d="M1345 1530 c-3 -5 1 -10 9 -10 8 0 18 5 21 10 3 6 -1 10 -9 10 -8 0 -18 -4 -21 -10z"></path> <path d="M4350 1530 c0 -5 5 -10 11 -10 5 0 7 5 4 10 -3 6 -8 10 -11 10 -2 0 -4 -4 -4 -10z"></path> <path d="M5175 1530 c3 -5 8 -10 11 -10 2 0 4 5 4 10 0 6 -5 10 -11 10 -5 0 -7 -4 -4 -10z"></path> <path d="M544 1522 c4 -8 0 -12 -12 -12 -11 0 -31 -11 -44 -25 -14 -14 -32 -24 -39 -22 -8 2 -11 2 -6 0 4 -3 5 -8 3 -12 -3 -4 4 -7 14 -7 10 0 18 5 17 10 -1 6 13 18 32 28 45 23 56 34 40 43 -8 5 -10 4 -5 -3z"></path> <path d="M1120 1519 c0 -5 -4 -8 -8 -5 -4 2 -8 -3 -9 -12 -1 -9 -6 -37 -11 -61 -11 -47 -3 -79 29 -116 9 -11 31 -45 48 -75 17 -30 31 -50 30 -45 0 11 -20 50 -62 122 -37 62 -43 100 -23 147 13 32 20 37 43 34 26 -3 43 -21 131 -134 l22 -29 -22 45 c-12 25 -21 48 -20 53 1 4 -3 7 -9 7 -6 0 -8 7 -5 16 3 8 2 12 -4 9 -11 -7 -42 19 -35 29 3 3 2 4 -1 1 -4 -2 -13 2 -21 10 -17 17 -73 20 -73 4z"></path> <path d="M1790 1525 c-8 -2 -75 -9 -147 -16 -73 -7 -133 -17 -133 -22 0 -5 15 -7 33 -3 46 8 378 36 472 39 44 2 15 3 -65 4 -80 0 -152 -1 -160 -2z"></path> <path d="M4400 1520 c-24 -6 -23 -7 9 -13 39 -8 44 -6 27 8 -6 6 -22 8 -36 5z"></path> <path d="M4233 1513 c-18 -6 -16 -23 1 -23 17 0 30 16 19 23 -5 2 -14 2 -20 0z"></path> <path d="M680 1499 l-45 -7 45 0 c50 1 98 -17 118 -44 7 -9 19 -23 26 -31 7 -7 26 -39 41 -71 23 -48 26 -67 23 -114 -3 -32 -9 -66 -13 -77 -7 -18 -6 -18 16 3 21 19 24 32 23 85 -1 50 -7 75 -34 127 -19 36 -35 68 -36 73 -1 4 -2 10 -3 15 -1 4 -6 0 -11 -8 -8 -13 -12 -12 -25 8 -9 12 -23 22 -31 22 -8 0 -14 4 -14 9 0 13 -30 17 -80 10z"></path> <path d="M849 1489 l-24 -20 30 17 c39 24 40 24 28 24 -6 0 -21 -9 -34 -21z"></path> <path d="M4120 1494 c0 -10 7 -14 22 -12 32 5 35 28 4 28 -17 0 -26 -5 -26 -16z"></path> <path d="M4308 1503 c7 -3 16 -2 19 1 4 3 -2 6 -13 5 -11 0 -14 -3 -6 -6z"></path> <path d="M5645 1490 c-87 -17 -318 -89 -353 -110 -26 -15 -11 -12 59 11 35 11 75 23 89 25 14 2 36 9 50 14 39 15 220 60 241 60 10 0 21 5 24 10 8 13 -2 12 -110 -10z" class=""></path> <path d="M910 1492 c0 -4 14 -13 31 -19 31 -12 31 -12 14 7 -18 20 -45 27 -45 12z"></path> <path d="M1430 1490 c0 -5 7 -7 15 -4 8 4 15 8 15 10 0 2 -7 4 -15 4 -8 0 -15 -4 -15 -10z"></path> <path d="M4472 1488 c7 -19 117 -17 131 2 9 12 8 13 -2 4 -8 -7 -27 -8 -54 -3 -60 12 -79 11 -75 -3z"></path> <path d="M1455 1477 c-16 -13 -15 -14 13 -9 18 2 29 8 26 13 -7 12 -17 11 -39 -4z"></path> <path d="M3817 1484 c-4 -4 -7 -11 -7 -16 0 -13 50 -6 53 7 2 12 -36 19 -46 9z"></path> <path d="M980 1472 c0 -6 11 -23 25 -38 19 -21 25 -37 23 -70 -1 -44 3 -51 82 -137 19 -21 43 -53 52 -70 17 -31 17 -31 17 -7 1 30 -30 98 -56 125 -22 24 -53 86 -53 108 0 22 -20 32 -20 10 -1 -11 -6 -6 -15 14 -16 36 -55 83 -55 65z m98 -162 c9 -14 24 -33 34 -43 10 -10 18 -22 18 -27 0 -14 -53 42 -71 75 -9 17 -14 37 -10 45 4 12 6 11 9 -5 2 -10 11 -31 20 -45z"></path> <path d="M4610 1470 c0 -5 17 -10 38 -9 33 1 34 2 12 9 -36 11 -50 11 -50 0z"></path> <path d="M888 1463 c-23 -6 -23 -24 3 -84 24 -55 37 -62 15 -8 -30 75 -30 79 3 79 23 0 42 -11 72 -41 26 -26 36 -32 28 -17 -12 23 -59 68 -71 68 -3 0 -12 2 -20 4 -7 2 -21 2 -30 -1z"></path> <path d="M1365 1450 c4 -6 11 -8 16 -5 14 9 11 15 -7 15 -8 0 -12 -5 -9 -10z"></path> <path d="M3945 1450 c-3 -5 1 -10 9 -10 9 0 16 5 16 10 0 6 -4 10 -9 10 -6 0 -13 -4 -16 -10z"></path> <path d="M4763 1453 c9 -2 23 -2 30 0 6 3 -1 5 -18 5 -16 0 -22 -2 -12 -5z"></path> <path d="M4849 1444 c21 -15 24 -15 39 0 15 15 13 16 -23 16 -39 0 -39 0 -16 -16z"></path> <path d="M5005 1450 c-3 -5 1 -10 9 -10 9 0 16 5 16 10 0 6 -4 10 -9 10 -6 0 -13 -4 -16 -10z"></path> <path d="M404 1435 c-10 -8 -14 -14 -9 -15 15 0 40 18 34 24 -3 3 -14 -1 -25 -9z"></path> <path d="M723 1430 c14 -11 30 -20 37 -20 6 0 8 -5 4 -12 -5 -7 -3 -8 6 -3 10 6 12 4 7 -8 -3 -8 1 -21 9 -27 11 -10 14 -9 14 6 0 18 -39 78 -40 61 0 -5 -7 -1 -16 7 -8 9 -22 16 -31 16 -11 0 -8 -6 10 -20z"></path> <path d="M1145 1439 c-7 -10 32 -126 44 -133 4 -3 7 4 7 14 0 10 -4 16 -9 13 -5 -3 -6 4 -2 17 5 17 4 21 -6 15 -9 -6 -11 -3 -6 8 3 10 2 17 -3 17 -6 0 -10 7 -10 15 0 8 5 15 11 15 15 0 119 -110 119 -126 0 -8 16 -31 36 -51 64 -67 76 -116 48 -200 -36 -108 -106 -175 -204 -194 l-35 -7 36 -1 c53 -2 139 46 170 94 63 97 76 207 33 271 -15 21 -30 41 -34 44 -3 3 -25 32 -47 65 -40 60 -114 135 -132 135 -6 0 -13 -5 -16 -11z"></path> <path d="M5605 1429 c-83 -11 -155 -27 -259 -57 -107 -31 -100 -41 10 -13 134 33 295 63 315 58 11 -3 17 -1 14 3 -3 5 12 11 32 13 35 3 35 4 -7 4 -25 0 -72 -3 -105 -8z"></path> <path d="M590 1419 c0 -5 -6 -6 -14 -3 -8 3 -17 0 -22 -7 -5 -8 -3 -10 7 -4 8 5 2 -4 -13 -20 -16 -15 -28 -33 -28 -41 0 -7 -4 -14 -10 -16 -6 -2 -4 -14 4 -30 8 -15 12 -29 8 -32 -3 -3 0 -6 7 -6 6 0 16 -11 21 -24 7 -19 18 -26 52 -30 84 -10 117 -12 112 -4 -5 8 36 34 48 30 5 -1 7 1 7 6 -3 19 2 25 12 12 9 -13 10 -13 7 0 -1 8 6 30 16 48 14 27 20 31 32 22 7 -7 19 -30 26 -51 6 -22 13 -37 16 -34 9 8 -28 92 -49 111 -18 16 -19 16 -13 1 4 -12 1 -17 -11 -17 -9 0 -13 -4 -10 -10 3 -5 1 -18 -4 -27 -9 -15 -10 -12 -11 17 0 23 -11 49 -30 74 -17 22 -30 36 -30 32 0 -3 -10 -2 -22 4 -22 11 -22 10 -4 -4 11 -9 23 -16 28 -16 14 0 38 -59 38 -95 0 -47 -45 -96 -87 -94 -23 1 -24 3 -6 6 35 7 73 59 73 99 0 37 -25 84 -44 84 -7 0 -18 6 -24 13 -15 14 -82 19 -82 6z m102 -49 c44 -54 3 -140 -67 -140 -77 0 -114 92 -59 147 22 22 32 25 67 20 26 -4 49 -14 59 -27z"></path> <path d="M577 1362 c-26 -28 -22 -78 7 -98 33 -21 65 -15 89 18 17 23 19 33 11 55 -9 28 -47 47 -42 21 2 -7 -6 -13 -17 -13 -13 0 -20 6 -19 18 2 22 -9 22 -29 -1z m34 -42 c30 -22 30 -50 -2 -50 -19 0 -39 27 -39 54 0 21 6 20 41 -4z m41 -32 c-7 -7 -10 -5 -7 8 5 29 6 30 12 16 3 -8 1 -18 -5 -24z"></path> <path d="M4355 1420 c3 -5 10 -10 16 -10 5 0 9 5 9 10 0 6 -7 10 -16 10 -8 0 -12 -4 -9 -10z"></path> <path d="M5048 1393 c7 -3 16 -2 19 1 4 3 -2 6 -13 5 -11 0 -14 -3 -6 -6z"></path> <path d="M422 1367 c-12 -13 -19 -27 -15 -30 4 -4 -18 -33 -48 -64 -30 -32 -43 -48 -29 -38 39 31 115 113 115 125 0 3 4 11 8 18 14 21 -8 13 -31 -11z"></path> <path d="M5170 1380 c0 -5 5 -10 10 -10 6 0 10 5 10 10 0 6 -4 10 -10 10 -5 0 -10 -4 -10 -10z"></path> <path d="M5575 1379 c-115 -12 -316 -52 -303 -61 7 -3 15 -5 18 -3 3 1 25 6 50 9 25 3 108 15 185 26 77 11 157 20 178 20 20 0 37 5 37 10 0 11 -49 11 -165 -1z"></path> <path d="M2008 1373 c7 -3 16 -2 19 1 4 3 -2 6 -13 5 -11 0 -14 -3 -6 -6z"></path> <path d="M4590 1371 c0 -11 21 -19 38 -14 21 8 13 23 -13 23 -14 0 -25 -4 -25 -9z"></path> <path d="M4915 1370 c-8 -13 20 -24 41 -16 20 8 9 26 -16 26 -10 0 -22 -5 -25 -10z"></path> <path d="M464 1345 c-3 -14 -10 -23 -14 -20 -10 6 -20 -20 -20 -54 0 -31 41 -75 80 -85 18 -5 14 -1 -11 13 -20 11 -40 28 -45 38 -10 25 -12 73 -2 73 4 0 8 -9 8 -21 0 -36 29 -78 54 -79 5 0 -2 9 -15 21 -20 18 -24 29 -22 80 1 63 -3 74 -13 34z"></path> <path d="M1665 1360 l-100 -6 95 -1 c52 0 140 3 195 7 l100 7 -95 -1 c-52 0 -140 -3 -195 -6z"></path> <path d="M1405 1350 c-3 -5 1 -10 9 -10 9 0 16 5 16 10 0 6 -4 10 -9 10 -6 0 -13 -4 -16 -10z"></path> <path d="M1513 1353 c9 -2 23 -2 30 0 6 3 -1 5 -18 5 -16 0 -22 -2 -12 -5z"></path> <path d="M2688 1353 c6 -2 18 -2 25 0 6 3 1 5 -13 5 -14 0 -19 -2 -12 -5z"></path> <path d="M2768 1353 c6 -2 18 -2 25 0 6 3 1 5 -13 5 -14 0 -19 -2 -12 -5z"></path> <path d="M2810 1357 c3 -3 158 -10 345 -16 489 -16 901 -42 1098 -67 26 -4 47 -4 47 -2 0 5 -149 26 -235 34 -22 2 -67 6 -100 9 -33 4 -96 9 -140 11 -44 2 -107 6 -140 9 -183 14 -885 32 -875 22z"></path> <path d="M4785 1350 c-3 -5 -2 -10 4 -10 5 0 13 5 16 10 3 6 2 10 -4 10 -5 0 -13 -4 -16 -10z"></path> <path d="M357 1311 c-24 -28 -68 -55 -170 -101 -26 -12 -46 -24 -44 -26 2 -3 17 2 33 11 16 8 54 24 84 35 45 17 140 88 140 105 0 14 -21 2 -43 -24z"></path> <path d="M5150 1325 c0 -9 9 -15 25 -15 16 0 25 6 25 15 0 9 -9 15 -25 15 -16 0 -25 -6 -25 -15z"></path> <path d="M5545 1333 c-16 -2 -86 -11 -155 -19 -124 -15 -161 -24 -104 -24 34 0 421 38 444 44 20 5 -146 4 -185 -1z"></path> <path d="M953 1315 c-3 -9 -3 -19 1 -22 3 -4 6 1 6 10 0 8 6 18 13 20 9 4 9 6 -1 6 -7 1 -15 -6 -19 -14z"></path> <path d="M2408 1323 c7 -3 16 -2 19 1 4 3 -2 6 -13 5 -11 0 -14 -3 -6 -6z"></path> <path d="M2810 1321 c185 -5 344 -11 355 -14 11 -3 110 -9 220 -12 110 -4 227 -8 260 -10 157 -7 352 -18 372 -20 12 -1 26 1 32 5 11 6 -205 22 -564 40 -99 5 -367 12 -595 14 l-415 4 335 -7z" class=""></path> <path d="M1001 1295 c0 -18 33 -73 75 -122 23 -26 53 -61 67 -78 14 -16 28 -27 31 -24 3 3 -21 34 -55 70 -63 66 -103 131 -91 144 4 5 2 5 -5 2 -6 -4 -14 -1 -16 5 -3 7 -6 9 -6 3z"></path> <path d="M5480 1288 c-189 -12 -177 -17 24 -12 99 3 187 9 195 14 18 10 -32 10 -219 -2z"></path> <path d="M1200 1287 c0 -1 5 -18 10 -37 23 -75 10 -142 -39 -202 -8 -10 -10 -18 -4 -18 15 0 44 35 36 43 -3 4 1 13 9 20 25 20 31 80 13 142 -9 30 -18 55 -21 55 -2 0 -4 -1 -4 -3z"></path> <path d="M932 1255 c0 -16 2 -22 5 -12 2 9 2 23 0 30 -3 6 -5 -1 -5 -18z"></path> <path d="M951 1264 c0 -11 3 -14 6 -6 3 7 2 16 -1 19 -3 4 -6 -2 -5 -13z"></path> <path d="M1550 1270 c0 -5 12 -10 26 -10 14 0 23 4 19 10 -3 6 -15 10 -26 10 -10 0 -19 -4 -19 -10z"></path> <path d="M1707 1263 c-11 -11 -8 -21 9 -27 19 -7 47 12 38 25 -6 11 -38 12 -47 2z"></path> <path d="M2320 1260 c0 -5 9 -10 20 -10 11 0 20 5 20 10 0 6 -9 10 -20 10 -11 0 -20 -4 -20 -10z"></path> <path d="M4095 1260 c11 -5 51 -9 88 -9 39 -1 66 -5 62 -10 -3 -6 12 -8 35 -7 22 2 40 -1 40 -5 0 -5 7 -9 15 -9 23 0 18 17 -8 24 -31 7 -196 26 -227 25 -23 0 -23 -1 -5 -9z"></path> <path d="M4328 1263 c7 -3 16 -2 19 1 4 3 -2 6 -13 5 -11 0 -14 -3 -6 -6z"></path> <path d="M5300 1250 c-14 -5 76 -8 203 -9 125 -1 227 2 227 7 0 10 -398 12 -430 2z"></path> <path d="M344 1219 c-20 -22 -23 -28 -8 -19 18 11 50 50 41 50 -2 0 -16 -14 -33 -31z"></path> <path d="M404 1221 c9 -16 22 -31 31 -35 12 -4 13 -2 5 12 -30 52 -61 72 -36 23z"></path> <path d="M1880 1230 c0 -5 9 -10 20 -10 11 0 20 5 20 10 0 6 -9 10 -20 10 -11 0 -20 -4 -20 -10z"></path> <path d="M4380 1221 c41 -13 106 -23 97 -15 -8 9 -22 12 -82 19 -30 3 -34 2 -15 -4z"></path> <path d="M5325 1220 c28 -5 93 -9 145 -10 52 -1 115 -4 140 -8 25 -4 63 -5 85 -2 l40 6 -55 7 c-83 9 -414 16 -355 7z"></path> <path d="M270 1210 c-8 -5 -10 -10 -5 -10 6 0 17 5 25 10 8 5 11 10 5 10 -5 0 -17 -5 -25 -10z"></path> <path d="M740 1210 c-9 -6 -10 -10 -3 -10 6 0 15 5 18 10 8 12 4 12 -15 0z"></path> <path d="M2155 1210 c-3 -5 3 -10 14 -10 11 0 23 5 26 10 3 6 -3 10 -14 10 -11 0 -23 -4 -26 -10z"></path> <path d="M1560 1200 c-13 -8 -12 -10 3 -10 9 0 17 5 17 10 0 12 -1 12 -20 0z"></path> <path d="M5288 1199 c9 -8 352 -40 407 -38 61 2 -142 28 -287 36 -70 5 -124 5 -120 2z" class=""></path> <path d="M3075 1190 c-3 -5 3 -10 14 -10 12 0 21 5 21 10 0 6 -6 10 -14 10 -8 0 -18 -4 -21 -10z"></path> <path d="M4528 1193 c6 -2 18 -2 25 0 6 3 1 5 -13 5 -14 0 -19 -2 -12 -5z"></path> <path d="M4595 1186 c17 -9 39 -15 49 -16 23 0 17 9 -10 15 -70 16 -70 16 -39 1z"></path> <path d="M665 1180 c-13 -6 -15 -9 -5 -9 8 0 22 4 30 9 18 12 2 12 -25 0z"></path> <path d="M2600 1175 c0 -12 7 -15 25 -13 14 2 26 8 26 13 0 6 -12 11 -26 13 -18 2 -25 -1 -25 -13z"></path> <path d="M3218 1183 c7 -3 16 -2 19 1 4 3 -2 6 -13 5 -11 0 -14 -3 -6 -6z"></path> <path d="M3315 1180 c3 -5 10 -10 16 -10 5 0 9 5 9 10 0 6 -7 10 -16 10 -8 0 -12 -4 -9 -10z"></path> <path d="M3970 1180 c0 -5 5 -10 10 -10 6 0 10 5 10 10 0 6 -4 10 -10 10 -5 0 -10 -4 -10 -10z"></path> <path d="M5688 1183 c7 -3 16 -2 19 1 4 3 -2 6 -13 5 -11 0 -14 -3 -6 -6z"></path> <path d="M240 1176 c0 -2 8 -10 18 -17 15 -13 16 -12 3 4 -13 16 -21 21 -21 13z"></path> <path d="M2990 1170 c0 -5 5 -10 10 -10 6 0 10 5 10 10 0 6 -4 10 -10 10 -5 0 -10 -4 -10 -10z"></path> <path d="M5290 1177 c9 -10 309 -48 352 -45 26 2 -24 11 -122 22 -91 10 -181 20 -200 23 -19 3 -33 3 -30 0z"></path> <path d="M130 1161 c0 -11 29 -35 35 -29 2 2 -4 12 -15 21 -11 9 -20 13 -20 8z"></path> <path d="M936 1142 l-19 -27 24 22 c12 12 21 24 18 27 -2 2 -13 -8 -23 -22z"></path> <path d="M3038 1163 c7 -3 16 -2 19 1 4 3 -2 6 -13 5 -11 0 -14 -3 -6 -6z"></path> <path d="M4725 1160 c3 -5 10 -10 16 -10 5 0 9 5 9 10 0 6 -7 10 -16 10 -8 0 -12 -4 -9 -10z"></path> <path d="M1251 1144 c0 -11 3 -14 6 -6 3 7 2 16 -1 19 -3 4 -6 -2 -5 -13z"></path> <path d="M2270 1150 c0 -5 7 -10 16 -10 8 0 12 5 9 10 -3 6 -10 10 -16 10 -5 0 -9 -4 -9 -10z"></path> <path d="M5272 1148 c2 -6 11 -13 19 -16 12 -3 12 -2 0 6 -11 8 -10 11 5 15 16 4 15 5 -4 6 -14 1 -22 -4 -20 -11z"></path> <path d="M5326 1150 c17 -14 373 -75 396 -68 7 3 -48 14 -122 26 -74 12 -168 28 -209 36 -40 8 -69 11 -65 6z"></path> <path d="M290 1140 c0 -5 5 -10 11 -10 5 0 7 5 4 10 -3 6 -8 10 -11 10 -2 0 -4 -4 -4 -10z"></path> <path d="M3630 1140 c0 -5 9 -10 20 -10 11 0 20 5 20 10 0 6 -9 10 -20 10 -11 0 -20 -4 -20 -10z"></path> <path d="M4390 1140 c0 -5 9 -10 20 -10 11 0 20 5 20 10 0 6 -9 10 -20 10 -11 0 -20 -4 -20 -10z"></path> <path d="M4760 1146 c0 -8 51 -13 56 -5 3 5 -9 9 -25 9 -17 0 -31 -2 -31 -4z"></path> <path d="M4970 1140 c0 -5 5 -10 10 -10 6 0 10 5 10 10 0 6 -4 10 -10 10 -5 0 -10 -4 -10 -10z"></path> <path d="M1930 1130 c0 -5 7 -10 15 -10 8 0 15 5 15 10 0 6 -7 10 -15 10 -8 0 -15 -4 -15 -10z"></path> <path d="M3840 1130 c0 -5 9 -10 20 -10 11 0 20 5 20 10 0 6 -9 10 -20 10 -11 0 -20 -4 -20 -10z"></path> <path d="M846 1118 c3 -4 11 -8 19 -8 8 0 16 4 19 8 2 4 -6 8 -19 8 -13 0 -21 -4 -19 -8z"></path> <path d="M4848 1123 c7 -3 16 -2 19 1 4 3 -2 6 -13 5 -11 0 -14 -3 -6 -6z"></path> <path d="M5135 1120 c-3 -5 1 -10 9 -10 9 0 16 5 16 10 0 6 -4 10 -9 10 -6 0 -13 -4 -16 -10z"></path> <path d="M5318 1123 c6 -2 18 -2 25 0 6 3 1 5 -13 5 -14 0 -19 -2 -12 -5z"></path> <path d="M5698 1123 c7 -3 16 -2 19 1 4 3 -2 6 -13 5 -11 0 -14 -3 -6 -6z"></path> <path d="M398 1113 c7 -3 16 -2 19 1 4 3 -2 6 -13 5 -11 0 -14 -3 -6 -6z"></path> <path d="M2425 1110 c4 -6 11 -8 16 -5 14 9 11 15 -7 15 -8 0 -12 -5 -9 -10z"></path> <path d="M3190 1110 c0 -5 9 -10 20 -10 11 0 20 5 20 10 0 6 -9 10 -20 10 -11 0 -20 -4 -20 -10z"></path> <path d="M4585 1110 c4 -6 11 -8 16 -5 14 9 11 15 -7 15 -8 0 -12 -5 -9 -10z"></path> <path d="M4914 1109 c22 -5 43 -6 47 -2 4 5 -13 9 -39 10 l-47 1 39 -9z"></path> <path d="M5290 1111 c32 -19 343 -101 387 -101 10 0 24 -5 31 -12 9 -9 15 -9 24 0 8 8 1 13 -30 18 -23 4 -42 11 -42 16 0 6 -6 8 -14 5 -12 -5 -111 18 -351 79 -16 4 -17 3 -5 -5z"></path> <path d="M5365 1115 c18 -8 239 -57 293 -64 28 -4 52 -5 52 -1 0 3 -66 19 -147 34 -167 31 -213 38 -198 31z"></path> <path d="M438 1103 c7 -3 16 -2 19 1 4 3 -2 6 -13 5 -11 0 -14 -3 -6 -6z"></path> <path d="M1262 1085 c0 -16 2 -22 5 -12 2 9 2 23 0 30 -3 6 -5 -1 -5 -18z"></path> <path d="M500 1089 c39 -14 153 -38 146 -31 -8 8 -136 42 -156 41 -8 0 -4 -5 10 -10z"></path> <path d="M810 1090 c0 -5 7 -10 16 -10 8 0 12 5 9 10 -3 6 -10 10 -16 10 -5 0 -9 -4 -9 -10z"></path> <path d="M2980 1090 c-13 -9 -13 -11 0 -20 8 -5 17 -10 20 -10 3 0 12 5 20 10 13 9 13 11 0 20 -8 5 -17 10 -20 10 -3 0 -12 -5 -20 -10z"></path> <path d="M3470 1090 c0 -5 6 -10 14 -10 8 0 18 5 21 10 3 6 -3 10 -14 10 -12 0 -21 -4 -21 -10z"></path> <path d="M4095 1091 c-3 -5 -1 -12 5 -16 12 -7 30 2 30 16 0 12 -27 12 -35 0z"></path> <path d="M4230 1086 c0 -9 7 -12 20 -9 11 3 17 9 14 14 -8 14 -34 10 -34 -5z"></path> <path d="M5275 1090 c12 -19 374 -124 460 -134 37 -4 26 1 -45 20 -255 68 -317 86 -340 96 -42 18 -81 27 -75 18z"></path> <path d="M1226 1075 c-3 -8 -1 -15 4 -15 15 0 12 -53 -5 -93 -8 -20 -26 -44 -40 -54 -46 -33 -68 -53 -63 -58 2 -3 24 13 48 34 25 22 47 38 50 36 3 -2 16 18 29 44 l23 47 -20 37 c-14 27 -21 33 -26 22z m31 -67 c-3 -8 -6 -5 -6 6 -1 11 2 17 5 13 3 -3 4 -12 1 -19z"></path> <path d="M1520 1080 c0 -5 9 -10 20 -10 11 0 20 5 20 10 0 6 -9 10 -20 10 -11 0 -20 -4 -20 -10z"></path> <path d="M1770 1080 c0 -5 9 -10 20 -10 11 0 20 5 20 10 0 6 -9 10 -20 10 -11 0 -20 -4 -20 -10z"></path> <path d="M4440 1080 c0 -5 5 -10 10 -10 6 0 10 5 10 10 0 6 -4 10 -10 10 -5 0 -10 -4 -10 -10z"></path> <path d="M5055 1080 c11 -5 27 -9 35 -9 9 0 8 4 -5 9 -11 5 -27 9 -35 9 -9 0 -8 -4 5 -9z"></path> <path d="M5160 1080 c0 -5 7 -10 15 -10 8 0 15 5 15 10 0 6 -7 10 -15 10 -8 0 -15 -4 -15 -10z"></path> <path d="M2750 1060 c0 -5 9 -10 20 -10 11 0 20 5 20 10 0 6 -9 10 -20 10 -11 0 -20 -4 -20 -10z"></path> <path d="M5030 1060 c0 -5 7 -7 15 -4 8 4 15 8 15 10 0 2 -7 4 -15 4 -8 0 -15 -4 -15 -10z"></path> <path d="M1680 1050 c0 -5 4 -10 9 -10 6 0 13 5 16 10 3 6 -1 10 -9 10 -9 0 -16 -4 -16 -10z"></path> <path d="M5290 1049 c-12 -8 -10 -9 8 -4 15 4 22 3 20 -6 -4 -15 213 -111 323 -142 44 -13 77 -25 75 -28 -2 -2 15 -4 37 -5 36 -1 27 4 -58 31 -138 44 -298 105 -310 118 -7 7 -4 8 10 3 124 -45 318 -106 350 -110 54 -8 48 -6 -165 62 -230 74 -240 76 -220 63 13 -10 13 -11 0 -11 -8 0 -22 5 -30 10 -13 9 -13 10 0 10 13 0 13 1 0 10 -19 12 -22 12 -40 -1z"></path> <path d="M1585 1039 c-4 -6 -5 -12 -2 -15 2 -3 7 2 10 11 7 17 1 20 -8 4z"></path> <path d="M3585 1030 c-3 -5 -1 -10 4 -10 6 0 11 5 11 10 0 6 -2 10 -4 10 -3 0 -8 -4 -11 -10z"></path> <path d="M5305 1010 c15 -17 15 -19 -4 -25 -12 -3 -19 -11 -16 -16 8 -12 -8 -12 -23 1 -6 6 -10 7 -7 4 3 -4 0 -13 -6 -20 -8 -10 -6 -12 9 -9 13 2 53 -18 104 -52 91 -60 360 -196 422 -212 45 -12 37 0 -14 19 -93 36 -374 179 -367 186 3 3 43 -14 88 -37 163 -82 330 -145 313 -118 -3 5 -13 9 -23 9 -37 0 -411 175 -411 192 0 5 3 8 8 6 4 -2 59 -29 124 -60 113 -56 254 -109 287 -107 9 0 -2 6 -24 13 -64 21 -256 101 -347 146 -45 22 -74 34 -64 25 14 -11 16 -15 5 -15 -8 0 -25 10 -39 21 -17 15 -19 19 -7 15 11 -3 16 -2 12 4 -9 15 -6 14 116 -44 122 -58 307 -126 342 -126 12 0 -21 15 -73 34 -130 45 -261 100 -348 146 -44 23 -67 31 -57 20z m38 -76 c21 -14 36 -28 33 -31 -5 -6 -86 45 -86 53 0 10 18 2 53 -22z"></path> <path d="M3780 1005 c0 -17 2 -18 24 -9 23 9 20 24 -4 24 -11 0 -20 -7 -20 -15z"></path> <path d="M1561 994 c0 -11 3 -14 6 -6 3 7 2 16 -1 19 -3 4 -6 -2 -5 -13z"></path> <path d="M2540 1000 c0 -5 9 -10 20 -10 11 0 20 5 20 10 0 6 -9 10 -20 10 -11 0 -20 -4 -20 -10z"></path> <path d="M3370 990 c0 -5 9 -10 20 -10 11 0 20 5 20 10 0 6 -9 10 -20 10 -11 0 -20 -4 -20 -10z"></path> <path d="M1985 980 c-3 -5 3 -10 15 -10 12 0 18 5 15 10 -3 6 -10 10 -15 10 -5 0 -12 -4 -15 -10z"></path> <path d="M4595 985 c6 -2 69 -5 140 -8 77 -2 114 -1 90 4 -38 7 -251 11 -230 4z"></path> <path d="M2190 960 c0 -5 9 -10 20 -10 11 0 20 5 20 10 0 6 -9 10 -20 10 -11 0 -20 -4 -20 -10z"></path> <path d="M2330 960 c0 -5 5 -10 10 -10 6 0 10 5 10 10 0 6 -4 10 -10 10 -5 0 -10 -4 -10 -10z"></path> <path d="M2867 963 c-14 -13 -6 -23 18 -23 16 0 25 6 25 15 0 15 -31 21 -43 8z"></path> <path d="M3080 960 c0 -5 9 -10 20 -10 11 0 20 5 20 10 0 6 -9 10 -20 10 -11 0 -20 -4 -20 -10z"></path> <path d="M4493 963 c9 -2 23 -2 30 0 6 3 -1 5 -18 5 -16 0 -22 -2 -12 -5z"></path> <path d="M2435 950 c4 -6 11 -8 16 -5 14 9 11 15 -7 15 -8 0 -12 -5 -9 -10z"></path> <path d="M3818 953 c7 -3 16 -2 19 1 4 3 -2 6 -13 5 -11 0 -14 -3 -6 -6z"></path> <path d="M4423 950 c-35 -14 -27 -20 10 -8 17 6 34 13 36 14 8 7 -24 3 -46 -6z"></path> <path d="M5000 949 c19 -6 41 -16 49 -22 12 -9 13 -9 7 1 -9 15 -1 15 25 2 14 -8 24 -8 37 0 16 11 16 11 -1 6 -10 -3 -26 -2 -35 3 -9 5 -39 12 -67 15 -47 5 -48 5 -15 -5z"></path> <path d="M2346 917 c3 -10 9 -15 12 -12 3 3 0 11 -7 18 -10 9 -11 8 -5 -6z"></path> <path d="M3568 923 c6 -2 18 -2 25 0 6 3 1 5 -13 5 -14 0 -19 -2 -12 -5z"></path> <path d="M4350 920 c-9 -6 -10 -10 -3 -10 6 0 15 5 18 10 8 12 4 12 -15 0z"></path> <path d="M5236 915 c-9 -9 -12 -23 -9 -33 6 -15 5 -15 -10 -3 -33 27 -16 -6 36 -70 108 -130 284 -246 463 -304 88 -29 124 -33 49 -5 -196 71 -422 215 -507 324 -45 57 -32 55 25 -4 100 -105 240 -199 391 -264 47 -20 100 -39 118 -42 19 -3 4 6 -33 19 -83 31 -273 134 -347 189 -71 53 -137 113 -163 150 l-20 28 20 0 c13 0 19 -5 15 -14 -5 -14 65 -82 152 -146 67 -50 221 -128 309 -157 84 -27 98 -23 21 6 -143 53 -373 190 -445 265 -42 43 -35 47 11 7 50 -43 175 -125 253 -164 82 -42 223 -97 245 -97 8 1 -13 12 -47 25 -96 37 -333 161 -378 198 -5 4 -19 14 -30 22 -11 7 -17 16 -14 20 4 3 26 -7 50 -23 125 -84 369 -203 412 -202 6 1 -13 11 -43 24 -95 39 -291 143 -390 206 -52 33 -79 47 -60 30 21 -18 28 -30 19 -30 -8 0 -29 14 -46 30 -28 28 -33 29 -47 15z" class=""></path> <path d="M1485 907 c-73 -19 -114 -44 -115 -69 0 -5 10 -8 23 -8 44 0 131 -51 189 -111 32 -32 57 -61 55 -64 -6 -12 34 -44 49 -38 13 5 12 9 -10 22 -14 9 -26 20 -26 26 0 6 -13 24 -30 40 -16 16 -28 31 -25 34 3 2 -7 13 -22 24 -26 17 -26 18 -4 12 14 -4 21 -3 18 3 -4 5 -27 15 -52 22 -32 9 -42 16 -33 21 9 6 6 9 -11 9 -13 0 -22 3 -18 6 19 19 353 -61 486 -116 41 -16 76 -29 78 -27 2 2 -27 18 -64 35 -85 39 -218 77 -354 102 l-104 19 80 -6 c114 -8 323 -62 459 -118 13 -6 17 -5 13 2 -4 6 -36 23 -72 37 -161 64 -408 107 -501 86 -34 -8 -50 -8 -52 0 -2 5 -8 8 -13 4 -5 -3 -9 -1 -9 4 0 22 62 35 185 39 116 4 141 2 230 -21 110 -28 264 -98 308 -140 15 -14 31 -26 35 -26 20 1 -83 77 -148 110 -135 68 -228 92 -370 96 -81 2 -143 -1 -175 -9z"></path> <path d="M2168 903 c6 -2 18 -2 25 0 6 3 1 5 -13 5 -14 0 -19 -2 -12 -5z"></path> <path d="M3373 903 c9 -2 23 -2 30 0 6 3 -1 5 -18 5 -16 0 -22 -2 -12 -5z"></path> <path d="M1507 878 c-7 -4 22 -8 65 -8 141 0 349 -45 474 -102 70 -32 74 -32 29 -4 -48 31 -124 61 -225 88 -78 21 -322 39 -343 26z"></path> <path d="M2683 883 c26 -2 67 -2 90 0 23 2 2 3 -48 3 -49 0 -68 -1 -42 -3z"></path> <path d="M1460 870 c-8 -5 -10 -10 -5 -10 6 0 17 5 25 10 8 5 11 10 5 10 -5 0 -17 -5 -25 -10z"></path> <path d="M4225 870 c-3 -6 1 -7 9 -4 18 7 21 14 7 14 -6 0 -13 -4 -16 -10z"></path> <path d="M2060 860 c-9 -6 -10 -10 -3 -10 6 0 15 5 18 10 8 12 4 12 -15 0z"></path> <path d="M4136 833 c-16 -8 -34 -16 -40 -17 -23 -4 -61 -19 -66 -25 -7 -9 -130 -63 -240 -105 -159 -61 -167 -65 -145 -65 11 -1 81 24 155 55 74 31 150 61 168 67 17 6 32 14 32 19 0 4 9 8 19 8 11 0 23 5 27 11 3 6 18 8 33 5 18 -5 22 -4 12 3 -11 7 -4 12 27 22 23 7 42 16 42 20 0 4 8 10 18 12 12 3 12 5 2 5 -8 1 -28 -6 -44 -15z"></path> <path d="M5196 832 c-3 -5 1 -15 9 -22 8 -7 15 -18 15 -25 0 -7 7 -18 15 -25 12 -10 15 -10 15 3 0 9 -6 22 -13 29 -7 7 -18 21 -24 32 -6 11 -13 14 -17 8z"></path> <path d="M4320 811 c-36 -10 -72 -21 -80 -24 -15 -7 62 -2 152 9 44 6 46 5 41 -15 -3 -11 -9 -18 -14 -15 -5 3 -9 -4 -9 -16 0 -12 -4 -18 -10 -15 -5 3 -7 0 -4 -8 3 -8 -2 -21 -10 -30 -8 -8 -13 -17 -10 -20 3 -3 -4 -10 -16 -17 -25 -13 -88 -6 -178 22 -34 10 -68 16 -74 12 -6 -4 -8 -3 -4 4 3 5 0 13 -6 16 -7 3 1 3 17 0 95 -19 194 -34 219 -34 33 0 29 11 -6 15 -52 6 -151 27 -171 36 -17 7 -14 8 18 5 22 -3 78 -8 125 -10 91 -6 64 3 -69 22 -62 9 -68 8 -150 -28 -104 -45 -278 -103 -424 -140 l-108 -27 78 -70 c102 -92 217 -174 298 -212 125 -59 295 -92 295 -57 0 20 -27 27 -34 9 -4 -9 -9 -13 -13 -10 -10 10 18 37 38 37 21 0 24 11 9 26 -7 7 -8 30 -2 67 6 37 5 54 -1 50 -6 -3 -7 -1 -3 6 4 6 16 9 26 6 26 -8 46 17 54 66 4 23 16 55 27 70 14 20 18 36 13 51 -3 13 -3 20 1 16 4 -4 23 4 41 19 24 18 34 33 34 53 0 15 7 33 15 40 8 7 15 20 15 30 0 9 9 29 20 42 10 14 16 28 13 32 -11 11 -86 5 -153 -13z m-200 -136 c8 -1 33 -7 55 -13 22 -6 69 -14 104 -18 61 -7 63 -8 45 -23 -19 -16 -25 -44 -11 -57 4 -4 7 -1 7 6 0 7 3 11 6 7 3 -3 -4 -19 -16 -35 -12 -16 -24 -48 -27 -71 -3 -23 -10 -44 -14 -47 -11 -6 -1 51 17 93 7 18 9 35 5 37 -4 3 -16 -22 -25 -54 -10 -33 -23 -60 -28 -60 -6 0 -4 -7 3 -17 13 -15 12 -15 -8 -5 -26 14 -36 -3 -26 -50 5 -24 3 -29 -7 -23 -10 6 -11 2 -6 -18 7 -30 -9 -81 -24 -72 -5 3 -7 0 -4 -8 3 -8 1 -18 -4 -21 -12 -7 -127 26 -179 53 -23 11 -53 21 -65 21 -19 0 -20 2 -8 10 8 5 12 10 8 10 -3 0 -14 3 -24 7 -13 5 -15 3 -9 -7 5 -9 4 -11 -4 -6 -6 4 -9 11 -6 16 3 4 -2 13 -10 20 -8 7 -13 16 -10 20 3 5 -4 6 -15 3 -11 -3 -17 -10 -13 -17 4 -6 -1 -5 -10 3 -9 7 -14 17 -11 22 3 5 -12 25 -33 44 -27 24 -41 31 -50 23 -9 -7 -27 4 -67 45 -29 31 -47 53 -40 50 8 -3 21 0 29 7 13 11 14 10 9 -6 -4 -10 -4 -16 1 -12 4 4 15 2 24 -4 13 -10 14 -10 4 1 -15 17 10 46 33 37 8 -3 13 -2 10 3 -3 4 34 19 82 31 48 13 106 32 129 43 24 10 51 16 60 13 10 -4 14 -4 10 0 -13 13 37 33 68 27 17 -3 37 -6 45 -8z m250 -39 c0 -2 -7 -9 -15 -16 -13 -11 -14 -10 -9 4 5 14 24 23 24 12z m-611 -230 c-3 -3 -11 5 -18 17 -13 21 -12 21 5 5 10 -10 16 -20 13 -22z" class=""></path> <path d="M4046 673 c-3 -4 -6 -11 -6 -16 0 -6 3 -7 7 -4 3 4 11 3 18 -3 28 -24 223 -60 210 -39 -3 4 -29 10 -58 14 -28 4 -68 14 -87 22 -68 28 -78 32 -84 26z"></path> <path d="M4015 627 c7 -16 172 -67 220 -67 43 0 28 7 -86 40 -57 17 -112 33 -122 37 -12 4 -16 1 -12 -10z"></path> <path d="M3932 604 c-12 -8 -27 -12 -33 -8 -7 4 -10 1 -7 -7 9 -27 193 -101 283 -114 36 -5 38 -4 15 6 -28 13 -35 15 -68 17 -15 1 -21 6 -16 14 5 8 2 9 -10 5 -15 -6 -146 44 -170 64 -11 10 31 32 45 23 8 -4 7 -9 -2 -16 -10 -6 -7 -7 10 -3 16 5 21 4 17 -4 -4 -6 -1 -11 6 -12 25 -1 56 -9 84 -20 16 -7 35 -11 43 -10 7 1 11 -2 7 -7 -3 -5 19 -8 49 -7 35 2 52 -1 48 -8 -3 -6 -1 -7 5 -3 5 3 13 0 15 -6 4 -8 6 -9 6 -2 2 20 -22 31 -77 38 -29 3 -92 22 -139 41 -48 19 -87 35 -88 35 0 0 -11 -7 -23 -16z"></path> <path d="M3854 555 c11 -8 24 -15 29 -15 4 0 5 -6 1 -12 -4 -7 -4 -10 0 -6 4 3 27 -4 51 -16 23 -13 63 -29 89 -37 25 -7 46 -17 46 -21 0 -4 7 -5 15 -2 8 4 15 1 15 -6 0 -7 8 -9 21 -5 12 4 19 3 16 -2 -3 -5 9 -9 28 -9 18 1 32 2 30 4 -1 2 -52 20 -111 41 -60 21 -129 48 -154 60 -25 12 -56 27 -70 32 -24 9 -24 8 -6 -6z"></path> <path d="M3768 544 c-14 -15 -13 -19 22 -50 39 -35 208 -127 264 -143 17 -5 39 -12 49 -16 9 -4 17 -3 17 1 0 5 -28 20 -62 33 -79 30 -224 105 -263 136 -24 20 -27 27 -17 37 9 9 15 9 20 3 8 -13 104 -82 114 -84 4 -1 28 -10 54 -21 25 -11 50 -20 55 -20 6 0 7 -4 4 -10 -4 -6 1 -7 11 -3 11 4 15 3 11 -4 -5 -7 1 -9 15 -6 19 4 20 3 8 -6 -12 -9 -8 -10 15 -5 17 4 34 10 39 15 5 4 -1 5 -14 2 -18 -5 -21 -3 -15 7 6 10 4 12 -8 7 -10 -4 -17 -2 -17 4 0 6 -6 9 -14 6 -15 -6 -216 91 -246 118 -21 19 -22 19 -42 -1z"></path> <path d="M3710 515 c0 -19 87 -82 180 -130 30 -16 63 -35 72 -43 9 -8 22 -11 29 -6 7 4 10 3 6 -3 -8 -12 59 -37 74 -27 8 4 9 3 5 -4 -5 -8 0 -12 13 -12 27 0 17 26 -12 33 -24 5 -129 49 -137 57 -3 3 -10 6 -17 7 -16 4 -143 81 -168 103 -25 22 -45 33 -45 25z" class=""></path> <path d="M3710 476 c14 -18 13 -19 -5 -12 -16 6 -18 5 -7 -5 8 -9 15 -10 22 -3 8 8 5 15 -7 25 -17 13 -17 13 -3 -5z"></path> <path d="M4130 379 c0 -5 5 -7 10 -4 6 3 10 8 10 11 0 2 -4 4 -10 4 -5 0 -10 -5 -10 -11z"></path> <path d="M4180 370 c0 -5 5 -10 10 -10 6 0 10 5 10 10 0 6 -4 10 -10 10 -5 0 -10 -4 -10 -10z"></path> <path d="M3870 366 c0 -2 8 -10 18 -17 15 -13 16 -12 3 4 -13 16 -21 21 -21 13z"></path> <path d="M3920 329 c29 -20 110 -59 121 -59 6 0 -19 16 -57 35 -67 35 -93 44 -64 24z"></path> <path d="M1530 816 c0 -2 33 -12 73 -21 67 -17 286 -93 368 -128 27 -12 36 -13 36 -3 0 7 -5 13 -11 13 -6 1 -73 24 -150 52 -140 52 -316 101 -316 87z"></path> <path d="M1600 771 c0 -5 17 -13 38 -18 22 -5 37 -15 37 -23 0 -15 173 -106 182 -96 3 2 -36 23 -86 47 -50 23 -89 44 -86 47 5 5 141 -45 160 -59 16 -12 115 -49 115 -43 0 2 -19 13 -42 23 -24 10 -73 32 -111 50 -37 17 -81 34 -97 38 -17 3 -30 9 -30 14 0 5 -9 9 -21 9 -11 0 -29 5 -40 10 -11 6 -19 7 -19 1z"></path> <path d="M4193 768 c-8 -14 169 -13 193 0 7 4 -33 7 -88 7 -55 0 -102 -3 -105 -7z"></path> <path d="M989 743 c29 -20 107 -28 141 -15 19 8 12 9 -31 5 -41 -4 -66 -1 -89 11 -42 21 -51 20 -21 -1z"></path> <path d="M1190 750 c-12 -8 -11 -10 8 -10 12 0 22 5 22 10 0 13 -11 13 -30 0z"></path> <path d="M1441 719 c-2 -39 68 -96 159 -129 71 -26 62 -14 -17 21 -70 31 -119 69 -133 104 -7 15 -9 16 -9 4z"></path> <path d="M1657 699 c7 -7 15 -10 18 -7 3 3 -2 9 -12 12 -14 6 -15 5 -6 -5z"></path> <path d="M1725 665 c22 -14 45 -25 50 -25 6 0 -8 11 -30 25 -22 13 -44 24 -50 24 -5 0 8 -11 30 -24z"></path> <path d="M2108 665 c-16 -13 -23 -27 -18 -30 6 -3 13 1 16 10 4 9 16 15 28 14 45 -3 52 1 32 16 -25 19 -26 19 -58 -10z"></path> <path d="M2035 660 c3 -6 1 -10 -4 -10 -6 0 -11 -6 -11 -13 0 -35 -72 -61 -98 -35 -9 9 -21 7 -50 -6 -36 -16 -42 -16 -76 -2 -20 8 -44 12 -52 9 -12 -4 -8 -9 16 -20 42 -17 105 -20 124 -4 10 9 23 9 48 2 l33 -11 -35 5 c-27 4 -31 2 -18 -6 30 -17 82 -1 100 32 9 16 24 29 33 29 20 0 20 26 -1 34 -8 3 -12 2 -9 -4z"></path> <path d="M3605 610 c3 -5 11 -10 16 -10 6 0 7 5 4 10 -3 6 -11 10 -16 10 -6 0 -7 -4 -4 -10z"></path> <path d="M3485 580 c-63 -19 -84 -29 -70 -33 11 -4 3 -4 -18 -2 -33 3 -38 2 -32 -13 5 -14 4 -15 -6 -4 -7 6 -22 11 -34 11 -19 -1 -19 -2 -1 -6 25 -6 -32 -28 -114 -43 -30 -5 -66 -13 -80 -16 -14 -3 -50 -8 -80 -11 -30 -3 -104 -11 -165 -18 l-110 -13 105 -1 c123 -1 211 12 450 68 211 50 210 50 210 62 0 6 -6 7 -12 3 -7 -4 -6 1 4 11 9 10 28 18 42 18 14 0 23 3 20 8 -7 11 -1 12 -109 -21z m5 -20 c0 -5 -10 -10 -22 -10 -19 0 -20 2 -8 10 19 13 30 13 30 0z"></path> <path d="M1715 565 c17 -8 48 -14 70 -13 l40 0 -47 8 c-25 5 -57 11 -70 14 -16 4 -14 2 7 -9z"></path> <path d="M2068 563 c7 -3 16 -2 19 1 4 3 -2 6 -13 5 -11 0 -14 -3 -6 -6z"></path> <path d="M2160 556 c0 -2 13 -6 29 -8 17 -2 28 -1 25 4 -5 8 -54 12 -54 4z"></path> <path d="M2248 543 c7 -3 16 -2 19 1 4 3 -2 6 -13 5 -11 0 -14 -3 -6 -6z"></path> <path d="M3234 520 c-47 -19 -317 -31 -444 -20 -69 6 -201 12 -295 14 -157 4 -161 4 -50 -3 66 -5 169 -12 229 -16 60 -4 129 -10 154 -14 91 -13 446 20 470 44 8 8 -41 5 -64 -5z"></path> <path d="M2078 513 c18 -2 45 -2 60 0 15 2 0 4 -33 4 -33 0 -45 -2 -27 -4z"></path> <path d="M2218 513 c7 -3 16 -2 19 1 4 3 -2 6 -13 5 -11 0 -14 -3 -6 -6z"></path> <path d="M2608 463 c6 -2 18 -2 25 0 6 3 1 5 -13 5 -14 0 -19 -2 -12 -5z"></path> <path d="M2748 443 c7 -3 16 -2 19 1 4 3 -2 6 -13 5 -11 0 -14 -3 -6 -6z"></path>  <path d="M2735 389 c-4 -6 -5 -12 -2 -15 2 -3 7 2 10 11 7 17 1 20 -8 4z"></path> <path d="M2757 377 c-6 -17 171 -112 281 -151 96 -34 111 -33 38 4 -33 16 -63 27 -68 24 -4 -3 -8 0 -8 5 0 6 -5 11 -10 11 -19 0 -205 91 -216 106 -10 12 -13 12 -17 1z"></path> <path d="M2796 379 c14 -23 278 -130 316 -129 22 1 -35 28 -118 56 -44 14 -107 39 -142 55 -34 15 -60 23 -56 18z"></path> <path d="M3005 355 c28 -7 64 -13 80 -13 l30 0 -27 8 c-15 4 -51 10 -80 13 l-53 6 50 -14z"></path> </g> </svg>