<svg version="1.0" xmlns="http://www.w3.org/2000/svg" width="531.000000pt" height="217.000000pt" viewBox="0 0 531.000000 217.000000" preserveAspectRatio="xMidYMid meet" style="width: 1188.88px; height: auto;"> <g transform="translate(0.000000,217.000000) scale(0.100000,-0.100000)" fill="#000000" stroke="none" class="">    <path d="M1836 1715 c-9 -24 -54 -30 -76 -10 -17 16 -19 15 -31 -7 -7 -13 -14 -30 -15 -38 -1 -8 -11 -53 -22 -100 -11 -47 -24 -118 -28 -157 -4 -49 -11 -73 -19 -73 -8 0 -20 -3 -29 -6 -13 -5 -16 3 -16 52 0 81 20 231 34 249 11 15 30 22 64 24 6 1 12 5 12 10 0 4 -18 8 -39 8 -34 0 -41 -4 -51 -28 -8 -18 -25 -33 -47 -41 -24 -9 -39 -23 -49 -46 -12 -29 -18 -33 -38 -28 -23 6 -24 3 -35 -77 -6 -45 -12 -101 -13 -124 -3 -38 -2 -41 11 -28 9 9 15 31 14 55 -1 25 2 38 8 34 6 -3 7 4 3 20 -4 16 -1 33 7 43 12 14 12 16 0 8 -11 -6 -13 -4 -8 9 4 10 7 22 7 27 0 5 7 9 15 9 13 0 15 -11 9 -72 -3 -40 -7 -89 -7 -108 -2 -31 -6 -35 -42 -46 -72 -21 -264 -111 -409 -193 -154 -87 -339 -171 -495 -225 -82 -29 -194 -78 -210 -92 -2 -2 -7 -22 -11 -45 -7 -36 -5 -45 15 -65 28 -28 157 -69 295 -94 58 -10 132 -28 165 -40 41 -14 104 -23 210 -30 82 -5 211 -16 285 -24 74 -8 174 -18 222 -21 73 -6 89 -11 102 -29 23 -35 106 -120 106 -109 0 6 -7 16 -15 23 -9 7 -14 19 -11 27 3 8 2 12 -3 9 -5 -3 -14 0 -20 7 -8 10 -7 14 4 14 8 0 11 -5 8 -11 -3 -6 -2 -8 2 -3 5 4 19 -2 31 -14 23 -21 23 -21 21 -1 0 11 -4 19 -7 17 -4 -2 -7 2 -7 10 0 19 11 19 27 0 10 -12 10 -15 -1 -15 -7 0 -3 -10 11 -25 13 -14 28 -25 33 -25 6 0 0 11 -13 25 -66 70 68 -31 163 -123 31 -31 57 -51 57 -45 0 15 -118 124 -190 174 -33 24 -57 45 -55 48 7 7 168 -104 243 -168 35 -29 66 -50 69 -47 4 4 -3 13 -15 22 -13 8 -43 33 -68 55 -47 41 -140 106 -184 129 -31 17 -71 21 -85 10 -12 -10 -34 -8 -54 4 -10 7 -12 5 -6 -5 4 -8 -7 3 -26 24 -34 38 -35 39 -139 49 -58 5 -132 11 -165 14 -33 2 -82 6 -110 10 -27 3 -70 6 -94 6 -56 -1 -48 5 24 19 98 18 157 50 208 114 26 31 47 61 47 65 0 26 86 113 136 137 29 15 54 31 54 36 0 12 -35 41 -85 71 -49 29 -233 89 -252 82 -8 -3 -11 -1 -8 4 12 20 -61 -3 -96 -31 -20 -15 -48 -31 -62 -35 -15 -3 -25 -10 -24 -14 2 -8 -33 -36 -128 -105 -15 -11 -35 -20 -44 -20 -9 0 -15 -5 -14 -12 2 -7 -18 -27 -44 -44 -25 -18 -43 -27 -39 -20 9 14 16 64 8 56 -3 -3 -10 5 -16 17 -6 13 -28 32 -49 44 -20 11 -34 24 -30 27 3 4 12 2 19 -3 9 -8 12 -6 10 7 -1 13 7 18 29 19 48 1 57 3 50 13 -7 12 30 33 40 23 3 -4 13 1 20 12 8 10 18 15 23 12 5 -3 15 0 21 8 7 8 23 17 37 20 14 4 22 11 19 16 -4 6 1 7 11 3 12 -4 15 -3 10 5 -4 8 -2 10 7 6 8 -3 21 1 29 8 32 30 59 40 74 27 8 -6 17 -9 21 -5 3 3 1 6 -6 6 -7 0 -9 5 -5 12 5 7 2 9 -7 4 -8 -4 -3 1 11 12 13 11 28 18 33 15 5 -3 15 3 23 13 9 11 12 12 8 4 -7 -13 -5 -13 9 -1 9 7 17 10 17 6 0 -4 9 3 21 16 11 13 18 18 14 12 -3 -7 -1 -13 4 -13 6 0 11 7 11 15 0 8 9 15 20 15 11 0 20 5 20 11 0 6 8 8 19 4 11 -3 21 0 24 9 3 8 27 17 58 21 30 4 47 10 39 15 -8 5 -1 11 21 19 19 6 37 11 42 11 4 0 22 6 40 13 17 8 39 12 47 10 13 -4 13 -3 0 6 -12 9 -10 11 10 8 14 -1 31 -6 39 -11 9 -6 12 -5 7 2 -7 11 9 25 34 29 8 1 28 4 43 7 16 3 26 2 22 -3 -3 -5 -1 -12 4 -16 6 -3 8 2 7 12 -3 13 3 18 18 19 11 0 48 4 81 8 33 5 77 8 98 7 21 -1 43 1 48 5 10 6 121 9 144 4 6 -1 14 -1 20 0 35 7 218 -3 310 -16 35 -5 70 -9 162 -17 21 -2 26 -16 10 -28 -5 -3 -2 -9 6 -12 9 -3 21 2 29 11 9 11 10 14 1 8 -7 -4 -13 -2 -13 3 0 15 16 14 32 -1 7 -7 29 -13 48 -13 19 1 39 -1 45 -4 5 -3 23 -6 40 -7 16 -1 48 -8 70 -17 22 -8 52 -13 68 -11 15 1 27 -2 27 -7 0 -5 15 -9 33 -9 17 0 45 -7 61 -15 16 -9 31 -13 34 -10 3 3 -1 5 -8 5 -7 0 -11 2 -8 5 7 8 39 -6 33 -14 -2 -4 15 -6 37 -5 23 1 53 -3 67 -9 14 -5 32 -9 39 -8 8 1 19 -3 27 -9 7 -6 30 -12 51 -14 22 -2 50 -8 64 -13 14 -6 31 -8 39 -5 10 4 12 1 6 -8 -5 -8 -4 -11 3 -6 6 3 13 2 16 -3 3 -4 24 -6 47 -4 31 4 40 2 34 -7 -5 -9 -2 -10 13 -6 18 6 71 -3 122 -22 25 -9 116 -27 153 -31 5 -1 5 -7 1 -13 -6 -10 -4 -10 8 0 9 7 19 9 22 4 3 -5 25 -12 48 -16 24 -4 66 -12 93 -18 28 -5 69 -11 91 -11 35 -1 39 -4 26 -13 -12 -9 -3 -9 33 1 34 8 56 9 69 3 14 -8 17 -7 11 3 -6 9 -2 11 13 7 12 -4 22 -3 22 0 0 13 58 5 93 -11 33 -16 67 -47 51 -47 -4 0 1 -7 12 -15 10 -8 15 -15 11 -15 -4 0 -3 -9 3 -21 12 -21 12 -21 -18 1 -38 28 -93 25 -107 -7 -5 -13 -16 -23 -24 -23 -8 0 -11 3 -8 6 4 4 -12 16 -34 27 -57 28 -93 16 -96 -33 -1 -19 -2 -41 -2 -48 -1 -7 -5 -10 -11 -7 -5 3 -10 2 -10 -3 0 -17 -44 -22 -67 -7 -12 8 -26 29 -31 47 -12 46 -51 72 -97 64 -38 -8 -40 -10 -50 -69 -3 -22 -16 -47 -31 -60 -53 -46 -194 -76 -194 -41 0 8 4 13 9 9 6 -3 9 10 8 30 -2 23 -10 40 -25 51 -18 12 -21 22 -17 52 6 50 -1 70 -33 86 -34 17 -110 12 -131 -8 -11 -12 -16 -38 -16 -100 -1 -52 -6 -90 -14 -100 -18 -22 -84 -42 -89 -27 -2 6 -10 11 -17 11 -30 0 -38 40 -25 112 16 85 7 117 -39 139 -47 22 -88 8 -124 -41 -23 -33 -27 -48 -27 -109 0 -75 -11 -93 -55 -85 -11 2 -33 5 -48 6 -38 3 -44 36 -22 103 16 45 16 57 6 83 -12 28 -75 82 -96 82 -5 0 -16 6 -24 13 -25 21 -100 46 -107 36 -3 -5 0 -9 7 -9 18 0 140 -61 177 -88 37 -28 42 -68 17 -129 -32 -76 -6 -113 79 -113 75 0 86 13 86 100 0 83 13 114 55 134 26 13 38 13 63 4 44 -17 58 -55 42 -114 -7 -25 -13 -59 -12 -76 1 -43 41 -81 83 -80 78 2 113 54 104 154 -3 35 -2 69 3 77 12 17 84 24 118 10 26 -9 26 -12 20 -64 -6 -52 -5 -56 19 -67 27 -12 32 -37 13 -69 -11 -17 -10 -22 6 -35 25 -18 58 -18 120 1 86 26 123 64 128 134 2 23 9 33 29 40 40 14 71 -7 88 -57 16 -51 43 -68 94 -58 46 9 61 28 53 67 -12 60 45 69 101 17 26 -25 57 -20 61 9 5 34 35 36 94 7 l54 -26 165 40 c90 23 193 47 228 54 35 7 66 18 68 24 4 13 -127 -15 -332 -70 -71 -19 -131 -33 -133 -31 -12 12 30 29 252 100 135 44 246 84 246 88 0 10 1 11 -273 -80 -126 -41 -231 -72 -234 -69 -4 3 -4 7 -2 9 13 10 256 114 379 163 156 62 156 61 148 69 -7 7 -209 -72 -387 -152 -133 -59 -182 -73 -135 -38 19 14 387 209 457 241 20 10 37 21 37 25 0 17 -261 -113 -447 -222 -45 -27 -85 -44 -87 -40 -3 5 2 15 12 23 25 23 293 193 343 219 24 12 38 24 31 26 -17 6 -103 -43 -265 -153 l-137 -93 -47 29 c-41 26 -44 30 -22 31 13 1 28 1 33 0 5 -1 12 2 15 7 7 11 123 67 133 64 4 -1 28 8 55 20 26 12 50 23 53 23 11 2 65 34 58 35 -18 1 -143 -47 -273 -104 l-140 -61 -105 0 c-97 1 -370 41 -370 55 0 3 29 39 64 80 35 41 62 77 59 80 -5 5 -80 -77 -115 -127 -19 -27 -26 -30 -58 -26 -19 3 -37 7 -38 9 -2 1 30 42 71 91 41 48 73 91 70 96 -2 4 -38 -34 -80 -85 -70 -85 -78 -93 -107 -90 -17 2 -33 5 -35 7 -4 5 42 66 112 148 27 31 44 57 39 57 -13 0 -74 -69 -127 -143 -37 -52 -43 -56 -70 -51 -16 4 -32 8 -34 10 -6 5 23 46 95 135 36 45 63 83 60 86 -7 7 -27 -17 -113 -129 -62 -83 -67 -87 -97 -81 -17 3 -33 7 -35 9 -4 3 34 55 111 151 32 39 58 77 58 84 0 7 -3 9 -6 6 -4 -3 -16 -2 -26 4 -15 8 -23 8 -32 -2 -8 -9 -8 -10 1 -5 6 3 14 2 18 -4 4 -6 11 -8 16 -5 20 13 6 -8 -66 -100 -40 -52 -78 -102 -83 -111 -7 -12 -17 -15 -41 -9 -17 3 -31 10 -31 15 0 10 120 171 158 212 14 15 22 31 19 35 -8 8 -8 8 -109 -126 -43 -56 -78 -107 -78 -112 0 -10 -37 -11 -62 -1 -15 6 -10 18 40 88 31 44 75 101 96 127 21 26 36 50 32 54 -3 3 -7 4 -9 2 -2 -2 -26 -33 -54 -69 -28 -36 -70 -95 -95 -131 -43 -64 -44 -65 -76 -57 -22 6 -30 13 -26 21 56 95 168 240 188 243 19 3 21 -7 4 -24 -9 -9 -5 -9 15 0 24 12 25 14 10 25 -9 7 -19 10 -24 8 -4 -3 -9 1 -12 7 -2 7 -7 11 -9 8 -19 -19 -157 -212 -173 -242 -16 -32 -23 -36 -45 -31 -14 3 -28 8 -32 12 -17 15 150 248 177 248 10 0 14 -6 10 -16 -4 -13 -2 -13 8 1 8 10 17 15 20 11 4 -3 7 1 7 9 0 17 -30 19 -42 3 -4 -6 -8 -1 -8 9 0 19 0 19 -21 0 -14 -13 -19 -14 -17 -4 2 9 -8 14 -32 16 -19 1 -39 -1 -44 -4 -5 -2 -31 -6 -59 -8 -32 -2 -54 -9 -59 -18 -5 -9 -15 -13 -22 -10 -23 9 -188 -82 -244 -134 l-33 -31 -62 12 -62 13 28 18 c15 10 27 23 27 29 0 6 -13 -2 -29 -17 -27 -26 -34 -28 -77 -21 l-46 7 38 39 c21 21 34 39 28 39 -6 0 -25 -16 -44 -35 -28 -29 -41 -35 -77 -35 -24 0 -43 3 -43 8 0 4 21 30 46 57 25 28 43 42 40 33 -3 -10 -1 -18 3 -18 5 0 18 -3 28 -6 16 -5 16 -4 -1 10 -11 9 -16 16 -10 16 5 0 2 4 -6 10 -9 6 -19 5 -28 -3 -11 -9 -19 -5 -38 18 -16 21 -22 24 -20 11 1 -10 10 -22 19 -27 14 -8 12 -15 -16 -54 -30 -41 -35 -44 -80 -44 l-49 -1 23 38 c32 53 70 92 83 85 6 -3 8 -3 4 2 -4 4 -3 14 3 22 7 8 8 13 1 13 -13 0 -83 -77 -107 -118 -14 -24 -26 -32 -47 -32 -15 0 -28 5 -28 10 0 14 34 80 63 123 20 29 26 33 40 22 12 -8 13 -15 5 -23 -8 -8 -6 -10 6 -8 9 1 22 8 28 14 9 9 8 12 -5 12 -9 0 -25 9 -35 20 -19 21 -19 21 -60 -47 -22 -37 -46 -80 -53 -95 -10 -23 -19 -28 -46 -28 -18 0 -33 5 -33 10 0 12 77 169 92 188 8 10 13 9 23 -5 7 -9 10 -24 8 -33 -4 -10 -1 -9 9 3 13 17 11 22 -11 47 l-26 27 -37 -69 c-21 -38 -47 -91 -58 -117 -20 -46 -22 -47 -66 -48 -41 -1 -44 1 -38 21 6 22 93 218 99 224 7 7 44 -32 38 -41 -4 -6 -1 -7 8 -1 8 5 17 9 21 9 17 0 19 15 2 15 -11 0 -30 9 -42 20 -12 11 -25 20 -29 20 -8 0 -34 -54 -89 -185 -31 -74 -35 -80 -65 -83 l-31 -3 7 43 c8 46 48 165 72 211 14 27 15 28 33 12 10 -9 27 -15 37 -12 14 3 11 7 -14 17 -18 6 -33 16 -33 21 0 5 -13 6 -29 3 -21 -5 -34 0 -50 17 -11 12 -21 18 -21 12 0 -19 -26 -22 -55 -7 -20 10 -32 11 -39 4 -15 -15 -52 -12 -70 5 -19 19 -32 19 -40 0z m43 -32 c8 -14 10 -15 11 -3 0 12 2 13 9 1 6 -9 11 -10 15 -2 4 6 11 11 16 11 5 0 -2 -25 -16 -56 -31 -71 -64 -189 -64 -231 0 -25 -4 -33 -17 -33 -10 0 -27 -3 -39 -6 -20 -5 -21 -4 -12 63 5 37 17 102 28 144 33 130 46 151 69 112z m96 -3 c-3 -5 7 -5 23 0 l29 8 -32 -74 c-18 -41 -41 -110 -51 -154 -14 -60 -23 -80 -36 -80 -9 0 -23 -3 -32 -6 -13 -5 -15 0 -10 27 24 142 83 307 104 294 6 -3 8 -10 5 -15z m-209 -2 c5 -7 3 -8 -6 -3 -9 5 -11 4 -6 -4 4 -6 12 -8 18 -5 6 4 14 0 19 -7 7 -11 9 -11 9 2 0 9 7 20 16 23 12 5 15 2 10 -10 -22 -58 -57 -198 -62 -252 -4 -35 -12 -65 -18 -67 -6 -2 -24 -6 -40 -10 l-29 -6 7 78 c8 87 19 143 43 221 16 52 26 62 39 40z m300 -3 c8 -8 21 -12 29 -9 20 8 19 5 -10 -57 -13 -29 -34 -90 -46 -135 -21 -81 -22 -82 -55 -86 -41 -5 -42 -1 -14 104 19 73 68 198 77 198 2 0 11 -7 19 -15z m-466 -133 c-5 -27 -12 -90 -16 -139 -7 -88 -7 -90 -37 -101 -17 -6 -33 -10 -35 -7 -8 7 18 225 30 250 6 14 17 25 23 25 7 0 18 7 25 15 19 23 21 14 10 -43z m1673 -46 c-3 -6 3 -3 14 7 42 37 19 -16 -53 -124 -39 -58 -73 -111 -75 -117 -4 -11 -160 15 -158 27 0 3 30 51 67 105 45 67 74 100 87 101 11 1 31 5 45 10 l24 8 -19 -29 c-10 -16 -43 -66 -73 -112 -30 -45 -53 -84 -50 -87 3 -3 22 21 43 52 90 137 126 182 140 177 8 -4 12 -11 8 -18z m-173 -22 c0 -3 -13 -24 -28 -47 -16 -23 -41 -63 -56 -89 -27 -49 -34 -52 -72 -42 -21 6 -21 7 13 67 35 64 60 90 74 81 5 -3 19 4 31 15 21 20 38 27 38 15z m-165 -123 c-23 -47 -28 -51 -53 -45 -43 10 -49 23 -14 30 18 4 35 10 38 15 3 5 -3 6 -13 2 -10 -3 0 8 22 24 22 17 41 29 43 28 2 -2 -8 -26 -23 -54z m-1638 -355 c48 -13 104 -31 123 -39 37 -16 120 -83 120 -97 0 -5 -20 -16 -44 -25 -54 -21 -91 -58 -159 -161 -56 -83 -97 -118 -156 -133 -131 -31 -154 -34 -192 -24 -23 6 -36 6 -32 0 3 -5 -3 -7 -13 -4 -11 3 -41 9 -67 13 -26 3 -54 12 -61 20 -8 7 -16 10 -19 7 -4 -3 -23 1 -44 9 -21 9 -45 13 -53 11 -10 -3 -9 0 3 7 18 12 24 65 7 75 -15 9 -12 25 5 25 24 0 72 27 155 88 41 31 122 91 180 134 58 42 116 86 130 97 14 11 26 20 27 21 1 0 41 -11 90 -24z m203 -57 c17 -13 18 -17 5 -10 -33 17 -51 31 -40 31 6 0 21 -10 35 -21z m64 -44 c11 -8 16 -18 12 -22 -3 -4 -16 3 -28 15 -25 25 -13 29 16 7z m-936 -60 c-3 -3 -9 2 -12 12 -6 14 -5 15 5 6 7 -7 10 -15 7 -18z m-18 -16 c0 -10 -5 -19 -11 -19 -6 0 -9 -6 -6 -12 2 -7 0 -21 -5 -32 -7 -13 -7 -16 1 -12 6 4 11 5 11 2 0 -2 3 -12 7 -21 5 -14 2 -16 -18 -10 -38 12 -107 44 -111 52 -3 5 -4 3 -2 -3 2 -8 -11 -11 -39 -8 l-42 4 50 -14 c28 -7 80 -25 118 -40 37 -14 76 -26 87 -26 24 0 48 -24 56 -56 8 -33 1 -39 -28 -20 -45 29 -158 66 -201 65 -23 -1 -32 -4 -19 -6 12 -2 22 -8 22 -12 0 -5 12 -6 26 -3 14 2 35 0 47 -5 62 -28 77 -37 73 -40 -8 -8 -76 -10 -76 -3 0 5 -10 6 -22 3 -19 -4 -20 -3 -8 7 12 10 11 11 -7 7 -13 -3 -23 -1 -23 4 0 5 -3 8 -7 8 -21 -3 -33 2 -27 12 4 7 -1 7 -16 -1 -15 -8 -20 -8 -16 -1 4 6 0 11 -11 11 -30 0 -58 26 -58 54 -1 19 3 25 13 21 12 -4 13 -3 2 10 -10 12 -10 15 4 15 10 0 14 5 11 10 -6 10 6 14 40 10 11 -1 17 2 12 6 -10 10 59 33 82 27 13 -3 21 2 26 16 3 12 10 19 14 17 4 -3 13 -1 21 4 18 11 30 3 30 -21z m133 19 c-2 -5 3 -8 11 -8 18 0 36 -30 36 -60 0 -11 -12 -32 -26 -45 -20 -19 -32 -22 -62 -18 -50 8 -69 19 -77 44 -11 34 4 69 34 82 31 13 92 16 84 5z m691 -70 c-28 -45 -67 -98 -76 -104 -13 -8 -4 7 41 69 31 43 53 64 35 35z m-74 -121 c0 -2 -12 -14 -27 -28 -24 -22 -23 -11 2 18 9 11 25 17 25 10z m-690 -57 c12 -8 9 -9 -12 -8 -15 1 -24 6 -22 10 7 10 16 10 34 -2z" class=""></path> <path d="M3250 1470 c-9 -6 -10 -10 -3 -10 6 0 15 5 18 10 8 12 4 12 -15 0z"></path> <path d="M1183 955 c12 -22 22 -104 22 -183 0 -79 -2 -85 -28 -107 -35 -31 -83 -45 -177 -51 -98 -7 -117 -11 -123 -28 -5 -12 -2 -12 21 0 15 8 55 14 90 14 119 0 197 32 228 93 26 50 5 232 -31 264 -4 5 -6 3 -2 -2z" class=""></path> <path d="M1300 695 c-35 -56 -98 -105 -137 -105 -36 0 -93 -24 -93 -40 0 -5 -17 -7 -37 -5 l-38 5 38 -11 c34 -10 41 -9 58 10 13 14 32 21 55 21 44 0 80 19 120 62 29 30 70 98 60 98 -2 0 -14 -16 -26 -35z" class=""></path> <path d="M1265 689 c-4 -6 -5 -12 -2 -15 2 -3 7 2 10 11 7 17 1 20 -8 4z"></path> <path d="M556 767 c3 -10 9 -15 12 -12 3 3 0 11 -7 18 -10 9 -11 8 -5 -6z"></path> <path d="M390 681 c0 -5 7 -11 15 -15 8 -3 15 -1 15 3 0 5 -7 11 -15 15 -8 3 -15 1 -15 -3z"></path> <path d="M659 794 c-18 -22 1 -49 36 -49 35 0 54 27 36 49 -8 9 -24 16 -36 16 -12 0 -28 -7 -36 -16z m54 -17 c4 3 7 1 7 -6 0 -8 -8 -10 -22 -5 -30 9 -31 10 -22 25 5 9 10 8 19 -4 7 -9 15 -14 18 -10z"></path> <path d="M2090 1536 c0 -2 8 -10 18 -17 15 -13 16 -12 3 4 -13 16 -21 21 -21 13z"></path> <path d="M3530 1456 c0 -2 7 -6 15 -10 8 -3 15 -1 15 4 0 6 -7 10 -15 10 -8 0 -15 -2 -15 -4z"></path> <path d="M2450 1420 c-6 -11 -8 -20 -6 -20 3 0 10 9 16 20 6 11 8 20 6 20 -3 0 -10 -9 -16 -20z"></path> <path d="M3678 1382 c-11 -15 -11 -16 4 -4 13 10 17 10 20 0 3 -8 6 -9 11 -1 12 18 -21 23 -35 5z"></path> <path d="M2665 1380 c-3 -6 1 -7 9 -4 18 7 21 14 7 14 -6 0 -13 -4 -16 -10z"></path> <path d="M3295 1379 c-4 -6 -5 -12 -2 -15 2 -3 7 2 10 11 7 17 1 20 -8 4z"></path> <path d="M3763 1338 c1 -17 3 -17 13 -4 6 9 13 15 15 13 2 -1 3 0 1 2 -9 15 -30 6 -29 -11z"></path> <path d="M3246 1327 c3 -10 9 -15 12 -12 3 3 0 11 -7 18 -10 9 -11 8 -5 -6z"></path> <path d="M2620 1317 c0 -9 4 -18 9 -21 5 -4 8 1 7 9 -3 21 -16 31 -16 12z"></path> <path d="M3525 1311 c-3 -5 -2 -12 3 -15 5 -3 9 1 9 9 0 17 -3 19 -12 6z"></path> <path d="M3828 1303 c6 -3 10 -9 6 -14 -8 -14 2 -11 14 4 8 10 6 13 -11 14 -12 0 -16 -1 -9 -4z"></path> <path d="M3310 1270 c-9 -6 -10 -10 -3 -10 6 0 15 5 18 10 8 12 4 12 -15 0z"></path> <path d="M3906 1268 c3 -5 10 -6 15 -3 13 9 11 12 -6 12 -8 0 -12 -4 -9 -9z"></path> <path d="M3486 1262 c-3 -5 1 -9 9 -9 8 0 12 4 9 9 -3 4 -7 8 -9 8 -2 0 -6 -4 -9 -8z"></path> <path d="M1480 1250 c-9 -6 -10 -10 -3 -10 6 0 15 5 18 10 8 12 4 12 -15 0z"></path> <path d="M4873 1248 c-6 -11 39 -10 55 1 9 5 3 8 -18 7 -18 -1 -34 -4 -37 -8z"></path> <path d="M3975 1241 c-7 -13 3 -33 14 -27 10 6 36 -11 36 -24 0 -16 20 -13 23 4 2 9 -3 16 -12 16 -8 0 -24 9 -35 21 -12 13 -21 17 -26 10z"></path> <path d="M2201 1211 c-14 -4 -26 -12 -29 -19 -2 -8 3 -8 22 2 26 13 63 14 106 2 l25 -7 -25 15 c-26 16 -59 18 -99 7z"></path> <path d="M3555 1211 c-3 -5 -2 -12 3 -15 5 -3 9 1 9 9 0 17 -3 19 -12 6z"></path> <path d="M4996 1202 c-2 -4 4 -8 14 -8 10 0 16 4 14 8 -3 4 -9 8 -14 8 -5 0 -11 -4 -14 -8z"></path> <path d="M2343 1154 c3 -16 9 -48 12 -70 4 -25 16 -51 31 -65 29 -27 32 -12 4 19 -12 13 -22 42 -26 77 -4 30 -11 58 -16 62 -6 3 -8 -6 -5 -23z"></path> <path d="M3995 1169 c3 -9 -1 -22 -10 -29 -12 -10 -15 -10 -15 0 0 17 -13 4 -16 -15 -3 -22 9 -18 36 10 19 20 21 28 11 38 -10 9 -11 9 -6 -4z"></path> <path d="M1280 1166 c0 -2 7 -7 16 -10 8 -3 12 -2 9 4 -6 10 -25 14 -25 6z"></path> <path d="M1330 1117 c-71 -35 -79 -41 -84 -54 -6 -16 10 -17 19 -3 12 20 83 59 119 65 47 9 76 1 109 -29 15 -14 27 -20 27 -15 0 26 -64 59 -113 59 -18 0 -52 -10 -77 -23z"></path> <path d="M2500 1129 c-12 -8 -8 -9 15 -6 16 3 38 1 47 -4 11 -6 18 -6 18 0 0 20 -55 28 -80 10z"></path> <path d="M2596 1081 c5 -33 1 -51 -22 -95 -28 -54 -28 -55 -11 -91 9 -20 17 -59 17 -88 0 -66 16 -90 60 -90 69 0 96 71 67 173 -16 56 -13 73 18 90 30 16 39 39 26 71 -10 24 -10 23 -10 -5 -1 -18 -12 -41 -27 -57 -29 -30 -30 -42 -20 -144 6 -62 4 -73 -13 -93 -40 -46 -108 -3 -79 51 7 15 7 18 -2 12 -9 -6 -10 0 -6 21 4 19 1 36 -8 49 -17 22 -22 85 -7 85 24 0 43 132 21 145 -7 4 -8 -7 -4 -34z" class=""></path> <path d="M2476 1094 c-3 -9 -6 -31 -6 -49 0 -59 -39 -118 -41 -62 0 21 -1 21 -8 2 -5 -11 -7 -23 -5 -27 3 -4 0 -9 -6 -13 -5 -3 -10 -10 -10 -16 0 -18 22 -9 51 22 22 23 29 41 29 69 0 21 4 50 10 64 5 14 6 26 1 26 -5 0 -12 -7 -15 -16z" class=""></path> <path d="M4500 1100 c-8 -5 -12 -11 -10 -14 3 -2 14 2 24 10 22 15 10 19 -14 4z"></path> <path d="M1146 1087 c3 -10 9 -15 12 -12 3 3 0 11 -7 18 -10 9 -11 8 -5 -6z"></path> <path d="M1820 1091 c0 -6 -7 -11 -15 -11 -8 0 -15 -6 -16 -12 -6 -77 -10 -94 -25 -105 -22 -16 -48 2 -41 28 5 19 -26 59 -46 59 -7 -1 -23 -7 -37 -15 -31 -18 -43 -19 -34 -2 5 7 1 7 -10 -2 -11 -10 -20 -11 -24 -4 -4 5 -18 15 -32 22 -20 10 -19 6 9 -18 35 -31 50 -32 99 -7 24 13 32 13 47 2 12 -8 16 -21 13 -34 -8 -30 17 -61 44 -55 34 8 48 32 48 79 0 33 5 46 22 58 41 29 147 17 188 -22 29 -27 37 -84 16 -113 -27 -40 -21 -74 19 -99 51 -31 65 -48 65 -76 0 -23 -20 -54 -34 -54 -2 0 -1 13 4 29 13 45 -13 61 -112 70 -72 7 -93 5 -155 -15 -40 -12 -87 -25 -105 -29 -33 -8 -33 -8 -8 -17 28 -11 148 5 213 28 43 15 117 19 117 6 0 -7 -220 -46 -320 -56 -19 -2 8 -2 60 0 52 2 131 11 175 20 102 21 117 22 122 8 5 -16 -130 -35 -307 -44 l-145 -7 130 -1 c72 -1 173 5 225 12 52 8 96 13 97 12 2 -1 -3 -11 -11 -21 -12 -17 -31 -19 -227 -19 -142 -1 -195 -4 -159 -9 94 -13 372 -5 392 11 15 12 16 12 11 -6 -6 -24 31 -62 60 -62 11 0 33 14 49 32 32 36 34 61 16 168 -11 61 -10 79 5 136 11 40 15 78 11 100 -10 55 -20 48 -20 -14 -1 -31 -6 -78 -12 -105 -8 -33 -8 -63 -2 -98 16 -85 13 -143 -11 -173 -22 -28 -48 -33 -67 -14 -16 16 -15 45 2 51 17 7 30 59 22 84 -4 10 -25 32 -47 48 -53 39 -61 55 -44 89 20 39 30 96 16 96 -6 0 -11 6 -11 13 0 6 -16 23 -35 36 -27 18 -53 25 -110 29 -52 3 -75 1 -75 -7z m110 -295 c0 -7 -179 -46 -203 -45 -12 0 9 9 46 19 38 10 71 21 74 24 7 7 83 8 83 2z" class=""></path> <path d="M2760 1090 c0 -5 5 -10 10 -10 6 0 10 5 10 10 0 6 -4 10 -10 10 -5 0 -10 -4 -10 -10z"></path> <path d="M2511 1064 c0 -11 3 -14 6 -6 3 7 2 16 -1 19 -3 4 -6 -2 -5 -13z"></path> <path d="M3797 1067 c-3 -7 3 -13 14 -13 13 0 15 3 7 13 -6 7 -12 13 -13 13 -2 0 -5 -6 -8 -13z"></path> <path d="M4975 1020 c3 -5 8 -10 11 -10 2 0 4 5 4 10 0 6 -5 10 -11 10 -5 0 -7 -4 -4 -10z"></path> <path d="M3471 954 c0 -11 3 -14 6 -6 3 7 2 16 -1 19 -3 4 -6 -2 -5 -13z"></path> <path d="M4235 961 c-3 -5 -2 -12 3 -15 5 -3 9 1 9 9 0 17 -3 19 -12 6z"></path> <path d="M4945 940 c3 -5 8 -10 11 -10 2 0 4 5 4 10 0 6 -5 10 -11 10 -5 0 -7 -4 -4 -10z"></path> <path d="M4755 889 c-99 -17 -199 -31 -221 -32 -31 -2 -40 -6 -36 -16 4 -10 1 -12 -8 -6 -10 6 -10 4 -2 -10 6 -11 6 -30 2 -47 -11 -36 9 -48 82 -48 29 0 116 -7 193 -15 168 -17 182 -18 170 -6 -10 9 -150 24 -348 37 -65 5 -95 10 -88 17 6 6 87 8 215 5 113 -2 206 0 206 4 0 4 -95 8 -212 8 -133 0 -208 4 -202 9 9 10 139 25 322 36 56 4 102 11 102 16 0 5 -6 9 -12 9 -33 0 -366 -31 -386 -35 -17 -4 -23 -2 -20 7 3 8 49 19 119 30 63 10 159 25 214 33 55 9 104 20 109 25 13 13 10 13 -199 -21z"></path> <path d="M1690 810 c-80 -7 -150 -26 -150 -41 0 -12 2 -12 36 5 16 8 58 16 94 19 l65 6 -50 -15 c-27 -9 -61 -20 -75 -25 -49 -18 53 2 110 22 30 10 64 19 77 19 12 0 25 5 28 10 7 11 -15 11 -135 0z" class=""></path> <path d="M3847 799 c7 -7 15 -10 18 -7 3 3 -2 9 -12 12 -14 6 -15 5 -6 -5z"></path> <path d="M1550 742 c0 -5 9 -18 21 -31 13 -14 21 -35 21 -59 0 -56 54 -95 147 -107 53 -6 52 1 -1 16 -24 6 -64 20 -90 31 -46 19 -47 21 -45 63 1 28 -5 48 -16 59 -9 10 -17 22 -17 27 0 5 -4 9 -10 9 -5 0 -10 -4 -10 -8z"></path> <path d="M4449 688 c-11 -21 -25 -37 -31 -35 -7 1 -12 -6 -13 -16 0 -20 7 -24 175 -114 52 -28 147 -81 209 -117 114 -65 131 -73 131 -58 -1 6 -229 134 -417 232 -45 24 -85 50 -88 58 -4 11 -2 12 7 5 7 -6 90 -44 183 -85 94 -42 232 -105 308 -141 75 -37 137 -62 137 -57 0 11 -244 129 -445 215 -171 73 -171 73 -164 79 7 7 351 -111 533 -183 43 -18 81 -29 84 -26 3 3 3 7 1 9 -12 10 -285 111 -424 156 -204 66 -192 62 -179 66 14 6 309 -66 454 -110 103 -32 134 -37 118 -20 -10 10 -305 92 -433 120 -69 15 -125 31 -125 36 0 5 12 7 28 4 15 -3 59 -10 97 -16 139 -21 350 -62 368 -71 13 -7 17 -6 17 6 0 8 -1 15 -2 15 -2 1 -117 20 -256 44 l-253 43 -20 -39z"></path> <path d="M1658 663 c7 -3 16 -2 19 1 4 3 -2 6 -13 5 -11 0 -14 -3 -6 -6z"></path> <path d="M2016 658 c-13 -7 -70 -8 -170 -4 -83 4 -148 4 -144 1 3 -4 71 -10 150 -13 117 -6 139 -9 122 -19 -15 -9 -47 -8 -138 3 -66 8 -121 13 -123 10 -5 -5 113 -26 153 -27 16 0 38 -4 48 -8 19 -7 18 -8 -4 -14 -13 -3 -71 5 -128 18 -57 14 -107 25 -110 24 -16 -1 49 -22 127 -40 74 -18 90 -19 130 -8 24 7 52 20 61 28 8 9 26 23 40 32 27 18 15 33 -14 17z" class=""></path> <path d="M3975 658 c-16 -5 -42 -9 -57 -9 -16 0 -28 -5 -28 -10 0 -5 -15 -9 -34 -9 -19 0 -38 -4 -41 -10 -3 -5 -19 -10 -34 -10 -16 0 -42 -7 -57 -15 -16 -8 -40 -15 -53 -15 -41 0 -141 -23 -141 -33 0 -5 -17 -8 -37 -7 -55 3 -63 1 -63 -11 0 -8 13 -10 37 -6 32 6 165 -26 247 -59 13 -5 17 -4 13 4 -7 10 -97 42 -162 57 -25 6 -11 11 80 30 61 12 164 37 230 55 200 56 363 42 513 -41 30 -17 51 -25 47 -20 -10 17 4 13 35 -9 53 -38 154 -91 209 -111 67 -23 76 -24 36 -2 -16 9 -32 16 -35 16 -10 -1 -88 41 -183 101 -140 87 -157 96 -157 89 0 -3 8 -12 18 -19 10 -8 12 -13 4 -14 -7 0 -20 9 -29 19 -9 11 -22 17 -29 14 -8 -3 -14 -1 -14 4 0 5 -8 10 -17 11 -10 0 -43 6 -73 11 -71 12 -186 12 -225 -1z m451 -95 c-6 -6 -46 20 -46 30 0 4 11 0 25 -9 14 -9 24 -19 21 -21z" class=""></path> <path d="M1640 616 c38 -23 208 -78 220 -71 17 10 0 27 -22 22 -10 -3 -56 7 -101 23 -45 15 -91 31 -102 35 -14 4 -12 1 5 -9z" class=""></path> <path d="M1993 595 c0 -8 4 -12 9 -9 5 3 6 10 3 15 -9 13 -12 11 -12 -6z"></path> <path d="M3298 553 c7 -3 16 -2 19 1 4 3 -2 6 -13 5 -11 0 -14 -3 -6 -6z"></path> <path d="M3333 518 c-2 -5 -14 -8 -27 -8 -12 0 -25 -3 -29 -6 -6 -6 -66 -13 -149 -17 -44 -2 -46 -3 -31 -19 18 -20 28 -24 18 -8 -3 6 -2 10 4 10 20 0 21 -19 1 -25 -18 -6 -19 -9 -8 -23 12 -15 11 -16 -4 -3 -10 7 -15 17 -12 22 3 5 -3 9 -12 9 -10 0 -14 3 -11 7 4 3 2 12 -4 20 -9 10 -15 10 -25 2 -9 -7 -19 -7 -35 1 -12 7 -19 8 -16 3 4 -6 -29 -10 -78 -11 -47 0 -121 -6 -165 -13 -63 -9 -83 -9 -95 1 -11 9 -15 9 -15 1 0 -8 -16 -11 -42 -10 -24 1 -79 -2 -122 -6 -61 -6 -77 -5 -71 5 6 9 3 10 -11 2 -24 -13 -378 -7 -453 8 -30 5 -57 8 -59 5 -3 -3 2 -5 11 -5 10 0 17 -4 17 -8 0 -4 27 -14 61 -21 72 -16 640 -10 877 10 l143 11 70 -76 c66 -71 73 -76 110 -74 21 1 39 6 39 11 0 6 10 1 23 -11 13 -12 28 -22 35 -22 6 0 -26 36 -71 81 -99 97 -71 89 36 -11 42 -40 82 -70 88 -68 6 2 -23 32 -65 67 -42 35 -76 65 -76 67 0 12 25 -2 85 -48 97 -76 114 -91 92 -84 -11 4 -16 2 -12 -5 4 -6 13 -8 21 -5 7 3 16 1 19 -4 4 -6 11 -10 17 -10 19 0 -22 38 -109 103 -45 33 -81 63 -79 65 8 7 72 -31 169 -101 79 -56 101 -67 110 -57 7 7 7 10 1 7 -5 -3 -50 23 -100 58 -49 36 -120 81 -159 102 -38 20 -64 38 -58 40 17 6 183 -80 279 -144 46 -31 87 -54 90 -51 8 9 -131 98 -235 150 -104 53 -117 61 -81 55 39 -8 242 -102 316 -147 36 -23 69 -39 72 -36 7 8 9 6 -87 62 -47 26 -125 64 -174 85 -133 55 -80 58 60 3 163 -64 240 -103 222 -115 -8 -5 -9 -9 -4 -9 13 0 41 18 35 23 -37 29 -285 137 -315 137 -8 0 -16 4 -19 9 -21 33 189 -23 317 -84 26 -12 50 -18 53 -13 6 10 -24 23 -166 72 -58 20 -112 39 -120 43 -21 9 -81 9 -87 1z m-268 -58 c-9 -14 36 -61 54 -55 18 5 100 -69 89 -81 -4 -3 -23 13 -44 35 -20 23 -39 39 -42 36 -3 -3 10 -21 28 -40 18 -19 30 -38 26 -42 -4 -4 -11 -1 -16 7 -6 8 -10 12 -10 8 0 -10 -35 18 -71 56 -16 16 -25 34 -22 40 3 6 3 8 -2 4 -9 -9 -35 9 -35 23 0 5 9 9 21 9 13 0 18 4 13 12 -4 7 -3 8 5 4 6 -4 9 -11 6 -16z m110 -1 c20 -12 34 -24 31 -26 -5 -5 -76 35 -76 43 0 7 9 4 45 -17z m-5 -24 c7 -8 8 -15 2 -15 -5 0 -15 7 -22 15 -7 8 -8 15 -2 15 5 0 15 -7 22 -15z" class=""></path> <path d="M5015 509 c-4 -6 -5 -12 -2 -15 2 -3 7 2 10 11 7 17 1 20 -8 4z"></path> <path d="M1653 494 c5 -5 12 -9 15 -10 4 0 14 -4 22 -7 50 -22 100 -35 100 -26 0 14 39 2 173 -52 65 -26 113 -41 107 -34 -6 7 -46 26 -88 41 -42 15 -87 34 -100 42 -12 8 -48 16 -80 17 -82 4 -84 4 -78 13 2 4 -3 8 -12 9 -9 1 -28 4 -42 9 -15 4 -22 3 -17 -2z" class=""></path> <path d="M1627 459 c7 -7 15 -10 18 -7 3 3 -2 9 -12 12 -14 6 -15 5 -6 -5z"></path> <path d="M1801 435 c3 -2 37 -17 75 -33 38 -16 100 -48 138 -70 67 -42 86 -49 86 -34 0 9 -190 106 -249 127 -46 16 -58 18 -50 10z" class=""></path> <path d="M1840 389 c41 -23 115 -68 164 -100 49 -33 91 -58 93 -55 13 12 -288 195 -322 196 -5 0 24 -19 65 -41z" class=""></path> <path d="M3668 373 c7 -3 16 -2 19 1 4 3 -2 6 -13 5 -11 0 -14 -3 -6 -6z"></path> <path d="M1719 342 c17 -32 81 -102 93 -102 6 0 -6 17 -26 37 -20 21 -36 42 -36 48 0 9 63 -53 103 -104 10 -13 21 -20 24 -17 9 8 -109 137 -121 133 -6 -3 -20 3 -30 12 -18 15 -18 15 -7 -7z" class=""></path> <path d="M4935 350 c3 -4 14 -10 25 -13 11 -3 18 -2 15 3 -3 4 -14 10 -25 13 -11 3 -18 2 -15 -3z"></path> <path d="M1872 250 c35 -38 67 -70 71 -70 5 0 -19 32 -54 70 -34 39 -66 70 -71 70 -5 0 19 -31 54 -70z" class=""></path> <path d="M3557 299 c7 -7 15 -10 18 -7 3 3 -2 9 -12 12 -14 6 -15 5 -6 -5z"></path>      </g> </svg>